<?xml version="1.0" standalone="no"?>
<!DOCTYPE svg PUBLIC "-//W3C//DTD SVG 1.1//EN" "http://www.w3.org/Graphics/SVG/1.1/DTD/svg11.dtd" >
<svg>
<metadata>
Created by FontForge 20120731 at Sun Aug  7 15:40:49 2016
 By ,,,
Copyright (c) 2014 by Fontfabric LLC. All rights reserved.
</metadata>
<defs>
<font id="Panton-SemiBold" horiz-adv-x="551" >
  <font-face 
    font-family="Panton SemiBold"
    font-weight="600"
    font-stretch="normal"
    units-per-em="1000"
    panose-1="0 0 7 0 0 0 0 0 0 0"
    ascent="754"
    descent="-246"
    x-height="516"
    cap-height="710"
    bbox="-205.48 -256 1153 965.259"
    underline-thickness="50"
    underline-position="-50"
    unicode-range="U+0020-FB02"
  />
<missing-glyph horiz-adv-x="686" 
d="M610 683v-656q0 -15 -6 -21t-20 -6h-477q-15 0 -20.5 6t-5.5 21v656q0 15 5.5 21t20.5 6h477q14 0 20 -6t6 -21zM514 620h-337v-530h337v530z" />
    <glyph glyph-name="fi" unicode="fi" horiz-adv-x="580" 
d="M328 740h166q14 0 19 -5t5 -19v-34q0 -14 -5 -19.5t-19 -5.5h-166q-71 0 -100 -27.5t-29 -94.5v-19h295q14 0 19 -5t5 -19v-468q0 -14 -5 -19t-19 -5h-42q-14 0 -19 5t-5 19v409h-229v-409q0 -14 -5.5 -19t-19.5 -5h-40q-14 0 -19.5 5t-5.5 19v409h-76q-23 0 -23 24v35
q0 24 23 24h76v19q0 107 52.5 156t166.5 49z" />
    <glyph glyph-name="fl" unicode="fl" horiz-adv-x="553" 
d="M328 740h135q13 0 18.5 -5t5.5 -19v-692q0 -14 -5.5 -19t-18.5 -5h-42q-13 0 -18.5 5t-5.5 19v633h-69q-71 0 -100 -27t-29 -95v-19h98q13 0 18.5 -5t5.5 -19v-35q0 -24 -24 -24h-98v-409q0 -14 -5.5 -19t-19.5 -5h-40q-14 0 -19.5 5t-5.5 19v409h-76q-23 0 -23 24v35
q0 24 23 24h76v20q0 105 52.5 154.5t166.5 49.5z" />
    <glyph glyph-name=".notdef" horiz-adv-x="686" 
d="M610 683v-656q0 -15 -6 -21t-20 -6h-477q-15 0 -20.5 6t-5.5 21v656q0 15 5.5 21t20.5 6h477q14 0 20 -6t6 -21zM514 620h-337v-530h337v530z" />
    <glyph glyph-name=".null" horiz-adv-x="0" 
 />
    <glyph glyph-name="nonmarkingreturn" horiz-adv-x="333" 
 />
    <glyph glyph-name="space" unicode=" " horiz-adv-x="228" 
 />
    <glyph glyph-name="exclam" unicode="!" horiz-adv-x="222" 
d="M89 740h45q14 0 19.5 -5.5t4.5 -18.5l-11 -508q-1 -14 -6 -19t-18 -5h-24q-13 0 -18 5t-6 19l-10 508q-1 13 4.5 18.5t19.5 5.5zM108 103h6q29 0 40 -11t11 -40v-8q0 -29 -11 -39.5t-40 -10.5h-6q-29 0 -40 10.5t-11 39.5v8q0 29 11 40t40 11z" />
    <glyph glyph-name="quotedbl" unicode="&#x22;" horiz-adv-x="319" 
d="M142 689l-11 -204q-1 -13 -5.5 -16.5t-18.5 -3.5h-24q-14 0 -18 3.5t-4 16.5v204q0 13 4 17t18 4h37q13 0 18 -4.5t4 -16.5zM265 689l-11 -204q-1 -13 -5 -16.5t-18 -3.5h-25q-14 0 -18 3.5t-4 16.5v204q0 13 4 17t18 4h37q14 0 18.5 -4t3.5 -17z" />
    <glyph glyph-name="numbersign" unicode="#" horiz-adv-x="694" 
d="M556 490h94q13 0 17 -5t1 -19l-11 -36q-6 -22 -31 -22h-94l-43 -145h94q14 0 18 -5.5t0 -18.5l-11 -36q-5 -13 -11.5 -17.5t-20.5 -4.5h-94l-47 -157q-7 -24 -30 -24h-39q-26 0 -18 24l47 157h-140l-47 -157q-8 -24 -31 -24h-39q-24 0 -17 24l47 157h-92q-26 0 -18 23
l11 37q6 22 32 22h92l43 145h-93q-26 0 -18 23l11 37q6 22 32 22h92l44 146q8 24 30 24h39q25 0 18 -24l-45 -146h141l44 146q7 24 30 24h39q26 0 18 -24zM445 408h-140l-44 -145h141z" />
    <glyph glyph-name="dollar" unicode="$" horiz-adv-x="591" 
d="M283 779h42q24 0 24 -24v-57q73 -9 118 -43t79 -103q12 -26 -15 -38l-38 -17q-24 -11 -36 14q-27 53 -61.5 75.5t-95.5 22.5q-74 0 -109 -26t-35 -81q0 -62 69 -82q38 -11 93 -16q77 -7 133 -25q38 -14 57 -32q52 -46 52 -135q0 -85 -54.5 -136.5t-156.5 -61.5v-59
q0 -24 -24 -24h-42q-24 0 -24 24v58q-152 15 -209 161q-10 25 17 36l38 14q15 5 22.5 1.5t13.5 -18.5q22 -55 60 -81t102 -26q160 0 160 110q-3 37 -19 56.5t-50 29.5q-40 11 -94 16q-76 7 -133 27q-38 14 -57 32q-52 45 -52 131q0 85 51.5 136t149.5 60v57q0 24 24 24z" />
    <glyph glyph-name="percent" unicode="%" horiz-adv-x="816" 
d="M34 505v73q0 70 42.5 109t119.5 39t119.5 -39t42.5 -109v-73q0 -69 -42.5 -107.5t-119.5 -38.5t-119.5 38.5t-42.5 107.5zM652 710h35q13 0 16.5 -7.5t-4.5 -17.5l-486 -662q-11 -16 -19.5 -19.5t-32.5 -3.5h-30q-15 0 -18.5 8t4.5 19l487 661q10 15 18 18.5t30 3.5z
M282 510v64q0 38 -22 59t-64 21q-87 0 -87 -80v-64q0 -38 22.5 -59t64.5 -21t64 21t22 59zM457 131v72q0 70 42.5 109t119.5 39t119.5 -39t42.5 -109v-72q0 -69 -42 -108t-120 -39t-120 39t-42 108zM706 136v63q0 80 -87 80q-42 0 -64 -21t-22 -59v-63q0 -38 22 -59t64 -21
q87 0 87 80z" />
    <glyph glyph-name="ampersand" unicode="&#x26;" horiz-adv-x="669" 
d="M105 548q0 72 51 125q49 52 136 52q76 0 129 -50q52 -49 52 -121q0 -65 -34 -107t-113 -78l-10 -5l154 -153l66 64q15 17 32 0l30 -31q14 -14 -2 -28l-68 -67l124 -125q21 -24 -11 -24h-56q-23 0 -36 15l-79 78q-67 -62 -117 -86q-48 -22 -108 -22q-89 0 -147 58
q-58 57 -58 146q0 69 36.5 116.5t106.5 82.5q-78 82 -78 160zM389 553q0 39 -28 66t-69 27q-45 0 -73.5 -28.5t-28.5 -70.5q0 -32 15.5 -58t53.5 -64l30 15q56 26 78 49t22 64zM412 156l-171 170q-110 -48 -110 -139q0 -50 34.5 -83.5t84.5 -33.5q40 0 75 19t87 67z" />
    <glyph glyph-name="quotesingle" unicode="'" horiz-adv-x="196" 
d="M142 689l-11 -204q-1 -13 -5.5 -16.5t-18.5 -3.5h-24q-14 0 -18 3.5t-4 16.5v204q0 13 4 17t18 4h37q13 0 18 -4.5t4 -16.5z" />
    <glyph glyph-name="parenleft" unicode="(" horiz-adv-x="270" 
d="M57 100v510q0 92 34.5 148t106.5 90q13 5 19.5 1.5t13.5 -16.5l16 -33q5 -13 2.5 -19t-15.5 -13q-46 -22 -67.5 -57t-21.5 -94v-524q0 -59 21.5 -94t67.5 -57q23 -12 13 -32l-16 -33q-7 -13 -13.5 -16.5t-19.5 1.5q-72 34 -106.5 90t-34.5 148z" />
    <glyph glyph-name="parenright" unicode=")" horiz-adv-x="270" 
d="M25 800l16 33q7 13 13.5 16.5t19.5 -1.5q72 -34 106.5 -90t34.5 -148v-510q0 -92 -34.5 -148t-106.5 -90q-13 -5 -19.5 -1.5t-13.5 16.5l-16 33q-5 13 -2.5 19t15.5 13q46 22 67.5 57t21.5 94v524q0 59 -21.5 94t-67.5 57q-13 7 -15.5 13t2.5 19z" />
    <glyph glyph-name="asterisk" unicode="*" horiz-adv-x="372" 
d="M176 673h28q16 0 13 -15l-9 -97l89 39q15 8 20 -8l8 -26q5 -15 -11 -18l-95 -20l64 -74q12 -10 -1 -20l-22 -16q-13 -10 -21 5l-49 83l-49 -83q-7 -15 -21 -6l-22 17q-13 10 -1 21l65 73l-94 20q-16 3 -12 19l9 25q6 15 19 8l89 -39l-9 97q-4 15 12 15z" />
    <glyph glyph-name="plus" unicode="+" horiz-adv-x="556" 
d="M320 369h168q15 0 20.5 -5.5t5.5 -20.5v-31q0 -15 -5.5 -21t-20.5 -6h-168v-168q0 -14 -6 -20t-21 -6h-31q-15 0 -20.5 6t-5.5 20v168h-168q-14 0 -20 6t-6 21v31q0 15 6 20.5t20 5.5h168v168q0 14 5.5 20t20.5 6h31q15 0 21 -6t6 -20v-168z" />
    <glyph glyph-name="comma" unicode="," horiz-adv-x="199" 
d="M150 71l-59 -169q-7 -24 -30 -24h-16q-12 0 -15.5 4t-1.5 15l30 174q2 17 9 23t24 6h34q36 0 25 -29z" />
    <glyph glyph-name="hyphen" unicode="-" horiz-adv-x="417" 
d="M86 308h245q15 0 21 -5.5t6 -20.5v-34q0 -15 -6 -20.5t-21 -5.5h-245q-15 0 -20.5 5.5t-5.5 20.5v34q0 15 5.5 20.5t20.5 5.5z" />
    <glyph glyph-name="period" unicode="." horiz-adv-x="205" 
d="M99 103h6q29 0 40 -11t11 -40v-8q0 -29 -11 -39.5t-40 -10.5h-6q-29 0 -40 10.5t-11 39.5v8q0 29 11 40t40 11z" />
    <glyph glyph-name="slash" unicode="/" horiz-adv-x="422" 
d="M401 689l-270 -727q-9 -22 -32 -22h-43q-25 0 -16 22l270 727q7 22 32 22h43q25 0 16 -22z" />
    <glyph glyph-name="zero" unicode="0" horiz-adv-x="629" 
d="M55 222v266q0 111 68.5 174t191.5 63q122 0 190.5 -63t68.5 -174v-266q0 -111 -68.5 -174t-190.5 -63q-123 0 -191.5 63t-68.5 174zM477 222v266q0 70 -42.5 108.5t-119.5 38.5q-78 0 -120.5 -38.5t-42.5 -108.5v-266q0 -69 42.5 -108t120.5 -39q77 0 119.5 39t42.5 108z
" />
    <glyph glyph-name="one" unicode="1" horiz-adv-x="442" 
d="M308 710h37q15 0 20.5 -6t5.5 -20v-658q0 -14 -5.5 -20t-20.5 -6h-44q-15 0 -20.5 6t-5.5 20v567l-179 -99q-26 -16 -39 9l-20 35q-12 22 12 36l222 125q17 11 37 11z" />
    <glyph glyph-name="two" unicode="2" horiz-adv-x="594" 
d="M58 561q68 164 260 164q107 0 171 -64t64 -155q0 -110 -68 -168q-36 -30 -82 -54q-49 -26 -119 -52q-25 -9 -37 -14q-1 -1 -7 -3.5t-12 -5.5t-13 -7q-24 -12 -33 -21q-27 -29 -27 -62v-29h363q15 0 20.5 -6t5.5 -20v-38q0 -14 -5.5 -20t-20.5 -6h-437q-15 0 -21 6t-6 21
v73q0 97 65 147q30 23 62 40q32 15 76 33q102 39 134 63q60 46 61 119q0 57 -38.5 95t-98.5 38q-117 0 -165 -106q-10 -25 -33 -17l-43 16q-26 9 -16 33z" />
    <glyph glyph-name="three" unicode="3" horiz-adv-x="606" 
d="M545 524q0 -114 -84 -154q107 -44 107 -171q0 -101 -64 -157.5t-186 -56.5q-109 0 -172 42t-93 130q-7 25 17 34l41 15q25 7 34 -17q21 -62 59 -88t114 -26q149 0 149 125q0 57 -30.5 87.5t-89.5 30.5h-127q-15 0 -20.5 5.5t-5.5 20.5v35q0 15 5.5 20.5t20.5 5.5h113
q54 0 85 30t31 80q0 120 -133 120q-72 0 -108 -25.5t-57 -86.5q-5 -14 -12.5 -17t-21.5 1l-41 15q-25 7 -17 33q30 88 91 129t168 41q108 0 167.5 -52.5t59.5 -148.5z" />
    <glyph glyph-name="four" unicode="4" horiz-adv-x="620" 
d="M485 266h82q15 0 20.5 -6t5.5 -20v-34q0 -14 -5.5 -20t-20.5 -6h-82v-154q0 -14 -6 -20t-20 -6h-38q-15 0 -20.5 6t-5.5 20v154h-345q-15 0 -20.5 6t-5.5 20v28q0 22 9 32l346 430q15 19 37 19h42q15 0 21 -5.5t6 -20.5v-423zM395 266v318l-258 -318h258z" />
    <glyph glyph-name="five" unicode="5" horiz-adv-x="590" 
d="M149 710h357q14 0 20 -6t6 -20v-38q0 -14 -6 -20t-20 -6h-310l-18 -183h145q114 0 176 -62q60 -63 60 -159q0 -98 -66 -164q-66 -67 -179 -67q-208 0 -265 160q-9 25 15 34l43 15q24 9 33 -16q37 -103 173 -103q66 0 105.5 38.5t39.5 102.5q0 60 -37.5 95.5t-102.5 35.5
h-215q-31 0 -28 32l30 292q2 22 11.5 30.5t32.5 8.5z" />
    <glyph glyph-name="six" unicode="6" horiz-adv-x="627" 
d="M151 469v-65q83 26 176 26q254 0 254 -222q0 -104 -70 -163.5t-193 -59.5q-127 0 -195.5 67.5t-68.5 189.5v226q0 123 68 190t196 67q194 0 252 -156q10 -22 -16 -33l-41 -15q-24 -9 -33 16q-41 98 -162 98q-82 0 -124.5 -42t-42.5 -124zM151 310v-69q0 -81 42.5 -123.5
t124.5 -42.5q80 0 123 34.5t43 98.5q0 68 -39 100t-124 32q-115 0 -170 -30z" />
    <glyph glyph-name="seven" unicode="7" horiz-adv-x="528" 
d="M51 710h437q14 0 20 -6t6 -20v-27q0 -19 -8 -37l-266 -597q-7 -15 -15.5 -19t-32.5 -4h-43q-24 0 -13 26l267 594h-352q-14 0 -20 6t-6 20v38q0 14 6 20t20 6z" />
    <glyph glyph-name="eight" unicode="8" horiz-adv-x="621" 
d="M67 532q0 92 64 142.5t179 50.5q120 0 182 -48t62 -138q0 -115 -123 -170q72 -29 108.5 -71t36.5 -111q0 -96 -66 -149t-200 -53q-265 0 -265 188q0 125 144 184q-61 29 -91.5 70.5t-30.5 104.5zM460 531q0 54 -39 82t-111 28q-70 0 -108 -28t-38 -82q0 -58 44 -85
q39 -24 103 -40l32 -8q31 10 69 35q48 31 48 98zM475 185q0 45 -23 68q-24 22 -37 28q-39 17 -50 20q-17 4 -27 8q-3 1 -31 7.5t-32 7.5q-132 -38 -132 -142q0 -113 167 -113q165 0 165 116z" />
    <glyph glyph-name="nine" unicode="9" horiz-adv-x="627" 
d="M476 241v65q-83 -26 -176 -26q-254 0 -254 222q0 104 70 163.5t193 59.5q127 0 195 -67.5t68 -189.5v-226q0 -124 -67.5 -190.5t-195.5 -66.5q-191 0 -253 156q-9 22 17 33l41 15q14 5 20.5 2t12.5 -18q41 -98 162 -98q82 0 124.5 42t42.5 124zM476 400v69q0 80 -43 123
t-124 43q-80 0 -123.5 -34.5t-43.5 -98.5q0 -67 39.5 -99.5t124.5 -32.5q114 0 170 30z" />
    <glyph glyph-name="colon" unicode=":" horiz-adv-x="227" 
d="M110 491h7q29 0 39.5 -11t10.5 -40v-8q0 -28 -10.5 -39t-39.5 -11h-7q-28 0 -39 11t-11 39v8q0 29 10.5 40t39.5 11zM110 103h7q28 0 39 -11t11 -40v-8q0 -28 -10.5 -39t-39.5 -11h-7q-29 0 -39.5 10.5t-10.5 39.5v8q0 29 11 40t39 11z" />
    <glyph glyph-name="semicolon" unicode=";" horiz-adv-x="248" 
d="M132 491h6q29 0 40 -11t11 -40v-8q0 -29 -11 -39.5t-40 -10.5h-6q-29 0 -40 10.5t-11 39.5v8q0 29 11 40t40 11zM173 71l-58 -169q-7 -24 -30 -24h-17q-11 0 -14.5 4t-1.5 15l30 174q2 17 8.5 23t23.5 6h35q35 0 24 -29z" />
    <glyph glyph-name="less" unicode="&#x3c;" horiz-adv-x="490" 
d="M54 372l350 190q28 15 28 -20v-34q0 -20 -4.5 -27.5t-19.5 -15.5l-263 -136v-4l262 -134q16 -8 20.5 -15.5t4.5 -28.5v-37q0 -35 -28 -20l-350 191q-22 10 -22 32v26q0 21 22 33z" />
    <glyph glyph-name="equal" unicode="=" horiz-adv-x="593" 
d="M87 469h419q15 0 21 -6t6 -20v-35q0 -15 -6 -20.5t-21 -5.5h-419q-15 0 -20.5 5.5t-5.5 20.5v35q0 14 5.5 20t20.5 6zM87 271h419q15 0 21 -5.5t6 -20.5v-34q0 -15 -6 -20.5t-21 -5.5h-419q-15 0 -20.5 5.5t-5.5 20.5v34q0 15 5.5 20.5t20.5 5.5z" />
    <glyph glyph-name="greater" unicode="&#x3e;" horiz-adv-x="490" 
d="M58 505v38q0 35 28 19l350 -190q22 -12 22 -33v-25q0 -23 -22 -33l-350 -190q-16 -8 -22 -3t-6 23v33q0 21 4.5 28.5t19.5 14.5l263 136v4l-262 135q-16 9 -20.5 16t-4.5 27z" />
    <glyph glyph-name="question" unicode="?" horiz-adv-x="563" 
d="M35 574q63 165 256 165q113 0 177 -58q65 -59 65 -148q0 -39 -14 -90q-2 -8 -8 -18t-10.5 -17t-12 -16.5t-8.5 -10.5q-4 -6 -24.5 -23t-25.5 -20q-3 -3 -28 -18q-23 -13 -25 -15q-40 -26 -58.5 -50.5t-18.5 -60.5q0 -15 -5.5 -20t-19.5 -5h-31q-14 0 -19.5 5t-5.5 20
q0 62 24.5 99.5t79.5 73.5q61 41 78 60q37 41 37 102q0 56 -39.5 90.5t-109.5 34.5q-65 0 -104.5 -27t-63.5 -83q-6 -15 -12.5 -18t-20.5 2l-37 13q-15 5 -18.5 12t2.5 21zM257 103h6q29 0 40 -11t11 -40v-8q0 -29 -11 -39.5t-40 -10.5h-6q-29 0 -40 10.5t-11 39.5v8
q0 29 11 40t40 11z" />
    <glyph glyph-name="at" unicode="@" horiz-adv-x="901" 
d="M46 256v73q0 184 106 290q105 106 296 106q194 0 299 -107q105 -106 105 -289v-73q0 -102 -49 -157q-50 -56 -123 -56q-30 0 -46 9t-32 31q-90 -32 -181 -32q-86 0 -130 42.5t-44 123.5v149q0 81 44 124t130 43q105 0 181 -30q20 -8 27 -17.5t7 -30.5v-305q0 -41 45 -41
q44 0 72 37t28 108v76q0 155 -86.5 243t-246.5 88q-158 0 -244.5 -87t-86.5 -244v-76q0 -156 85.5 -239.5t245.5 -83.5q78 0 216 26q14 5 14 -8v-35q0 -15 -14 -20q-106 -26 -216 -26q-192 0 -297 102t-105 286zM547 447q-42 16 -116 16q-108 0 -108 -99v-145q0 -99 108 -99
q71 0 129 24v285q0 14 -13 18z" />
    <glyph glyph-name="A" unicode="A" horiz-adv-x="649" 
d="M386 691l260 -665q9 -26 -18 -26h-39q-24 0 -33.5 4.5t-14.5 18.5l-62 163h-296l-62 -163q-5 -14 -14.5 -18.5t-33.5 -4.5h-35q-27 0 -18 26l260 664q7 22 33 22h40q25 0 33 -21zM452 265l-100 263q-18 52 -18 94h-6l-1 -14q-2 -38 -16 -79l-101 -264h242z" />
    <glyph glyph-name="B" unicode="B" horiz-adv-x="647" 
d="M100 710h280q94 0 146.5 -47.5t52.5 -136.5q0 -114 -86 -156v-3q112 -33 112 -174q0 -91 -58.5 -142t-157.5 -51h-289q-14 0 -20 6t-6 20v658q0 14 6 20t20 6zM480 512q0 108 -111 108h-198v-215h198q111 0 111 107zM502 203q0 55 -30 84.5t-86 29.5h-215v-227h215
q116 0 116 113z" />
    <glyph glyph-name="C" unicode="C" horiz-adv-x="638" 
d="M53 241v228q0 121 73 188.5t207 67.5q213 0 269 -170q7 -25 -17 -34l-41 -14q-14 -5 -21.5 -1.5t-12.5 17.5q-19 58 -61 85t-116 27q-89 0 -136 -43t-47 -122v-230q0 -78 48 -121.5t135 -43.5q74 0 116.5 28t61.5 86q5 15 12.5 18.5t21.5 -1.5l41 -15q26 -8 17 -34
q-55 -172 -270 -172q-134 0 -207 67.5t-73 188.5z" />
    <glyph glyph-name="D" unicode="D" horiz-adv-x="659" 
d="M100 710h218q137 0 213.5 -70t76.5 -194v-182q0 -124 -76.5 -194t-213.5 -70h-218q-14 0 -20 6t-6 20v658q0 14 6 20t20 6zM511 263v184q0 83 -50 128t-143 45h-147v-530h147q93 0 143 45t50 128z" />
    <glyph glyph-name="E" unicode="E" horiz-adv-x="576" 
d="M100 710h402q15 0 20.5 -6t5.5 -20v-38q0 -14 -5.5 -20t-20.5 -6h-331v-215h285q15 0 20.5 -6t5.5 -21v-37q0 -15 -5.5 -20.5t-20.5 -5.5h-285v-225h343q15 0 20.5 -6t5.5 -20v-38q0 -14 -5.5 -20t-20.5 -6h-414q-14 0 -20 6t-6 20v658q0 14 6 20t20 6z" />
    <glyph glyph-name="F" unicode="F" horiz-adv-x="559" 
d="M100 710h402q15 0 20.5 -6t5.5 -20v-38q0 -14 -5.5 -20t-20.5 -6h-331v-225h282q15 0 20.5 -6t5.5 -20v-38q0 -15 -5.5 -20.5t-20.5 -5.5h-282v-279q0 -14 -6 -20t-21 -6h-44q-14 0 -20 6t-6 20v658q0 14 6 20t20 6z" />
    <glyph glyph-name="G" unicode="G" horiz-adv-x="658" 
d="M344 378h242q15 0 21 -6t6 -21v-128q0 -109 -74.5 -173.5t-205.5 -64.5q-134 0 -207 67.5t-73 188.5v228q0 121 73 188.5t207 67.5q213 0 269 -170q7 -25 -17 -34l-41 -14q-14 -5 -21.5 -1.5t-12.5 17.5q-19 58 -61 85t-116 27q-89 0 -136 -43t-47 -122v-229
q0 -79 47.5 -122.5t135.5 -43.5q86 0 135 40t49 108v65h-173q-15 0 -20.5 5.5t-5.5 20.5v38q0 14 5.5 20t20.5 6z" />
    <glyph glyph-name="H" unicode="H" horiz-adv-x="683" 
d="M539 710h44q15 0 20.5 -6t5.5 -20v-658q0 -14 -5.5 -20t-20.5 -6h-44q-15 0 -20.5 6t-5.5 20v289h-342v-289q0 -14 -6 -20t-21 -6h-44q-14 0 -20 6t-6 20v658q0 14 6 20t20 6h44q15 0 21 -6t6 -20v-279h342v279q0 14 5.5 20t20.5 6z" />
    <glyph glyph-name="I" unicode="I" horiz-adv-x="245" 
d="M74 26v658q0 14 6 20t20 6h44q15 0 21 -6t6 -20v-658q0 -14 -6 -20t-21 -6h-44q-14 0 -20 6t-6 20z" />
    <glyph glyph-name="J" unicode="J" horiz-adv-x="574" 
d="M442 710h45q14 0 19.5 -6t5.5 -20v-456q0 -115 -64 -179t-183 -64q-190 0 -239 178q-7 25 16 34l42 15q25 7 34 -17q16 -61 51 -90.5t96 -29.5q74 0 112.5 39.5t38.5 112.5v457q0 14 5.5 20t20.5 6z" />
    <glyph glyph-name="K" unicode="K" horiz-adv-x="617" 
d="M471 272l127 -245q14 -27 -14 -27h-44q-24 0 -34.5 4.5t-17.5 18.5l-106 214q-24 46 -51.5 62.5t-81.5 16.5h-78v-290q0 -14 -6 -20t-21 -6h-44q-14 0 -20 6t-6 20v658q0 14 6 20t20 6h44q15 0 21 -6t6 -20v-280h70h18l213 284q11 14 20.5 18t32.5 4h49q13 0 17 -8
t-4 -17l-231 -300q71 -24 115 -113z" />
    <glyph glyph-name="L" unicode="L" horiz-adv-x="525" 
d="M100 710h44q15 0 21 -6t6 -20v-594h314q15 0 21 -6t6 -20v-38q0 -14 -6 -20t-21 -6h-385q-14 0 -20 6t-6 20v658q0 14 6 20t20 6z" />
    <glyph glyph-name="M" unicode="M" horiz-adv-x="805" 
d="M667 710h38q14 0 20 -6t6 -20v-658q0 -14 -6 -20t-20 -6h-40q-15 0 -20.5 6t-5.5 20v361q0 83 18 188h-5q-28 -76 -80 -168l-127 -226q-10 -19 -31 -19h-25q-21 0 -31 19l-129 228q-44 76 -75 166h-6q16 -92 16 -188v-361q0 -14 -5.5 -20t-20.5 -6h-38q-14 0 -20 6t-6 20
v658q0 14 6 20t20 6h35q26 0 37 -20l230 -409l229 408q7 13 13.5 17t22.5 4z" />
    <glyph glyph-name="N" unicode="N" horiz-adv-x="693" 
d="M552 710h41q14 0 20 -6t6 -20v-658q0 -14 -6 -20t-20 -6h-44q-18 0 -27 13l-285 415q-25 37 -51 94l-30 60h-5q0 -2 9 -69q8 -72 8 -117v-370q0 -14 -6 -20t-21 -6h-41q-14 0 -20 6t-6 20v658q0 14 6 20t20 6h44q19 0 26 -13l281 -408q31 -46 56 -98q8 -17 15.5 -32
l11 -22t3.5 -8h5q0 1 -1 8.5t-3 26t-4 37.5q-8 72 -8 121v362q0 14 5.5 20t20.5 6z" />
    <glyph glyph-name="O" unicode="O" horiz-adv-x="666" 
d="M53 241v228q0 121 73 188.5t207 67.5t207 -67.5t73 -188.5v-228q0 -121 -73 -188.5t-207 -67.5t-207 67.5t-73 188.5zM516 241v228q0 80 -47.5 123t-135.5 43t-135.5 -43t-47.5 -123v-228q0 -80 47.5 -123t135.5 -43t135.5 43t47.5 123z" />
    <glyph glyph-name="P" unicode="P" horiz-adv-x="627" 
d="M100 710h267q106 0 168 -61t62 -166t-61.5 -165t-168.5 -60h-196v-232q0 -14 -6 -20t-21 -6h-44q-14 0 -20 6t-6 20v658q0 14 6 20t20 6zM171 348h187q65 0 101.5 35.5t36.5 99.5t-36.5 100.5t-101.5 36.5h-187v-272z" />
    <glyph glyph-name="Q" unicode="Q" horiz-adv-x="679" 
d="M558 73l65 -76q17 -21 -3 -38l-29 -24q-21 -16 -37 3l-69 81q-59 -34 -152 -34q-134 0 -207 67.5t-73 188.5v228q0 121 73 188.5t207 67.5t207 -67.5t73 -188.5v-228q0 -104 -55 -168zM150 469v-228q0 -80 47.5 -123t135.5 -43t135.5 43t47.5 123v228q0 80 -47.5 123
t-135.5 43t-135.5 -43t-47.5 -123z" />
    <glyph glyph-name="R" unicode="R" horiz-adv-x="647" 
d="M100 710h281q102 0 159 -56t57 -157q0 -80 -38.5 -131.5t-108.5 -67.5q27 -15 50 -56l111 -215q13 -27 -14 -27h-44q-25 0 -35 4.5t-17 18.5l-91 183q-22 45 -50 62t-82 17h-107v-259q0 -14 -6 -20t-21 -6h-44q-14 0 -20 6t-6 20v658q0 14 6 20t20 6zM496 497
q0 59 -32.5 91t-91.5 32h-201v-245h201q59 0 91.5 32t32.5 90z" />
    <glyph glyph-name="S" unicode="S" horiz-adv-x="629" 
d="M51 513q0 97 70.5 154.5t195.5 57.5q101 0 162 -36.5t100 -116.5q12 -24 -14 -35l-42 -19q-14 -6 -20.5 -3.5t-13.5 16.5q-28 53 -67.5 77t-104.5 24q-167 0 -167 -113q0 -70 82 -95q39 -13 110 -20q90 -11 139 -30q35 -14 59 -35q53 -49 53 -137q0 -102 -72.5 -159.5
t-204.5 -57.5q-109 0 -174 41.5t-99 129.5q-5 14 -1.5 21.5t18.5 12.5l41 15q23 10 34 -16q50 -113 181 -113q180 0 180 124q0 61 -55 85q-42 17 -122 27q-65 6 -123 21q-33 7 -58 22q-92 50 -87 158z" />
    <glyph glyph-name="T" unicode="T" horiz-adv-x="554" 
d="M40 710h474q14 0 20 -6t6 -20v-38q0 -14 -6 -20t-20 -6h-189v-594q0 -14 -5.5 -20t-20.5 -6h-44q-15 0 -20.5 6t-5.5 20v594h-189q-15 0 -20.5 6t-5.5 20v38q0 14 5.5 20t20.5 6z" />
    <glyph glyph-name="U" unicode="U" horiz-adv-x="685" 
d="M165 684v-442q0 -80 45.5 -123.5t131.5 -43.5t131.5 43.5t45.5 123.5v442q0 14 6 20t21 6h44q14 0 20 -6t6 -20v-441q0 -122 -70.5 -190t-203.5 -68q-131 0 -202 68.5t-71 189.5v441q0 14 5.5 20t20.5 6h44q15 0 20.5 -6t5.5 -20z" />
    <glyph glyph-name="V" unicode="V" horiz-adv-x="630" 
d="M573 710h37q28 0 17 -26l-250 -662q-7 -22 -32 -22h-41q-26 0 -33 21l-250 663q-9 26 18 26h39q24 0 33 -4.5t14 -18.5l174 -480q5 -15 11 -38t10 -39l4 -15h4l4 15q4 16 10 38.5t11 37.5l172 481q5 14 14.5 18.5t33.5 4.5z" />
    <glyph glyph-name="W" unicode="W" horiz-adv-x="890" 
d="M807 710h46q14 0 17.5 -5.5t0.5 -20.5l-173 -662q-5 -22 -33 -22h-42q-29 0 -33 21l-120 445q-13 49 -18 104h-6q-5 -54 -19 -104l-121 -444q-6 -22 -33 -22h-42q-29 0 -33 21l-172 663q-4 14 -0.5 20t17.5 6h53q18 0 25 -4.5t10 -18.5l104 -433q10 -50 17 -120h5
q12 88 21 119l118 426q8 23 35 23h42q29 0 35 -23l117 -426q15 -59 21 -119h5q7 76 18 118l103 435q3 14 10 18.5t25 4.5z" />
    <glyph glyph-name="X" unicode="X" horiz-adv-x="627" 
d="M377 362l235 -335q9 -10 5.5 -18.5t-18.5 -8.5h-54q-23 0 -32 4t-19 19l-182 264l-177 -264q-10 -16 -18.5 -19.5t-32.5 -3.5h-50q-14 0 -17.5 8t4.5 19l234 334l-226 324q-8 9 -4 17t17 8h52q23 0 31.5 -3.5t19.5 -18.5l172 -250l172 250q11 15 19 18.5t29 3.5h54
q12 0 16 -8t-3 -17z" />
    <glyph glyph-name="Y" unicode="Y" horiz-adv-x="634" 
d="M558 710h50q29 0 14 -26l-254 -400v-258q0 -14 -5.5 -20t-20.5 -6h-44q-15 0 -20.5 6t-5.5 20v260l-254 398q-7 10 -3.5 18t17.5 8h54q25 0 33.5 -4t17.5 -19l184 -303l186 303q9 16 17.5 19.5t33.5 3.5z" />
    <glyph glyph-name="Z" unicode="Z" horiz-adv-x="576" 
d="M64 710h446q14 0 20 -6t6 -20v-37q0 -17 -9 -28l-373 -529h364q15 0 20.5 -5.5t5.5 -20.5v-38q0 -14 -5.5 -20t-20.5 -6h-458q-15 0 -21 6t-6 20v37q0 16 10 29l372 528h-351q-14 0 -20 6t-6 20v38q0 14 6 20t20 6z" />
    <glyph glyph-name="bracketleft" unicode="[" horiz-adv-x="286" 
d="M89 856h155q15 0 19 -4t4 -19v-34q0 -15 -4 -19t-19 -4h-94v-841h94q15 0 19 -4.5t4 -18.5v-35q0 -15 -4 -19t-19 -4h-155q-15 0 -19.5 4.5t-4.5 19.5v954q0 15 4.5 19.5t19.5 4.5z" />
    <glyph glyph-name="backslash" unicode="\" horiz-adv-x="422" 
d="M307 -38l-270 726q-7 22 16 22h44q23 0 32 -22l270 -726q9 -22 -16 -22h-44q-23 0 -32 22z" />
    <glyph glyph-name="bracketright" unicode="]" horiz-adv-x="286" 
d="M42 856h155q15 0 19.5 -4.5t4.5 -19.5v-954q0 -15 -4.5 -19.5t-19.5 -4.5h-155q-15 0 -19 4t-4 19v35q0 14 4 18.5t19 4.5h94v841h-94q-15 0 -19 4t-4 19v34q0 15 4 19t19 4z" />
    <glyph glyph-name="asciicircum" unicode="^" horiz-adv-x="590" 
d="M305 810h25q12 0 19 -6q5 -4 13 -15l199 -241q22 -28 -13 -28h-40q-21 0 -28 3t-19 18l-143 179h-4l-142 -179q-12 -14 -19.5 -17.5t-28.5 -3.5h-36q-35 0 -13 28l196 241q18 21 34 21z" />
    <glyph glyph-name="underscore" unicode="_" horiz-adv-x="501" 
d="M51 0h399q15 0 21 -6t6 -20v-34q0 -15 -6 -20.5t-21 -5.5h-399q-15 0 -20.5 5.5t-5.5 20.5v34q0 14 5.5 20t20.5 6z" />
    <glyph glyph-name="grave" unicode="`" horiz-adv-x="257" 
d="M40 702l19 24q15 18 45 1l155 -94q15 -9 1 -26l-11 -15q-7 -10 -31 -1l-175 83q-19 9 -3 28z" />
    <glyph glyph-name="a" unicode="a" horiz-adv-x="516" 
d="M52 426q54 105 203 105q109 0 158 -52t49 -150v-261q0 -26 -7.5 -37t-28.5 -20q-61 -26 -172 -26q-126 0 -172 39q-47 38 -47 120q0 86 51 121.5t172 35.5q58 0 114 -7v38q0 60 -27.5 89.5t-91.5 29.5q-87 0 -124 -61q-10 -13 -14 -14.5t-19 2.5l-31 14q-25 10 -13 34z
M372 94v126q-85 8 -124 8q-68 0 -95.5 -19.5t-27.5 -64.5q0 -44 26.5 -64t94.5 -20q76 0 111 12q15 6 15 22z" />
    <glyph glyph-name="b" unicode="b" horiz-adv-x="539" 
d="M84 740h42q14 0 19 -5t5 -19v-210q76 25 141 25q101 0 151.5 -51t50.5 -147v-140q0 -208 -220 -208q-103 0 -175 31q-24 11 -30.5 21t-6.5 34v645q0 24 23 24zM403 196v134q0 119 -125 119q-58 0 -128 -26v-321q0 -14 14 -19q42 -16 103 -16q136 0 136 129z" />
    <glyph glyph-name="c" unicode="c" horiz-adv-x="516" 
d="M45 187v143q0 97 57 149t167 52q169 0 211 -134q9 -25 -16 -34l-35 -11q-24 -10 -34 16q-27 84 -130 84q-63 0 -96.5 -30.5t-33.5 -87.5v-151q0 -57 33.5 -88t96.5 -31q103 0 131 87q6 14 13 17.5t21 -1.5l35 -10q26 -11 17 -34q-50 -138 -219 -138q-107 0 -162.5 52.5
t-55.5 149.5z" />
    <glyph glyph-name="d" unicode="d" horiz-adv-x="539" 
d="M46 186v141q0 100 51 152t152 52q59 0 140 -22v207q0 14 5.5 19t18.5 5h42q23 0 23 -24v-645q0 -25 -7.5 -35t-31.5 -20q-80 -31 -179 -31q-214 0 -214 201zM389 102v325q-70 22 -123 22q-130 0 -130 -125v-135q0 -122 132 -122q62 0 107 16q14 5 14 19z" />
    <glyph glyph-name="e" unicode="e" horiz-adv-x="534" 
d="M44 193v124q0 103 58 158.5t168 55.5q109 0 167.5 -56t58.5 -151v-58q0 -35 -37 -35h-326v-48q0 -58 34.5 -89t99.5 -31q99 0 139 69q17 24 39 9l27 -14q26 -13 9 -39q-58 -103 -215 -103q-110 0 -166 55t-56 153zM407 300v29q0 60 -35.5 93t-101.5 33t-101.5 -33
t-35.5 -93v-29h274z" />
    <glyph glyph-name="f" unicode="f" horiz-adv-x="361" 
d="M319 740h9q14 0 19 -5t5 -19v-35q0 -13 -5 -18.5t-19 -5.5q-73 0 -101 -26.5t-28 -96.5v-18h131q23 0 23 -24v-35q0 -24 -23 -24h-131v-409q0 -14 -5.5 -19t-19.5 -5h-40q-14 0 -19.5 5t-5.5 19v409h-76q-23 0 -23 24v35q0 24 23 24h76v18q0 106 50 155.5t160 50.5z" />
    <glyph glyph-name="g" unicode="g" horiz-adv-x="538" 
d="M48 201v123q0 207 220 207q108 0 174 -31q24 -11 31 -21t7 -34v-470q0 -216 -215 -216q-147 0 -202 102q-16 25 9 38l29 16q24 13 39 -9q39 -67 123 -67q127 0 127 132v57q-76 -25 -140 -25q-202 0 -202 198zM376 434q-46 15 -102 15q-137 0 -137 -128v-118
q0 -118 125 -118q55 0 128 22v307q0 15 -14 20z" />
    <glyph glyph-name="h" unicode="h" horiz-adv-x="553" 
d="M87 740h42q23 0 23 -24v-207q45 22 140 22q203 0 203 -198v-309q0 -14 -5.5 -19t-18.5 -5h-41q-14 0 -19 5t-5 19v306q0 119 -126 119q-80 0 -128 -23v-402q0 -24 -23 -24h-42q-13 0 -18.5 5t-5.5 19v692q0 14 5.5 19t18.5 5z" />
    <glyph glyph-name="i" unicode="i" horiz-adv-x="214" 
d="M104 705h6q28 0 38 -10.5t10 -37.5v-8q0 -27 -10 -37.5t-38 -10.5h-6q-27 0 -37.5 10t-10.5 38v8q0 27 10.5 37.5t37.5 10.5zM86 516h42q14 0 19 -5t5 -19v-468q0 -14 -5 -19t-19 -5h-42q-14 0 -19 5t-5 19v468q0 14 5 19t19 5z" />
    <glyph glyph-name="j" unicode="j" horiz-adv-x="215" 
d="M104 705h7q27 0 37.5 -10.5t10.5 -37.5v-8q0 -27 -10.5 -37.5t-37.5 -10.5h-7q-27 0 -37 10t-10 38v8q0 27 10 37.5t37 10.5zM87 516h41q14 0 19 -5t5 -19v-500q0 -111 -52.5 -166.5t-164.5 -55.5q-13 0 -18.5 5t-5.5 19v35q0 24 24 24q68 0 98 34.5t30 106.5v498
q0 14 5.5 19t18.5 5z" />
    <glyph glyph-name="k" unicode="k" horiz-adv-x="514" 
d="M402 206l88 -178q8 -15 5 -21.5t-20 -6.5h-39q-20 0 -27 4t-14 18l-69 145q-14 30 -34.5 42.5t-55.5 12.5h-84v-197q0 -14 -5.5 -19.5t-19.5 -5.5h-39q-14 0 -19.5 5.5t-5.5 19.5v691q0 14 5.5 19t19.5 5h39q14 0 19.5 -5t5.5 -19v-411h73h8l149 193q9 12 16.5 15t30.5 3
h38q37 0 15 -28l-160 -200q49 -18 80 -82z" />
    <glyph glyph-name="l" unicode="l" horiz-adv-x="221" 
d="M155 716v-692q0 -14 -5.5 -19t-18.5 -5h-41q-14 0 -19 5t-5 19v692q0 14 5 19t19 5h41q13 0 18.5 -5t5.5 -19z" />
    <glyph glyph-name="m" unicode="m" horiz-adv-x="822" 
d="M396 493q94 38 178 38q189 0 189 -194v-313q0 -24 -23 -24h-42q-14 0 -19 5t-5 19v310q0 115 -112 115q-55 0 -118 -27q15 -31 15 -85v-313q0 -24 -23 -24h-42q-14 0 -19 5t-5 19v310q0 115 -114 115q-50 0 -94 -16q-12 -7 -12 -21v-388q0 -14 -5 -19t-19 -5h-42
q-23 0 -23 24v417q0 24 7.5 35.5t30.5 21.5q76 33 169 33q81 0 128 -38z" />
    <glyph glyph-name="n" unicode="n" 
d="M99 497q81 34 191 34q203 0 203 -198v-309q0 -14 -5.5 -19t-18.5 -5h-42q-13 0 -18.5 5t-5.5 19v306q0 119 -125 119q-60 0 -116 -18q-12 -5 -12 -18v-389q0 -14 -5 -19t-19 -5h-42q-23 0 -23 24v417q0 24 7.5 35t30.5 21z" />
    <glyph glyph-name="o" unicode="o" horiz-adv-x="541" 
d="M46 176v163q0 90 59.5 141t164.5 51q107 0 166 -51t59 -141v-163q0 -90 -59 -140.5t-166 -50.5q-105 0 -164.5 51t-59.5 140zM406 176v164q0 52 -36 81t-100 29q-63 0 -99 -29t-36 -81v-164q0 -52 36 -81t99 -29q64 0 100 29t36 81z" />
    <glyph glyph-name="p" unicode="p" horiz-adv-x="539" 
d="M100 502q76 29 184 29q209 0 209 -201v-141q0 -204 -213 -204q-52 0 -130 27v-208q0 -14 -5 -19t-19 -5h-42q-23 0 -23 24v641q0 25 7.5 36t31.5 21zM403 192v135q0 122 -132 122q-55 0 -106 -15q-15 -6 -15 -21v-320q76 -26 123 -26q130 0 130 125z" />
    <glyph glyph-name="q" unicode="q" horiz-adv-x="539" 
d="M266 531q106 0 175 -31q24 -10 30.5 -20t6.5 -35v-641q0 -24 -23 -24h-42q-13 0 -18.5 5t-5.5 19v209q-77 -28 -141 -28q-101 0 -151.5 51t-50.5 147v141q0 207 220 207zM136 321v-135q0 -119 125 -119q45 0 128 26v320q0 15 -16 21q-50 15 -100 15q-137 0 -137 -128z
" />
    <glyph glyph-name="r" unicode="r" horiz-adv-x="346" 
d="M282 531h32q14 0 19 -5.5t5 -18.5v-34q0 -13 -5 -18.5t-19 -5.5h-35q-58 0 -115 -17q-14 -5 -14 -20v-388q0 -14 -5 -19t-19 -5h-42q-23 0 -23 24v420q0 24 7.5 35t30.5 21q78 30 183 31z" />
    <glyph glyph-name="s" unicode="s" horiz-adv-x="500" 
d="M52 376q0 73 52 114t149 41q159 0 209 -108q12 -24 -12 -35l-34 -14q-15 -5 -19.5 -3.5t-13.5 14.5q-16 33 -46 49t-82 16q-114 0 -114 -72q0 -42 29.5 -57.5t106.5 -21.5q101 -11 149 -41q49 -31 49 -113q0 -75 -54 -117.5t-155 -42.5q-172 0 -219 123q-11 24 15 32
l34 12q22 7 32 -15q28 -72 135 -72q125 0 125 76q0 40 -29 56t-104 23q-68 7 -114 23q-32 11 -47 26q-42 37 -42 107z" />
    <glyph glyph-name="t" unicode="t" horiz-adv-x="372" 
d="M137 636h42q13 0 18.5 -5t5.5 -19v-96h131q23 0 23 -24v-35q0 -24 -23 -24h-131v-233q0 -78 27 -104q28 -26 102 -26q14 0 19.5 -5t5.5 -19v-36q0 -13 -5.5 -18t-19.5 -6q-122 -3 -169 43q-49 45 -49 169v235h-83q-24 0 -24 24v35q0 14 5.5 19t18.5 5h83v96q0 14 5 19
t18 5z" />
    <glyph glyph-name="u" unicode="u" 
d="M425 516h41q14 0 19 -5t5 -19v-417q0 -24 -7.5 -35t-30.5 -21q-90 -34 -191 -34q-203 0 -203 198v309q0 14 5 19t19 5h42q23 0 23 -24v-306q0 -119 126 -119q56 0 113 17q15 8 15 23v385q0 14 5.5 19t18.5 5z" />
    <glyph glyph-name="v" unicode="v" horiz-adv-x="509" 
d="M446 516h32q18 0 21.5 -5t-2.5 -22l-193 -469q-9 -22 -33 -22h-25q-24 0 -33 22l-193 468q-7 16 -2.5 22t22.5 6h30q21 0 29 -4.5t13 -19.5l117 -289q5 -16 12 -39.5t11 -39.5t5 -17h4l4 17q4 16 10.5 39t12.5 39l116 290q5 15 13 19.5t29 4.5z" />
    <glyph glyph-name="w" unicode="w" horiz-adv-x="733" 
d="M668 516h26q17 0 21 -6t-1 -22l-142 -469q-4 -21 -32 -21h-27q-27 0 -34 21l-89 295q-4 16 -8.5 38t-7.5 38l-3 17h-4q0 -1 -3 -16t-7.5 -38t-8.5 -39l-89 -295q-6 -21 -33 -21h-26q-27 0 -33 21l-140 469q-6 16 -2 22t22 6h30q22 0 30.5 -4.5t11.5 -19.5l75 -271
q5 -17 13 -66q6 -44 7 -46h4q2 6 9 47q9 49 14 66l82 262q5 16 12 20.5t28 4.5h18q20 0 27 -4.5t12 -19.5l83 -261q10 -37 16 -70q7 -41 7 -45h5q1 1 7 44q5 42 12 70l75 269q4 15 12.5 19.5t30.5 4.5z" />
    <glyph glyph-name="x" unicode="x" horiz-adv-x="497" 
d="M415 516h38q35 0 17 -28l-162 -223l172 -237q19 -28 -17 -28h-38q-19 0 -26.5 3.5t-16.5 16.5l-131 181l-128 -181q-8 -13 -16 -16.5t-27 -3.5h-37q-20 0 -23.5 7t6.5 21l172 237l-165 223q-18 28 19 28h36q19 0 27 -3.5t17 -16.5l121 -166l121 166q8 13 15 16.5t26 3.5z
" />
    <glyph glyph-name="y" unicode="y" horiz-adv-x="553" 
d="M428 516h41q14 0 19 -5t5 -19v-517q0 -216 -216 -216q-145 0 -203 102q-16 24 10 38l29 16q14 7 22 5t17 -14q39 -67 124 -67q128 0 128 132v54q-76 -21 -140 -21q-203 0 -203 198v290q0 14 5 19t19 5h42q23 0 23 -24v-287q0 -119 126 -119q60 0 128 21v385q0 14 5.5 19
t18.5 5z" />
    <glyph glyph-name="z" unicode="z" horiz-adv-x="463" 
d="M144 81h265q23 0 23 -24v-33q0 -24 -23 -24h-355q-14 0 -19 5t-5 19v33q0 13 9 25l273 353h-254q-23 0 -23 24v33q0 24 23 24h346q14 0 19 -5t5 -19v-33q0 -12 -9 -27z" />
    <glyph glyph-name="braceleft" unicode="{" horiz-adv-x="333" 
d="M244 856h48q14 0 19 -5t5 -19v-34q0 -23 -24 -23h-45q-51 0 -51 -54v-244q0 -89 -69 -124q69 -25 69 -124v-241q0 -54 51 -54h45q24 0 24 -23v-34q0 -13 -5 -18.5t-19 -5.5h-47q-72 0 -103 30.5t-31 99.5v234q0 90 -75 90h-8q-20 0 -20 24v44q0 23 19 23h9q75 0 75 91
v236q0 69 30.5 100t102.5 31z" />
    <glyph glyph-name="bar" unicode="|" horiz-adv-x="215" 
d="M89 856h38q23 0 23 -24v-955q0 -24 -23 -24h-38q-24 0 -24 24v955q0 14 5.5 19t18.5 5z" />
    <glyph glyph-name="braceright" unicode="}" horiz-adv-x="333" 
d="M40 856h49q71 0 102 -31t31 -100v-236q0 -91 75 -91h9q19 0 19 -23v-44q0 -24 -20 -24h-8q-75 0 -75 -90v-234q0 -69 -31 -99.5t-103 -30.5h-48q-23 0 -23 24v34q0 13 5 18t18 5h46q51 0 51 54v241q0 99 69 124q-69 35 -69 124v244q0 54 -51 54h-46q-13 0 -18 5t-5 18v34
q0 24 23 24z" />
    <glyph glyph-name="asciitilde" unicode="~" horiz-adv-x="558" 
d="M88 335q55 49 121 49q42 0 92 -19t78 -19q38 0 73 29q11 9 18 9t17 -10l24 -23q20 -20 0 -37q-52 -49 -121 -49q-42 0 -92 19t-78 19q-38 0 -73 -29q-11 -10 -17.5 -9.5t-16.5 10.5l-25 23q-20 20 0 37z" />
    <glyph glyph-name="exclamdown" unicode="&#xa1;" horiz-adv-x="213" 
d="M109 412h-6q-29 0 -40 11t-11 40v7q0 29 11 40t40 11h6q29 0 40 -11t11 -40v-7q0 -29 -11 -40t-40 -11zM129 -225h-45q-14 0 -19.5 5t-4.5 18l11 508q0 14 5 19t18 5h24q13 0 18 -5t6 -19l11 -508q1 -13 -4.5 -18t-19.5 -5z" />
    <glyph glyph-name="cent" unicode="&#xa2;" horiz-adv-x="535" 
d="M437 167l35 -10q27 -11 16 -34q-40 -117 -170 -133v-50q0 -14 -5 -19t-19 -5h-42q-14 0 -19 5t-5 19v48q-87 10 -131.5 61t-44.5 138v143q0 85 44.5 136t131.5 61v59q0 14 5 19t19 5h42q14 0 19 -5t5 -19v-59q134 -15 168 -130q9 -27 -16 -34l-34 -11q-23 -10 -34 16
q-29 84 -130 84q-63 0 -97 -30.5t-34 -87.5v-151q0 -57 34 -88t97 -31q101 0 131 87q5 14 12.5 17.5t21.5 -1.5z" />
    <glyph glyph-name="sterling" unicode="&#xa3;" horiz-adv-x="640" 
d="M132 380v145q0 85 58 143q57 57 164 57q181 0 238 -154q10 -25 -17 -33l-41 -15q-15 -5 -21 -1.5t-13 18.5q-22 51 -55 73t-87 22q-60 0 -93 -31.5t-33 -82.5v-141h240q15 0 20.5 -6t5.5 -20v-32q0 -14 -5.5 -20t-20.5 -6h-240v-105q0 -71 -50 -106v-4q93 9 141 9h239
q15 0 20.5 -6t5.5 -20v-38q0 -14 -5.5 -20t-20.5 -6h-497q-15 0 -20 5.5t-5 20.5v39q0 21 15 21h12q65 12 65 104v106h-60q-14 0 -20 6t-6 20v32q0 14 6 20t20 6h60z" />
    <glyph glyph-name="currency" unicode="&#xa4;" horiz-adv-x="606" 
d="M510 212l50 -51q18 -17 0 -33l-29 -30q-16 -16 -34 0l-51 52q-53 -40 -124 -40q-70 0 -125 39l-51 -52q-18 -16 -34 0l-30 29q-16 18 0 34l53 52q-40 53 -40 125q0 67 39 123l-52 52q-18 18 0 34l29 29q17 17 34 0l51 -51q58 40 126 40q66 0 123 -39l51 51q17 17 34 0
l29 -29q17 -17 0 -34l-51 -51q41 -56 41 -125q0 -67 -39 -125zM425 440q-42 42 -103 42t-103 -42q-42 -41 -44 -103q2 -62 44 -103q42 -43 103 -43t103 43q42 42 42 103t-42 103z" />
    <glyph glyph-name="yen" unicode="&#xa5;" horiz-adv-x="646" 
d="M560 710h45q14 0 17 -8t-4 -18l-208 -325h102q13 0 18 -5t5 -18v-23q0 -13 -5 -18t-18 -5h-138v-77h138q13 0 18 -5t5 -18v-24q0 -13 -5 -18t-18 -5h-138v-117q0 -14 -5.5 -20t-20.5 -6h-44q-15 0 -20.5 6t-5.5 20v117h-139q-13 0 -18 5t-5 18v24q0 13 5 18t18 5h139v77
h-139q-13 0 -18 5t-5 18v23q0 13 5 18t18 5h105l-210 325q-7 10 -3.5 18t17.5 8h48q25 0 33.5 -4t17.5 -19l181 -295l182 295q8 15 16.5 19t33.5 4z" />
    <glyph glyph-name="brokenbar" unicode="&#xa6;" horiz-adv-x="224" 
d="M93 856h38q13 0 18.5 -5t5.5 -19v-377q0 -24 -24 -24h-38q-24 0 -24 24v377q0 14 5.5 19t18.5 5zM93 279h38q24 0 24 -24v-377q0 -14 -5.5 -19t-18.5 -5h-38q-13 0 -18.5 5t-5.5 19v377q0 24 24 24z" />
    <glyph glyph-name="section" unicode="&#xa7;" horiz-adv-x="601" 
d="M69 535q0 89 62 141t179 52q178 0 241 -154q12 -25 -16 -37l-37 -17q-25 -11 -37 14q-41 102 -151 102q-142 0 -142 -101q0 -55 48 -74q33 -13 105 -23q79 -9 128 -27q37 -14 56 -30q50 -43 50 -122q0 -83 -78 -139q85 -42 85 -149q0 -89 -65.5 -140.5t-185.5 -51.5
q-195 0 -252 161q-11 26 18 36l38 13q15 5 22.5 2t13.5 -19q37 -103 160 -103q154 0 154 101q-3 35 -18 53t-48 27q-34 10 -89 15q-44 4 -76 10q-32 5 -39 8q-50 12 -69 27q-39 28 -48 50q-18 40 -18 82q0 93 95 146q-86 44 -86 147zM301 347q-51 8 -64 10q-78 -37 -78 -103
q0 -64 69 -84q33 -9 94 -15q38 -3 67 -8q70 40 70 103q0 53 -49 73q-44 17 -109 24z" />
    <glyph glyph-name="dieresis" unicode="&#xa8;" horiz-adv-x="439" 
d="M115 697h6q25 0 33.5 -8.5t8.5 -32.5v-9q0 -23 -8.5 -32t-33.5 -9h-6q-24 0 -33 9t-9 32v9q0 23 9 32t33 9zM312 697h6q24 0 33 -9t9 -32v-9q0 -23 -9 -32t-33 -9h-6q-24 0 -33 9t-9 32v9q0 23 9 32t33 9z" />
    <glyph glyph-name="copyright" unicode="&#xa9;" horiz-adv-x="804" 
d="M43 351q0 151 104 255t256 104q150 0 254 -104q103 -103 103 -255t-103 -255q-104 -104 -254 -104q-151 0 -255 105q-105 103 -105 254zM698 351q0 126 -85 211t-210 85q-126 0 -211 -85q-86 -86 -86 -211t86 -211t211 -86q124 0 210 86q85 85 85 211zM247 293v111
q0 66 40.5 103.5t112.5 37.5q116 0 148 -95q8 -20 -12 -25l-22 -8q-11 -4 -15.5 -1.5t-8.5 13.5q-10 31 -30 44t-60 13q-91 0 -91 -82v-111q0 -82 91 -82q72 0 90 58q7 19 26 13l21 -8q19 -7 12 -25q-33 -97 -149 -97q-72 0 -112.5 37.5t-40.5 103.5z" />
    <glyph glyph-name="ordfeminine" unicode="&#xaa;" horiz-adv-x="364" 
d="M63 614q41 56 122 56q66 0 96 -31t30 -93v-126q0 -22 -6.5 -32t-25.5 -18q-34 -15 -98 -15q-69 0 -99 22t-30 68q0 48 30.5 71t100.5 23q39 0 59 -4v17q0 31 -13.5 45t-45.5 14q-38 0 -65 -32q-10 -9 -24 -4l-19 10q-25 10 -12 29zM242 433v52q-39 3 -63 3
q-32 0 -45.5 -9.5t-13.5 -31.5q0 -38 58 -38q36 0 53 6q11 5 11 18z" />
    <glyph glyph-name="guillemotleft" unicode="&#xab;" horiz-adv-x="576" 
d="M152 264l150 -151q16 -13 0 -30l-28 -28q-16 -13 -30 0l-193 193q-14 14 0 29l196 197q17 16 30 0l27 -27q15 -15 0 -29zM383 264l152 -151q13 -13 0 -30l-28 -28q-17 -14 -31 0l-192 193q-17 15 0 29l196 197q14 16 30 0l26 -27q15 -15 0 -29z" />
    <glyph glyph-name="logicalnot" unicode="&#xac;" horiz-adv-x="584" 
d="M82 399h415q24 0 24 -24v-212q0 -24 -24 -24h-41q-14 0 -19 5.5t-5 18.5v152h-350q-14 0 -19 5.5t-5 18.5v36q0 13 5 18.5t19 5.5z" />
    <glyph glyph-name="registered" unicode="&#xae;" horiz-adv-x="475" 
d="M101 379q-58 57 -58 137t58 137q57 57 137 57q79 0 136 -57t57 -137q0 -79 -56 -137q-57 -57 -137 -57t-137 57zM130 625q-45 -45 -45 -109t45 -109q45 -46 109 -46t109 46q44 46 44 109t-44 109q-45 45 -109 45t-109 -45zM173 615h85q32 0 51 -17.5t19 -48.5
q0 -47 -43 -60l35 -58q9 -14 -7 -14h-18q-11 0 -16 8l-35 60h-46v-59q0 -9 -9 -9h-18q-10 0 -10 9v178q0 11 12 11zM198 580v-61h59q32 0 32 30q0 31 -32 31h-59z" />
    <glyph glyph-name="overscore" unicode="&#xaf;" horiz-adv-x="352" 
d="M59 686h234q13 0 18 -5t5 -18v-20q0 -13 -4.5 -17.5t-18.5 -4.5h-234q-13 0 -17.5 4.5t-4.5 17.5v20q0 23 22 23z" />
    <glyph glyph-name="degree" unicode="&#xb0;" horiz-adv-x="392" 
d="M353 555q0 -65 -46 -111q-47 -47 -111 -47q-65 0 -111 46t-46 112t46 112q45 45 111 45t112 -45q45 -47 45 -112zM136 615q-25 -25 -25 -60.5t25 -60.5t60 -25t61 25q25 25 25 60.5t-25 60.5t-60.5 25t-60.5 -25z" />
    <glyph glyph-name="plusminus" unicode="&#xb1;" horiz-adv-x="618" 
d="M350 434h169q15 0 20.5 -6t5.5 -20v-25q0 -15 -5.5 -20.5t-20.5 -5.5h-169v-97q0 -14 -6 -20t-20 -6h-29q-15 0 -20.5 6t-5.5 20v97h-170q-14 0 -20 5.5t-6 20.5v25q0 14 6 20t20 6h170v101q0 14 5.5 20t20.5 6h29q14 0 20 -6t6 -20v-101zM99 190h420q15 0 20.5 -6
t5.5 -20v-25q0 -15 -5.5 -20.5t-20.5 -5.5h-420q-14 0 -20 5.5t-6 20.5v25q0 14 6 20t20 6z" />
    <glyph glyph-name="twosuperior" unicode="&#xb2;" horiz-adv-x="359" 
d="M45 716q37 103 145 103q65 0 102 -34.5t37 -90.5q0 -52 -26 -80t-88 -49l-56 -17q-44 -14 -44 -47v-17h186q23 0 23 -23v-24q0 -22 -23 -22h-234q-25 0 -25 24v35q0 51 18.5 79.5t63.5 46.5l57 23q48 19 59 31q12 15 12 37q0 25 -17 40.5t-46 15.5q-49 0 -69 -48l-3 -7
q-7 -15 -13 -18.5t-21 1.5l-22 7q-25 10 -16 34z" />
    <glyph glyph-name="threesuperior" unicode="&#xb3;" horiz-adv-x="365" 
d="M43 715q33 104 152 104q62 0 97 -30.5t35 -82.5q0 -61 -45 -85q57 -29 57 -101q0 -54 -36.5 -83.5t-107.5 -29.5q-120 0 -154 100q-8 27 13 34l22 7q23 10 34 -16q9 -31 28 -44t57 -13q69 0 69 53q0 24 -13 38.5t-37 14.5h-50q-15 0 -19.5 4.5t-4.5 18.5v20q0 16 4 20.5
t21 4.5h44q47 0 47 49q0 25 -15.5 39t-43.5 14q-35 0 -54.5 -13.5t-29.5 -43.5q-6 -17 -14 -21t-25 3l-16 6q-24 9 -15 33z" />
    <glyph glyph-name="acute" unicode="&#xb4;" horiz-adv-x="257" 
d="M39 633l156 94q28 16 44 -1l20 -24q17 -20 -4 -28l-175 -83q-24 -9 -31 1l-11 15q-14 17 1 26z" />
    <glyph glyph-name="mu" unicode="&#xb5;" horiz-adv-x="553" 
d="M428 516h42q23 0 23 -24v-417q0 -24 -7.5 -35t-30.5 -21q-86 -34 -171 -34q-94 0 -134 54l1 -235q0 -14 -5.5 -19t-18.5 -5h-42q-13 0 -18.5 5t-5.5 19v688q0 14 5.5 19t18.5 5h42q13 0 18.5 -5t5.5 -19v-306q0 -119 125 -119q57 0 114 17q14 6 14 22v386q0 14 5 19t19 5
z" />
    <glyph glyph-name="paragraph" unicode="&#xb6;" horiz-adv-x="495" 
d="M208 710h193q13 0 18.5 -5t5.5 -19v-751q0 -24 -24 -24h-36q-24 0 -24 24v685h-55v-685q0 -13 -5 -18.5t-19 -5.5h-36q-13 0 -18 5t-5 19v437q-74 2 -119 48.5t-45 119.5q0 76 46.5 123t122.5 47z" />
    <glyph glyph-name="middot" unicode="&#xb7;" horiz-adv-x="230" 
d="M112 332h6q29 0 40 -10.5t11 -39.5v-8q0 -29 -11 -40t-40 -11h-6q-29 0 -40 11t-11 40v8q0 29 11 39.5t40 10.5z" />
    <glyph glyph-name="cedilla" unicode="&#xb8;" horiz-adv-x="251" 
d="M160 0l-25 -66q16 2 20 2q40 0 63.5 -24t20.5 -61q-7 -96 -125 -96q-49 0 -77 16q-14 6 -14 23l-1 24q0 16 13 10q32 -20 67 -20q60 0 60 47q0 35 -52 36q-16 0 -29 -3q-11 -1 -14 4t2 16l37 92h54z" />
    <glyph glyph-name="onesuperior" unicode="&#xb9;" horiz-adv-x="283" 
d="M201 811h14q15 0 21 -6t6 -21v-343q0 -15 -6 -20.5t-21 -5.5h-23q-15 0 -20.5 5.5t-5.5 20.5v275l-86 -48q-24 -13 -37 9l-10 19q-13 22 11 36l126 71q14 8 31 8z" />
    <glyph glyph-name="ordmasculine" unicode="&#xba;" horiz-adv-x="369" 
d="M49 476v73q0 57 35 89t100 32t100 -31.5t35 -89.5v-73q0 -57 -34.5 -88.5t-100.5 -31.5q-65 0 -100 31.5t-35 88.5zM247 474v78q0 25 -16.5 40t-46.5 15t-46 -15t-16 -40v-78q0 -55 62 -55q63 0 63 55z" />
    <glyph glyph-name="guillemotright" unicode="&#xbb;" horiz-adv-x="576" 
d="M452 264l-152 154q-15 14 0 29l26 27q16 16 30 0l196 -197q15 -15 0 -29l-192 -193q-15 -13 -31 0l-28 28q-15 17 0 30zM220 264l-152 154q-15 15 0 29l26 27q14 16 30 0l196 -197q15 -15 0 -29l-193 -193q-15 -15 -30 0l-28 28q-15 17 0 30z" />
    <glyph glyph-name="onequarter" unicode="&#xbc;" horiz-adv-x="794" 
d="M213 712h14q15 0 21 -6t6 -21v-343q0 -15 -6 -20.5t-21 -5.5h-23q-15 0 -20.5 5.5t-5.5 20.5v275l-86 -48q-24 -13 -37 9l-11 19q-10 23 12 36l125 71q14 8 32 8zM657 710h34q13 0 17 -7.5t-4 -17.5l-486 -661q-12 -16 -20.5 -20t-31.5 -4h-31q-14 0 -17.5 8t4.5 19
l486 661q11 14 19.5 18t29.5 4zM663 396h32q15 0 19 -4.5t4 -19.5v-215h31q14 0 18 -4t4 -17v-22q0 -13 -4 -17t-18 -4h-31v-71q0 -13 -4 -17.5t-17 -4.5h-29q-13 0 -17 4.5t-4 17.5v71h-181q-13 0 -17.5 4.5t-4.5 18.5v19q0 17 7 25l180 222q12 14 32 14zM647 302
l-118 -145h118v145z" />
    <glyph glyph-name="onehalf" unicode="&#xbd;" horiz-adv-x="839" 
d="M214 717h15q15 0 20.5 -6t5.5 -21v-343q0 -15 -5.5 -20.5t-20.5 -5.5h-23q-15 0 -21 5.5t-6 20.5v275l-85 -48q-24 -13 -37 9l-11 19q-14 22 12 36l125 71q14 8 31 8zM653 710h34q13 0 17 -7.5t-4 -17.5l-486 -661q-11 -16 -20 -20t-32 -4h-31q-14 0 -17.5 8t4.5 19
l487 661q11 15 19 18.5t29 3.5zM527 301q37 103 145 103q65 0 102 -34.5t37 -90.5q0 -52 -26 -80.5t-88 -47.5l-57 -18q-43 -13 -43 -46v-18h186q23 0 23 -23v-23q0 -23 -23 -23h-234q-25 0 -25 24v35q0 51 18.5 80t63.5 47l56 22q35 13 50 23q21 14 21 45q0 25 -16.5 40.5
t-45.5 15.5q-49 0 -69 -48l-3 -7q-7 -15 -13 -18.5t-21 1.5l-22 8q-27 9 -16 33z" />
    <glyph glyph-name="threequarters" unicode="&#xbe;" horiz-adv-x="828" 
d="M49 622q33 103 152 103q62 0 97 -30.5t35 -82.5q0 -61 -45 -85q57 -27 57 -101q0 -54 -37 -83.5t-107 -29.5q-119 0 -154 101q-8 26 13 33l22 8q23 10 34 -17q9 -31 28 -44t57 -13q33 0 51 14.5t18 39.5q0 24 -13.5 38.5t-37.5 14.5h-50q-14 0 -18.5 4t-4.5 19v20
q0 17 4 21t21 4h44q47 0 47 48q0 25 -15.5 39.5t-43.5 14.5q-36 0 -55.5 -13.5t-28.5 -43.5q-7 -17 -15 -21t-25 2l-15 6q-24 10 -15 34zM691 710h34q13 0 17 -7.5t-4 -17.5l-486 -661q-11 -16 -20 -20t-32 -4h-31q-14 0 -17.5 8t4.5 19l487 661q11 15 19 18.5t29 3.5z
M696 396h33q15 0 19 -4.5t4 -19.5v-215h30q15 0 19 -4t4 -17v-22q0 -13 -4 -17t-19 -4h-30v-71q0 -13 -4 -17.5t-17 -4.5h-30q-12 0 -16 4.5t-4 17.5v71h-181q-14 0 -18.5 4.5t-4.5 18.5v19q0 14 8 25l180 222q11 14 31 14zM562 157h119v145z" />
    <glyph glyph-name="questiondown" unicode="&#xbf;" horiz-adv-x="558" 
d="M307 412h-7q-28 0 -39 11t-11 39v8q0 29 10.5 40t39.5 11h7q29 0 40 -11t11 -40v-8q0 -28 -11 -39t-40 -11zM529 -60q-65 -165 -257 -165q-111 0 -176 59q-66 58 -66 147q0 50 15 91q6 20 38 62q5 6 25 22.5t26 20.5q3 2 28 17q22 13 25 16q41 26 59 50.5t18 60.5
q0 14 5.5 19.5t19.5 5.5h31q14 0 19.5 -5.5t5.5 -19.5q0 -62 -25 -100t-79 -74q-60 -40 -80 -61q-35 -41 -35 -100q0 -56 40 -91t108 -35q65 0 104.5 27.5t63.5 82.5q7 15 13.5 18t20.5 -1l37 -14q26 -9 16 -33z" />
    <glyph glyph-name="Agrave" unicode="&#xc0;" horiz-adv-x="649" 
d="M224 871l20 24q15 19 44 2l157 -93q16 -9 1 -25l-11 -15q-8 -9 -31 -2l-176 82q-21 7 -4 27zM386 691l260 -665q9 -26 -18 -26h-39q-24 0 -33.5 4.5t-14.5 18.5l-62 163h-296l-62 -163q-5 -14 -14.5 -18.5t-33.5 -4.5h-35q-27 0 -18 26l260 664q7 22 33 22h40
q25 0 33 -21zM452 265l-100 263q-18 52 -18 94h-6l-1 -14q-2 -38 -16 -79l-101 -264h242z" />
    <glyph glyph-name="Aacute" unicode="&#xc1;" horiz-adv-x="649" 
d="M225 805l155 95q28 16 44 -1l20 -24q17 -20 -4 -28l-175 -83q-23 -9 -30 1l-12 15q-14 16 2 25zM386 691l260 -665q9 -26 -18 -26h-39q-24 0 -33.5 4.5t-14.5 18.5l-62 163h-296l-62 -163q-5 -14 -14.5 -18.5t-33.5 -4.5h-35q-27 0 -18 26l260 664q7 22 33 22h40
q25 0 33 -21zM452 265l-100 263q-18 52 -18 94h-6l-1 -14q-2 -38 -16 -79l-101 -264h242z" />
    <glyph glyph-name="Acircumflex" unicode="&#xc2;" horiz-adv-x="649" 
d="M330 905h10q15 0 22.5 -3.5t21.5 -17.5l113 -103q17 -20 -12 -20h-35q-25 0 -39 14l-78 71l-81 -71q-14 -14 -37 -14h-33q-29 0 -11 20l113 103q14 15 21 18t25 3zM386 691l260 -665q9 -26 -18 -26h-39q-24 0 -33.5 4.5t-14.5 18.5l-62 163h-296l-62 -163
q-5 -14 -14.5 -18.5t-33.5 -4.5h-35q-27 0 -18 26l260 664q7 22 33 22h40q25 0 33 -21zM452 265l-100 263q-18 52 -18 94h-6l-1 -14q-2 -38 -16 -79l-101 -264h242z" />
    <glyph glyph-name="Atilde" unicode="&#xc3;" horiz-adv-x="649" 
d="M443 888h25q15 0 15 -15q0 -55 -19.5 -80t-61.5 -25q-34 0 -75 32q-40 31 -63 31q-33 0 -33 -48q0 -15 -15 -15h-25q-15 0 -15 15q0 105 80 105q39 0 79 -31q41 -32 61 -32q32 0 32 48q0 15 15 15zM386 691l260 -665q9 -26 -18 -26h-39q-24 0 -33.5 4.5t-14.5 18.5
l-62 163h-296l-62 -163q-5 -14 -14.5 -18.5t-33.5 -4.5h-35q-27 0 -18 26l260 664q7 22 33 22h40q25 0 33 -21zM452 265l-100 263q-18 52 -18 94h-6l-1 -14q-2 -38 -16 -79l-101 -264h242z" />
    <glyph glyph-name="Adieresis" unicode="&#xc4;" horiz-adv-x="649" 
d="M231 875h7q24 0 33 -9t9 -32v-9q0 -23 -9 -32t-33 -9h-7q-23 0 -32 9t-9 32v9q0 23 9 32t32 9zM428 875h7q23 0 32 -9t9 -32v-9q0 -23 -9 -32t-32 -9h-7q-24 0 -33 9t-9 32v9q0 23 9 32t33 9zM386 691l260 -665q9 -26 -18 -26h-39q-24 0 -33.5 4.5t-14.5 18.5l-62 163
h-296l-62 -163q-5 -14 -14.5 -18.5t-33.5 -4.5h-35q-27 0 -18 26l260 664q7 22 33 22h40q25 0 33 -21zM452 265l-100 263q-18 52 -18 94h-6l-1 -14q-2 -38 -16 -79l-101 -264h242z" />
    <glyph glyph-name="Aring" unicode="&#xc5;" horiz-adv-x="649" 
d="M218 772q0 51 32.5 82.5t84.5 31.5q51 0 82 -31.5t31 -82.5q0 -68 -57 -94l255 -652q9 -26 -18 -26h-39q-24 0 -33.5 4.5t-14.5 18.5l-62 163h-296l-62 -163q-5 -14 -14.5 -18.5t-33.5 -4.5h-35q-27 0 -18 26l255 654q-57 24 -57 92zM394 772q0 28 -16 44t-43 16
q-29 0 -46 -16t-17 -44q0 -26 17 -42t46 -16q27 0 43 16t16 42zM452 265l-100 263q-18 52 -18 94h-6l-1 -14q-2 -38 -16 -79l-101 -264h242z" />
    <glyph glyph-name="AE" unicode="&#xc6;" horiz-adv-x="843" 
d="M524 90h267q15 0 20.5 -6t5.5 -20v-38q0 -14 -5.5 -20t-20.5 -6h-334q-15 0 -21 6t-6 20v137h-232l-83 -140q-9 -14 -18 -18.5t-31 -4.5h-41q-27 0 -18 26l412 662q9 13 15 17.5t18 4.5h327q15 0 20.5 -6t5.5 -20v-38q0 -14 -5.5 -20t-20.5 -6h-255v-216h209
q14 0 20 -5.5t6 -20.5v-37q0 -15 -6 -21t-20 -6h-209v-224zM430 243v305l-184 -305h184z" />
    <glyph glyph-name="Ccedilla" unicode="&#xc7;" horiz-adv-x="638" 
d="M545 206l41 -15q26 -8 17 -34q-53 -163 -249 -171l-20 -52q14 2 20 2q39 0 63 -24t21 -61q-7 -96 -126 -96q-49 0 -77 16q-14 6 -14 23v24q0 18 12 10q32 -20 68 -20q60 0 60 47q0 35 -52 36q-17 0 -30 -3q-10 -1 -13.5 4t1.5 16l32 79q-117 8 -181.5 75t-64.5 179v228
q0 121 73 188.5t207 67.5q213 0 269 -170q7 -25 -17 -34l-41 -14q-14 -5 -21.5 -1.5t-12.5 17.5q-19 58 -61 85t-116 27q-89 0 -136 -43t-47 -122v-230q0 -78 48 -121.5t135 -43.5q74 0 116.5 28t61.5 86q5 15 12.5 18.5t21.5 -1.5z" />
    <glyph glyph-name="Egrave" unicode="&#xc8;" horiz-adv-x="576" 
d="M193 871l20 24q13 19 44 2l156 -93q16 -7 2 -25l-11 -15q-7 -10 -31 -2l-177 82q-20 8 -3 27zM100 710h402q15 0 20.5 -6t5.5 -20v-38q0 -14 -5.5 -20t-20.5 -6h-331v-215h285q15 0 20.5 -6t5.5 -21v-37q0 -15 -5.5 -20.5t-20.5 -5.5h-285v-225h343q15 0 20.5 -6t5.5 -20
v-38q0 -14 -5.5 -20t-20.5 -6h-414q-14 0 -20 6t-6 20v658q0 14 6 20t20 6z" />
    <glyph glyph-name="Eacute" unicode="&#xc9;" horiz-adv-x="576" 
d="M193 805l156 95q28 16 44 -1l20 -24q17 -20 -4 -28l-175 -83q-24 -9 -31 1l-11 15q-13 16 1 25zM100 710h402q15 0 20.5 -6t5.5 -20v-38q0 -14 -5.5 -20t-20.5 -6h-331v-215h285q15 0 20.5 -6t5.5 -21v-37q0 -15 -5.5 -20.5t-20.5 -5.5h-285v-225h343q15 0 20.5 -6
t5.5 -20v-38q0 -14 -5.5 -20t-20.5 -6h-414q-14 0 -20 6t-6 20v658q0 14 6 20t20 6z" />
    <glyph glyph-name="Ecircumflex" unicode="&#xca;" horiz-adv-x="576" 
d="M299 905h10q14 0 21.5 -3.5t22.5 -17.5l113 -103q17 -20 -12 -20h-35q-25 0 -39 14l-78 71l-81 -71q-14 -14 -37 -14h-33q-29 0 -12 20l114 103q14 15 21 18t25 3zM100 710h402q15 0 20.5 -6t5.5 -20v-38q0 -14 -5.5 -20t-20.5 -6h-331v-215h285q15 0 20.5 -6t5.5 -21
v-37q0 -15 -5.5 -20.5t-20.5 -5.5h-285v-225h343q15 0 20.5 -6t5.5 -20v-38q0 -14 -5.5 -20t-20.5 -6h-414q-14 0 -20 6t-6 20v658q0 14 6 20t20 6z" />
    <glyph glyph-name="Edieresis" unicode="&#xcb;" horiz-adv-x="576" 
d="M200 875h6q24 0 33 -9t9 -32v-9q0 -23 -9 -32t-33 -9h-6q-24 0 -33 9t-9 32v9q0 23 9 32t33 9zM397 875h6q24 0 33 -9t9 -32v-9q0 -23 -9 -32t-33 -9h-6q-24 0 -33 9t-9 32v9q0 23 9 32t33 9zM100 710h402q15 0 20.5 -6t5.5 -20v-38q0 -14 -5.5 -20t-20.5 -6h-331v-215
h285q15 0 20.5 -6t5.5 -21v-37q0 -15 -5.5 -20.5t-20.5 -5.5h-285v-225h343q15 0 20.5 -6t5.5 -20v-38q0 -14 -5.5 -20t-20.5 -6h-414q-14 0 -20 6t-6 20v658q0 14 6 20t20 6z" />
    <glyph glyph-name="Igrave" unicode="&#xcc;" horiz-adv-x="245" 
d="M30 871l20 24q15 19 44 2l157 -93q16 -9 1 -25l-11 -15q-7 -10 -31 -2l-177 82q-19 8 -3 27zM90 26v658q0 14 6 20t21 6h44q14 0 20 -6t6 -20v-658q0 -14 -6 -20t-20 -6h-44q-15 0 -21 6t-6 20z" />
    <glyph glyph-name="Iacute" unicode="&#xcd;" horiz-adv-x="245" 
d="M28 805l155 95q30 17 45 -1l19 -24q16 -19 -3 -28l-175 -83q-24 -9 -31 1l-11 15q-13 16 1 25zM88 26v658q0 14 6 20t20 6h44q15 0 21 -6t6 -20v-658q0 -14 -6 -20t-21 -6h-44q-14 0 -20 6t-6 20z" />
    <glyph glyph-name="Icircumflex" unicode="&#xce;" horiz-adv-x="245" 
d="M136 905h10q14 0 21.5 -3.5t21.5 -17.5l113 -103q18 -20 -11 -20h-36q-24 0 -38 14l-79 71l-80 -71q-14 -14 -37 -14h-33q-29 0 -12 20l113 103q15 15 22 18t25 3zM90 26v658q0 14 6 20t20 6h44q15 0 21 -6t6 -20v-658q0 -14 -6 -20t-21 -6h-44q-14 0 -20 6t-6 20z" />
    <glyph glyph-name="Idieresis" unicode="&#xcf;" horiz-adv-x="245" 
d="M20 875h7q24 0 33 -9t9 -32v-9q0 -23 -9 -32t-33 -9h-7q-23 0 -32 9t-9 32v9q0 23 9 32t32 9zM218 875h6q23 0 32.5 -9t9.5 -32v-9q0 -23 -9.5 -32t-32.5 -9h-6q-24 0 -33.5 9t-9.5 32v9q0 23 9.5 32t33.5 9zM74 26v658q0 14 6 20t20 6h44q15 0 21 -6t6 -20v-658
q0 -14 -6 -20t-21 -6h-44q-14 0 -20 6t-6 20z" />
    <glyph glyph-name="Eth" unicode="&#xd0;" horiz-adv-x="672" 
d="M113 710h218q137 0 213.5 -70t76.5 -194v-182q0 -124 -76.5 -194t-213.5 -70h-218q-14 0 -20 6t-6 20v306h-67q-16 0 -16 17v29q0 17 16 17h67v289q0 14 6 20t20 6zM524 263v184q0 83 -50 128t-143 45h-147v-225h154q10 0 13 -3.5t3 -13.5v-29q0 -10 -3 -13.5t-13 -3.5
h-154v-242h147q93 0 143 45t50 128z" />
    <glyph glyph-name="Ntilde" unicode="&#xd1;" horiz-adv-x="693" 
d="M457 888h25q16 0 16 -15q0 -55 -19.5 -80t-61.5 -25q-35 0 -76 32q-40 31 -63 31q-33 0 -33 -48q0 -15 -14 -15h-26q-15 0 -15 15q0 105 80 105q33 0 79 -31.5t62 -31.5q32 0 32 48q0 15 14 15zM552 710h41q14 0 20 -6t6 -20v-658q0 -14 -6 -20t-20 -6h-44q-18 0 -27 13
l-285 415q-25 37 -51 94l-30 60h-5q0 -2 9 -69q8 -72 8 -117v-370q0 -14 -6 -20t-21 -6h-41q-14 0 -20 6t-6 20v658q0 14 6 20t20 6h44q19 0 26 -13l281 -408q31 -46 56 -98q8 -17 15.5 -32l11 -22t3.5 -8h5q0 1 -1 8.5t-3 26t-4 37.5q-8 72 -8 121v362q0 14 5.5 20t20.5 6z
" />
    <glyph glyph-name="Ograve" unicode="&#xd2;" horiz-adv-x="666" 
d="M224 881l20 24q16 18 44 2l157 -93q15 -9 2 -25l-12 -15q-7 -10 -30 -2l-177 82q-20 8 -4 27zM53 241v228q0 121 73 188.5t207 67.5t207 -67.5t73 -188.5v-228q0 -121 -73 -188.5t-207 -67.5t-207 67.5t-73 188.5zM516 241v228q0 80 -47.5 123t-135.5 43t-135.5 -43
t-47.5 -123v-228q0 -80 47.5 -123t135.5 -43t135.5 43t47.5 123z" />
    <glyph glyph-name="Oacute" unicode="&#xd3;" horiz-adv-x="666" 
d="M225 815l155 95q31 17 44 -1l20 -24q16 -19 -3 -28l-176 -83q-23 -9 -30 1l-12 15q-13 16 2 25zM53 241v228q0 121 73 188.5t207 67.5t207 -67.5t73 -188.5v-228q0 -121 -73 -188.5t-207 -67.5t-207 67.5t-73 188.5zM516 241v228q0 80 -47.5 123t-135.5 43t-135.5 -43
t-47.5 -123v-228q0 -80 47.5 -123t135.5 -43t135.5 43t47.5 123z" />
    <glyph glyph-name="Ocircumflex" unicode="&#xd4;" horiz-adv-x="666" 
d="M331 915h10q14 0 21.5 -3.5t21.5 -17.5l113 -103q18 -20 -12 -20h-35q-24 0 -38 14l-79 71l-80 -71q-14 -14 -37 -14h-33q-29 0 -12 20l113 103q15 15 22 18t25 3zM53 241v228q0 121 73 188.5t207 67.5t207 -67.5t73 -188.5v-228q0 -121 -73 -188.5t-207 -67.5t-207 67.5
t-73 188.5zM516 241v228q0 80 -47.5 123t-135.5 43t-135.5 -43t-47.5 -123v-228q0 -80 47.5 -123t135.5 -43t135.5 43t47.5 123z" />
    <glyph glyph-name="Otilde" unicode="&#xd5;" horiz-adv-x="666" 
d="M443 898h25q16 0 16 -15q0 -55 -19.5 -80t-61.5 -25q-35 0 -76 32q-40 31 -63 31q-33 0 -33 -48q0 -15 -14 -15h-26q-15 0 -15 15q0 105 80 105q33 0 79 -31.5t62 -31.5q32 0 32 48q0 15 14 15zM53 241v228q0 121 73 188.5t207 67.5t207 -67.5t73 -188.5v-228
q0 -121 -73 -188.5t-207 -67.5t-207 67.5t-73 188.5zM516 241v228q0 80 -47.5 123t-135.5 43t-135.5 -43t-47.5 -123v-228q0 -80 47.5 -123t135.5 -43t135.5 43t47.5 123z" />
    <glyph glyph-name="Odieresis" unicode="&#xd6;" horiz-adv-x="666" 
d="M231 885h7q24 0 33 -9t9 -32v-9q0 -23 -9 -32t-33 -9h-7q-23 0 -32 9t-9 32v9q0 23 9 32t32 9zM429 885h6q23 0 32.5 -9t9.5 -32v-9q0 -23 -9.5 -32t-32.5 -9h-6q-25 0 -34 9t-9 32v9q0 23 9.5 32t33.5 9zM53 241v228q0 121 73 188.5t207 67.5t207 -67.5t73 -188.5v-228
q0 -121 -73 -188.5t-207 -67.5t-207 67.5t-73 188.5zM516 241v228q0 80 -47.5 123t-135.5 43t-135.5 -43t-47.5 -123v-228q0 -80 47.5 -123t135.5 -43t135.5 43t47.5 123z" />
    <glyph glyph-name="multiply" unicode="&#xd7;" horiz-adv-x="510" 
d="M328 325l135 -134q17 -19 0 -36l-21 -21q-11 -10 -18 -10t-18 10l-135 134l-133 -134q-18 -18 -36 0l-21 21q-17 17 0 36l133 134l-133 133q-17 20 0 36l21 21q18 19 36 0l133 -133l135 134q18 16 36 0l21 -21q17 -19 0 -36z" />
    <glyph glyph-name="Oslash" unicode="&#xd8;" horiz-adv-x="666" 
d="M570 752h52q10 0 5 -9l-66 -103q57 -66 57 -171v-228q0 -121 -73 -188t-207 -68q-104 0 -169 41l-37 -59q-6 -8 -18 -8h-51q-9 0 -5 10l61 96q-61 64 -61 176v228q0 121 73 188.5t207 67.5q106 0 174 -45l41 64q6 8 17 8zM180 159l282 441q-50 35 -124 35
q-88 0 -135.5 -43t-47.5 -123v-228q0 -51 25 -82zM500 545l-280 -439q46 -31 118 -31q88 0 135.5 43t47.5 123v228q0 46 -21 76z" />
    <glyph glyph-name="Ugrave" unicode="&#xd9;" horiz-adv-x="685" 
d="M233 871l20 24q16 18 44 2l157 -93q15 -9 2 -25l-12 -15q-7 -10 -30 -2l-177 82q-20 8 -4 27zM165 684v-442q0 -80 45.5 -123.5t131.5 -43.5t131.5 43.5t45.5 123.5v442q0 14 6 20t21 6h44q14 0 20 -6t6 -20v-441q0 -122 -70.5 -190t-203.5 -68q-131 0 -202 68.5
t-71 189.5v441q0 14 5.5 20t20.5 6h44q15 0 20.5 -6t5.5 -20z" />
    <glyph glyph-name="Uacute" unicode="&#xda;" horiz-adv-x="685" 
d="M234 805l155 95q31 17 44 -1l20 -24q16 -19 -3 -28l-176 -83q-23 -9 -30 1l-12 15q-13 16 2 25zM165 684v-442q0 -80 45.5 -123.5t131.5 -43.5t131.5 43.5t45.5 123.5v442q0 14 6 20t21 6h44q14 0 20 -6t6 -20v-441q0 -122 -70.5 -190t-203.5 -68q-131 0 -202 68.5
t-71 189.5v441q0 14 5.5 20t20.5 6h44q15 0 20.5 -6t5.5 -20z" />
    <glyph glyph-name="Ucircumflex" unicode="&#xdb;" horiz-adv-x="685" 
d="M340 905h10q14 0 21.5 -3.5t21.5 -17.5l113 -103q18 -20 -12 -20h-35q-24 0 -38 14l-79 71l-80 -71q-14 -14 -37 -14h-33q-29 0 -12 20l113 103q15 15 22 18t25 3zM165 684v-442q0 -80 45.5 -123.5t131.5 -43.5t131.5 43.5t45.5 123.5v442q0 14 6 20t21 6h44q14 0 20 -6
t6 -20v-441q0 -122 -70.5 -190t-203.5 -68q-131 0 -202 68.5t-71 189.5v441q0 14 5.5 20t20.5 6h44q15 0 20.5 -6t5.5 -20z" />
    <glyph glyph-name="Udieresis" unicode="&#xdc;" horiz-adv-x="685" 
d="M240 875h7q24 0 33 -9t9 -32v-9q0 -23 -9 -32t-33 -9h-7q-23 0 -32 9t-9 32v9q0 23 9 32t32 9zM438 875h6q23 0 32.5 -9t9.5 -32v-9q0 -23 -9.5 -32t-32.5 -9h-6q-25 0 -34 9t-9 32v9q0 23 9.5 32t33.5 9zM165 684v-442q0 -80 45.5 -123.5t131.5 -43.5t131.5 43.5
t45.5 123.5v442q0 14 6 20t21 6h44q14 0 20 -6t6 -20v-441q0 -122 -70.5 -190t-203.5 -68q-131 0 -202 68.5t-71 189.5v441q0 14 5.5 20t20.5 6h44q15 0 20.5 -6t5.5 -20z" />
    <glyph glyph-name="Yacute" unicode="&#xdd;" horiz-adv-x="634" 
d="M214 805l155 95q28 16 44 -1l20 -24q16 -19 -3 -28l-176 -83q-23 -9 -30 1l-12 15q-13 16 2 25zM558 710h50q29 0 14 -26l-254 -400v-258q0 -14 -5.5 -20t-20.5 -6h-44q-15 0 -20.5 6t-5.5 20v260l-254 398q-7 10 -3.5 18t17.5 8h54q25 0 33.5 -4t17.5 -19l184 -303
l186 303q9 16 17.5 19.5t33.5 3.5z" />
    <glyph glyph-name="Thorn" unicode="&#xde;" horiz-adv-x="625" 
d="M171 596h186q111 0 175.5 -63.5t64.5 -173.5q0 -109 -65 -172t-175 -63h-186v-98q0 -14 -6 -20t-21 -6h-44q-14 0 -20 6t-6 20v658q0 14 6 20t20 6h44q15 0 21 -6t6 -20v-88zM171 214h177q68 0 108 39.5t40 105.5t-40 106.5t-108 40.5h-177v-292z" />
    <glyph glyph-name="germandbls" unicode="&#xdf;" 
d="M63 26v502q0 102 55 162t154 60q104 0 159 -53t55 -150q0 -115 -83 -156v-3q109 -37 109 -183q0 -99 -55 -152t-155 -53h-67q-15 0 -21 6t-6 20v37q0 15 6 21t21 6h58q121 0 121 126q0 57 -30.5 89.5t-86.5 32.5h-60q-15 0 -21 6t-6 20v35q0 15 6 20.5t21 5.5h52
q49 0 76 32t27 81q0 122 -121 122q-56 0 -87.5 -35.5t-31.5 -95.5v-503q0 -14 -5.5 -20t-20.5 -6h-37q-14 0 -20 6t-6 20z" />
    <glyph glyph-name="agrave" unicode="&#xe0;" horiz-adv-x="516" 
d="M146 698l20 24q14 17 44 2l155 -95q15 -9 1 -26l-11 -15q-7 -10 -30 -1l-176 84q-19 7 -3 27zM52 426q54 105 203 105q109 0 158 -52t49 -150v-261q0 -26 -7.5 -37t-28.5 -20q-61 -26 -172 -26q-126 0 -172 39q-47 38 -47 120q0 86 51 121.5t172 35.5q58 0 114 -7v38
q0 60 -27.5 89.5t-91.5 29.5q-87 0 -124 -61q-10 -13 -14 -14.5t-19 2.5l-31 14q-25 10 -13 34zM372 94v126q-85 8 -124 8q-68 0 -95.5 -19.5t-27.5 -64.5q0 -44 26.5 -64t94.5 -20q76 0 111 12q15 6 15 22z" />
    <glyph glyph-name="aacute" unicode="&#xe1;" horiz-adv-x="516" 
d="M146 629l155 95q29 15 44 -2l20 -24q16 -19 -4 -27l-175 -84q-23 -9 -30 1l-12 15q-14 19 2 26zM52 426q54 105 203 105q109 0 158 -52t49 -150v-261q0 -26 -7.5 -37t-28.5 -20q-61 -26 -172 -26q-126 0 -172 39q-47 38 -47 120q0 86 51 121.5t172 35.5q58 0 114 -7v38
q0 60 -27.5 89.5t-91.5 29.5q-87 0 -124 -61q-10 -13 -14 -14.5t-19 2.5l-31 14q-25 10 -13 34zM372 94v126q-85 8 -124 8q-68 0 -95.5 -19.5t-27.5 -64.5q0 -44 26.5 -64t94.5 -20q76 0 111 12q15 6 15 22z" />
    <glyph glyph-name="acircumflex" unicode="&#xe2;" horiz-adv-x="516" 
d="M251 725h10q15 0 22.5 -3.5t21.5 -17.5l113 -103q9 -7 5.5 -13.5t-17.5 -6.5h-35q-25 0 -39 14l-78 71l-81 -71q-14 -14 -37 -14h-33q-14 0 -17 6.5t6 13.5l113 103q14 15 21 18t25 3zM52 426q54 105 203 105q109 0 158 -52t49 -150v-261q0 -26 -7.5 -37t-28.5 -20
q-61 -26 -172 -26q-126 0 -172 39q-47 38 -47 120q0 86 51 121.5t172 35.5q58 0 114 -7v38q0 60 -27.5 89.5t-91.5 29.5q-87 0 -124 -61q-10 -13 -14 -14.5t-19 2.5l-31 14q-25 10 -13 34zM372 94v126q-85 8 -124 8q-68 0 -95.5 -19.5t-27.5 -64.5q0 -44 26.5 -64t94.5 -20
q76 0 111 12q15 6 15 22z" />
    <glyph glyph-name="atilde" unicode="&#xe3;" horiz-adv-x="516" 
d="M364 714h25q15 0 15 -15q0 -55 -19.5 -80t-61.5 -25q-35 0 -75 31t-63 31q-33 0 -33 -47q0 -15 -15 -15h-25q-16 0 -16 15q0 105 81 105q33 0 78.5 -31.5t61.5 -31.5q32 0 32 48q0 15 15 15zM52 426q54 105 203 105q109 0 158 -52t49 -150v-261q0 -26 -7.5 -37t-28.5 -20
q-61 -26 -172 -26q-126 0 -172 39q-47 38 -47 120q0 86 51 121.5t172 35.5q58 0 114 -7v38q0 60 -27.5 89.5t-91.5 29.5q-87 0 -124 -61q-10 -13 -14 -14.5t-19 2.5l-31 14q-25 10 -13 34zM372 94v126q-85 8 -124 8q-68 0 -95.5 -19.5t-27.5 -64.5q0 -44 26.5 -64t94.5 -20
q76 0 111 12q15 6 15 22z" />
    <glyph glyph-name="adieresis" unicode="&#xe4;" horiz-adv-x="516" 
d="M152 697h7q24 0 33 -9t9 -32v-9q0 -23 -9 -32t-33 -9h-7q-23 0 -32 9t-9 32v9q0 23 9 32t32 9zM349 697h7q23 0 32 -9t9 -32v-9q0 -23 -9 -32t-32 -9h-7q-24 0 -33 9t-9 32v9q0 23 9 32t33 9zM52 426q54 105 203 105q109 0 158 -52t49 -150v-261q0 -26 -7.5 -37
t-28.5 -20q-61 -26 -172 -26q-126 0 -172 39q-47 38 -47 120q0 86 51 121.5t172 35.5q58 0 114 -7v38q0 60 -27.5 89.5t-91.5 29.5q-87 0 -124 -61q-10 -13 -14 -14.5t-19 2.5l-31 14q-25 10 -13 34zM372 94v126q-85 8 -124 8q-68 0 -95.5 -19.5t-27.5 -64.5q0 -44 26.5 -64
t94.5 -20q76 0 111 12q15 6 15 22z" />
    <glyph glyph-name="aring" unicode="&#xe5;" horiz-adv-x="516" 
d="M152 680q0 46 29.5 74.5t76.5 28.5q46 0 74.5 -28.5t28.5 -74.5q0 -45 -28.5 -73t-74.5 -28q-47 0 -76.5 28t-29.5 73zM315 680q0 26 -15.5 41.5t-41.5 15.5q-27 0 -43.5 -15.5t-16.5 -41.5q0 -25 16.5 -40.5t43.5 -15.5q26 0 41.5 15.5t15.5 40.5zM52 426
q54 105 203 105q109 0 158 -52t49 -150v-261q0 -26 -7.5 -37t-28.5 -20q-61 -26 -172 -26q-126 0 -172 39q-47 38 -47 120q0 86 51 121.5t172 35.5q58 0 114 -7v38q0 60 -27.5 89.5t-91.5 29.5q-87 0 -124 -61q-10 -13 -14 -14.5t-19 2.5l-31 14q-25 10 -13 34zM372 94v126
q-85 8 -124 8q-68 0 -95.5 -19.5t-27.5 -64.5q0 -44 26.5 -64t94.5 -20q76 0 111 12q15 6 15 22z" />
    <glyph glyph-name="ae" unicode="&#xe6;" horiz-adv-x="793" 
d="M53 426q54 105 187 105q108 0 150 -73q46 73 158 73q102 0 154.5 -55t52.5 -151v-59q0 -35 -36 -35h-288v-49q0 -119 116 -119q43 0 70.5 16.5t48.5 51.5q15 22 38 10l28 -15q26 -14 9 -39q-30 -52 -75.5 -77t-119.5 -25q-93 0 -140 50q-65 -50 -168 -50q-115 0 -159 38
t-44 120q0 87 46.5 122t160.5 35q40 0 99 -7v49q0 56 -23 82.5t-80 26.5q-71 0 -108 -61q-9 -12 -14.5 -14t-18.5 3l-31 13q-27 11 -13 34zM666 300v30q0 125 -118 125q-117 0 -117 -125v-30h235zM341 158v62q-69 7 -108 7q-60 0 -83.5 -19.5t-23.5 -64.5q0 -44 22.5 -63.5
t81.5 -19.5q39 0 67 8t38 16.5t10 15.5q-4 21 -4 58z" />
    <glyph glyph-name="ccedilla" unicode="&#xe7;" horiz-adv-x="515" 
d="M430 167l35 -10q26 -11 17 -34q-45 -126 -186 -136l-20 -53q14 2 19 2q40 0 64 -24t21 -61q-7 -96 -126 -96q-49 0 -77 16q-14 6 -14 23v24q0 18 12 10q32 -20 68 -20q60 0 60 47q0 35 -52 36q-17 0 -30 -3q-10 -1 -13.5 4t1.5 16l32 78q-97 5 -146.5 57t-49.5 144v143
q0 97 57 149t167 52q169 0 211 -134q9 -25 -16 -34l-35 -11q-24 -10 -34 16q-27 84 -130 84q-63 0 -96.5 -30.5t-33.5 -87.5v-151q0 -57 33.5 -88t96.5 -31q103 0 131 87q6 14 13 17.5t21 -1.5z" />
    <glyph glyph-name="egrave" unicode="&#xe8;" horiz-adv-x="534" 
d="M162 698l20 24q13 19 44 2l155 -95q15 -9 1 -26l-11 -14q-7 -10 -30 -2l-176 84q-19 7 -3 27zM44 193v124q0 103 58 158.5t168 55.5q109 0 167.5 -56t58.5 -151v-58q0 -35 -37 -35h-326v-48q0 -58 34.5 -89t99.5 -31q99 0 139 69q17 24 39 9l27 -14q26 -13 9 -39
q-58 -103 -215 -103q-110 0 -166 55t-56 153zM407 300v29q0 60 -35.5 93t-101.5 33t-101.5 -33t-35.5 -93v-29h274z" />
    <glyph glyph-name="eacute" unicode="&#xe9;" horiz-adv-x="534" 
d="M162 629l155 95q29 17 44 -2l20 -24q16 -19 -4 -27l-175 -84q-23 -8 -30 2l-12 14q-14 19 2 26zM44 193v124q0 103 58 158.5t168 55.5q109 0 167.5 -56t58.5 -151v-58q0 -35 -37 -35h-326v-48q0 -58 34.5 -89t99.5 -31q99 0 139 69q17 24 39 9l27 -14q26 -13 9 -39
q-58 -103 -215 -103q-110 0 -166 55t-56 153zM407 300v29q0 60 -35.5 93t-101.5 33t-101.5 -33t-35.5 -93v-29h274z" />
    <glyph glyph-name="ecircumflex" unicode="&#xea;" horiz-adv-x="534" 
d="M267 721h10q14 0 21.5 -3.5t21.5 -17.5l110 -101q16 -19 -11 -19h-35q-25 0 -38 13l-76 70l-79 -70q-13 -13 -36 -13h-33q-27 0 -11 19l111 101q14 14 21.5 17.5t23.5 3.5zM44 193v124q0 103 58 158.5t168 55.5q109 0 167.5 -56t58.5 -151v-58q0 -35 -37 -35h-326v-48
q0 -58 34.5 -89t99.5 -31q99 0 139 69q17 24 39 9l27 -14q26 -13 9 -39q-58 -103 -215 -103q-110 0 -166 55t-56 153zM407 300v29q0 60 -35.5 93t-101.5 33t-101.5 -33t-35.5 -93v-29h274z" />
    <glyph glyph-name="edieresis" unicode="&#xeb;" horiz-adv-x="534" 
d="M168 697h7q24 0 33 -9t9 -32v-8q0 -24 -9 -33t-33 -9h-7q-23 0 -32 9t-9 33v8q0 23 9 32t32 9zM365 697h7q23 0 32 -9t9 -32v-8q0 -24 -9 -33t-32 -9h-7q-24 0 -33 9t-9 33v8q0 23 9 32t33 9zM44 193v124q0 103 58 158.5t168 55.5q109 0 167.5 -56t58.5 -151v-58
q0 -35 -37 -35h-326v-48q0 -58 34.5 -89t99.5 -31q99 0 139 69q17 24 39 9l27 -14q26 -13 9 -39q-58 -103 -215 -103q-110 0 -166 55t-56 153zM407 300v29q0 60 -35.5 93t-101.5 33t-101.5 -33t-35.5 -93v-29h274z" />
    <glyph glyph-name="igrave" unicode="&#xec;" horiz-adv-x="213" 
d="M15 696l20 24q16 19 44 2l127 -93q15 -10 2 -26l-11 -15q-9 -10 -31 -1l-147 81q-12 6 -12.5 11.5t8.5 16.5zM87 516h42q14 0 19 -5t5 -19v-468q0 -14 -5 -19t-19 -5h-42q-14 0 -19 5t-5 19v468q0 14 5 19t19 5z" />
    <glyph glyph-name="iacute" unicode="&#xed;" horiz-adv-x="213" 
d="M26 628l127 94q27 18 44 -2l19 -24q9 -11 9 -17t-12 -11l-148 -81q-23 -9 -30 1l-11 14q-14 17 2 26zM100 516h42q23 0 23 -24v-468q0 -24 -23 -24h-42q-14 0 -19 5t-5 19v468q0 14 5 19t19 5z" />
    <glyph glyph-name="icircumflex" unicode="&#xee;" horiz-adv-x="213" 
d="M170 701l87 -98q16 -19 -12 -19h-31q-31 0 -38 13l-55 67l-57 -67q-6 -11 -15 -12q-8 -1 -21 -1h-30q-27 0 -12 19l87 98q12 14 19.5 17.5t25.5 3.5h10q16 0 23.5 -3.5t18.5 -17.5zM101 516h42q23 0 23 -24v-468q0 -24 -23 -24h-42q-14 0 -19 5t-5 19v468q0 14 5 19t19 5
z" />
    <glyph glyph-name="idieresis" unicode="&#xef;" horiz-adv-x="213" 
d="M23 705h7q24 0 33 -9.5t9 -32.5v-8q0 -23 -9 -32t-33 -9h-7q-23 0 -32 9t-9 32v8q0 23 9 32.5t32 9.5zM184 705h6q24 0 33 -9.5t9 -32.5v-8q0 -23 -9 -32t-33 -9h-6q-24 0 -33 9t-9 32v8q0 23 9 32.5t33 9.5zM86 516h42q23 0 23 -24v-468q0 -24 -23 -24h-42q-14 0 -19 5
t-5 19v468q0 14 5 19t19 5z" />
    <glyph glyph-name="eth" unicode="&#xf0;" horiz-adv-x="552" 
d="M361 699l44 48q7 9 18 1l25 -18q11 -8 1 -19l-41 -43q87 -80 87 -270v-215q0 -95 -58 -146.5t-167 -51.5t-167 51.5t-58 146.5v123q0 92 55.5 145.5t151.5 53.5q117 0 158 -68q-3 113 -60 165l-55 -59q-8 -9 -19 -1l-22 15q-10 9 -1 19l50 54q-57 30 -155 30q-15 0 -20 5
t-6 18v35q0 14 5 19t18 5q137 0 216 -43zM405 184v123q0 57 -34.5 87t-100.5 30t-100.5 -30.5t-34.5 -87.5v-122q0 -57 34.5 -87.5t100.5 -30.5t100.5 30.5t34.5 87.5z" />
    <glyph glyph-name="ntilde" unicode="&#xf1;" 
d="M386 714h25q15 0 15 -15q0 -55 -19.5 -80t-61.5 -25q-35 0 -76 32q-40 31 -63 31q-32 0 -32 -48q0 -15 -15 -15h-26q-15 0 -15 15q0 105 80 105q39 0 79 -31t62 -31q32 0 32 47q0 15 15 15zM99 497q81 34 191 34q203 0 203 -198v-309q0 -14 -5.5 -19t-18.5 -5h-42
q-13 0 -18.5 5t-5.5 19v306q0 119 -125 119q-60 0 -116 -18q-12 -5 -12 -18v-389q0 -14 -5 -19t-19 -5h-42q-23 0 -23 24v417q0 24 7.5 35t30.5 21z" />
    <glyph glyph-name="ograve" unicode="&#xf2;" horiz-adv-x="541" 
d="M162 698l20 24q15 17 44 2l155 -95q16 -9 2 -26l-12 -15q-7 -10 -30 -1l-176 84q-19 7 -3 27zM46 176v163q0 90 59.5 141t164.5 51q107 0 166 -51t59 -141v-163q0 -90 -59 -140.5t-166 -50.5q-105 0 -164.5 51t-59.5 140zM406 176v164q0 52 -36 81t-100 29q-63 0 -99 -29
t-36 -81v-164q0 -52 36 -81t99 -29q64 0 100 29t36 81z" />
    <glyph glyph-name="oacute" unicode="&#xf3;" horiz-adv-x="541" 
d="M162 629l155 95q29 15 44 -2l20 -24q17 -20 -4 -27l-175 -84q-23 -9 -30 1l-12 15q-14 17 2 26zM46 176v163q0 90 59.5 141t164.5 51q107 0 166 -51t59 -141v-163q0 -90 -59 -140.5t-166 -50.5q-105 0 -164.5 51t-59.5 140zM406 176v164q0 52 -36 81t-100 29
q-63 0 -99 -29t-36 -81v-164q0 -52 36 -81t99 -29q64 0 100 29t36 81z" />
    <glyph glyph-name="ocircumflex" unicode="&#xf4;" horiz-adv-x="541" 
d="M267 720h10q15 0 22 -3t21 -17l110 -101q16 -19 -11 -19h-35q-26 0 -38 13l-76 69l-79 -69q-13 -13 -36 -13h-32q-28 0 -12 19l111 101q14 14 21 17t24 3zM46 176v163q0 90 59.5 141t164.5 51q107 0 166 -51t59 -141v-163q0 -90 -59 -140.5t-166 -50.5q-105 0 -164.5 51
t-59.5 140zM406 176v164q0 52 -36 81t-100 29q-63 0 -99 -29t-36 -81v-164q0 -52 36 -81t99 -29q64 0 100 29t36 81z" />
    <glyph glyph-name="otilde" unicode="&#xf5;" horiz-adv-x="541" 
d="M380 714h25q15 0 15 -15q0 -55 -19.5 -80t-61.5 -25q-35 0 -75 31t-63 31q-33 0 -33 -47q0 -15 -14 -15h-26q-15 0 -15 15q0 105 80 105q39 0 79 -31q41 -32 61 -32q33 0 33 48q0 15 14 15zM46 176v163q0 90 59.5 141t164.5 51q107 0 166 -51t59 -141v-163
q0 -90 -59 -140.5t-166 -50.5q-105 0 -164.5 51t-59.5 140zM406 176v164q0 52 -36 81t-100 29q-63 0 -99 -29t-36 -81v-164q0 -52 36 -81t99 -29q64 0 100 29t36 81z" />
    <glyph glyph-name="odieresis" unicode="&#xf6;" horiz-adv-x="541" 
d="M168 697h7q24 0 33 -9t9 -32v-9q0 -23 -9 -32t-33 -9h-7q-23 0 -32 9t-9 32v9q0 23 9 32t32 9zM365 697h7q23 0 32 -9t9 -32v-9q0 -23 -9 -32t-32 -9h-7q-24 0 -33 9t-9 32v9q0 23 9 32t33 9zM46 176v163q0 90 59.5 141t164.5 51q107 0 166 -51t59 -141v-163
q0 -90 -59 -140.5t-166 -50.5q-105 0 -164.5 51t-59.5 140zM406 176v164q0 52 -36 81t-100 29q-63 0 -99 -29t-36 -81v-164q0 -52 36 -81t99 -29q64 0 100 29t36 81z" />
    <glyph glyph-name="divide" unicode="&#xf7;" horiz-adv-x="566" 
d="M280 570h6q29 0 40 -10.5t11 -39.5v-8q0 -29 -11 -40t-40 -11h-6q-29 0 -40 11t-11 40v8q0 28 11 39t40 11zM74 368h419q14 0 20 -5.5t6 -20.5v-34q0 -15 -6 -20.5t-20 -5.5h-419q-15 0 -20.5 5.5t-5.5 20.5v34q0 15 5.5 20.5t20.5 5.5zM280 190h6q29 0 40 -11t11 -40v-8
q0 -29 -11 -39.5t-40 -10.5h-6q-29 0 -40 10.5t-11 39.5v8q0 29 11.5 40t39.5 11z" />
    <glyph glyph-name="oslash" unicode="&#xf8;" horiz-adv-x="541" 
d="M440 552h36q8 0 4 -9l-41 -65q56 -51 56 -139v-163q0 -90 -59 -140.5t-166 -50.5q-72 0 -126 27l-25 -39q-6 -8 -18 -8h-35q-12 0 -4 9l41 65q-57 49 -57 137v163q0 90 59.5 141t164.5 51q77 0 128 -27l26 40q6 8 16 8zM157 123l195 308q-34 19 -82 19q-63 0 -99 -29
t-36 -81v-164q0 -31 22 -53zM385 393l-196 -308q34 -19 81 -19q64 0 100 29t36 81v164q0 32 -21 53z" />
    <glyph glyph-name="ugrave" unicode="&#xf9;" 
d="M166 698l20 24q15 17 44 2l155 -95q16 -9 2 -26l-12 -15q-7 -10 -30 -1l-176 84q-19 7 -3 27zM425 516h41q14 0 19 -5t5 -19v-417q0 -24 -7.5 -35t-30.5 -21q-90 -34 -191 -34q-203 0 -203 198v309q0 14 5 19t19 5h42q23 0 23 -24v-306q0 -119 126 -119q56 0 113 17
q15 8 15 23v385q0 14 5.5 19t18.5 5z" />
    <glyph glyph-name="uacute" unicode="&#xfa;" 
d="M166 629l155 95q29 15 44 -2l20 -24q17 -20 -4 -27l-175 -84q-23 -9 -30 1l-12 15q-14 17 2 26zM425 516h41q14 0 19 -5t5 -19v-417q0 -24 -7.5 -35t-30.5 -21q-90 -34 -191 -34q-203 0 -203 198v309q0 14 5 19t19 5h42q23 0 23 -24v-306q0 -119 126 -119q56 0 113 17
q15 8 15 23v385q0 14 5.5 19t18.5 5z" />
    <glyph glyph-name="ucircumflex" unicode="&#xfb;" 
d="M271 725h10q15 0 22.5 -3.5t21.5 -17.5l113 -103q9 -7 5.5 -13.5t-17.5 -6.5h-35q-25 0 -39 14l-78 71l-80 -71q-14 -14 -37 -14h-34q-14 0 -17 6.5t6 13.5l113 103q15 15 22 18t24 3zM425 516h41q14 0 19 -5t5 -19v-417q0 -24 -7.5 -35t-30.5 -21q-90 -34 -191 -34
q-203 0 -203 198v309q0 14 5 19t19 5h42q23 0 23 -24v-306q0 -119 126 -119q56 0 113 17q15 8 15 23v385q0 14 5.5 19t18.5 5z" />
    <glyph glyph-name="udieresis" unicode="&#xfc;" 
d="M172 697h7q24 0 33 -9t9 -32v-9q0 -23 -9 -32t-33 -9h-7q-23 0 -32 9t-9 32v9q0 23 9 32t32 9zM369 697h7q23 0 32 -9t9 -32v-9q0 -23 -9 -32t-32 -9h-7q-24 0 -33 9t-9 32v9q0 23 9 32t33 9zM425 516h41q14 0 19 -5t5 -19v-417q0 -24 -7.5 -35t-30.5 -21
q-90 -34 -191 -34q-203 0 -203 198v309q0 14 5 19t19 5h42q23 0 23 -24v-306q0 -119 126 -119q56 0 113 17q15 8 15 23v385q0 14 5.5 19t18.5 5z" />
    <glyph glyph-name="yacute" unicode="&#xfd;" horiz-adv-x="553" 
d="M169 629l155 95q29 15 44 -2l20 -24q17 -20 -4 -27l-175 -84q-23 -9 -30 1l-12 15q-14 17 2 26zM428 516h41q14 0 19 -5t5 -19v-517q0 -216 -216 -216q-145 0 -203 102q-16 24 10 38l29 16q14 7 22 5t17 -14q39 -67 124 -67q128 0 128 132v54q-76 -21 -140 -21
q-203 0 -203 198v290q0 14 5 19t19 5h42q23 0 23 -24v-287q0 -119 126 -119q60 0 128 21v385q0 14 5.5 19t18.5 5z" />
    <glyph glyph-name="thorn" unicode="&#xfe;" horiz-adv-x="541" 
d="M63 -196v912q0 23 24 23h42q13 0 18 -5t5 -18v-210q71 21 134 21q209 0 209 -201v-137q0 -204 -213 -204q-52 0 -130 27v-208q0 -24 -23 -24h-42q-13 0 -18.5 5t-5.5 19zM406 191v133q0 122 -132 122q-50 0 -122 -24v-330q74 -25 124 -25q130 0 130 124z" />
    <glyph glyph-name="ydieresis" unicode="&#xff;" horiz-adv-x="553" 
d="M175 697h7q24 0 33 -9t9 -32v-9q0 -23 -9 -32t-33 -9h-7q-23 0 -32 9t-9 32v9q0 23 9 32t32 9zM372 697h7q23 0 32 -9t9 -32v-9q0 -23 -9 -32t-32 -9h-7q-24 0 -33 9t-9 32v9q0 23 9 32t33 9zM428 516h41q14 0 19 -5t5 -19v-517q0 -216 -216 -216q-145 0 -203 102
q-16 24 10 38l29 16q14 7 22 5t17 -14q39 -67 124 -67q128 0 128 132v54q-76 -21 -140 -21q-203 0 -203 198v290q0 14 5 19t19 5h42q23 0 23 -24v-287q0 -119 126 -119q60 0 128 21v385q0 14 5.5 19t18.5 5z" />
    <glyph glyph-name="Amacron" unicode="&#x100;" horiz-adv-x="649" 
d="M216 859h234q13 0 17.5 -4.5t4.5 -17.5v-20q0 -14 -4.5 -18.5t-17.5 -4.5h-234q-13 0 -17.5 4.5t-4.5 18.5v20q0 13 5 17.5t17 4.5zM386 691l260 -665q9 -26 -18 -26h-39q-24 0 -33.5 4.5t-14.5 18.5l-62 163h-296l-62 -163q-5 -14 -14.5 -18.5t-33.5 -4.5h-35
q-27 0 -18 26l260 664q7 22 33 22h40q25 0 33 -21zM452 265l-100 263q-18 52 -18 94h-6l-1 -14q-2 -38 -16 -79l-101 -264h242z" />
    <glyph glyph-name="amacron" unicode="&#x101;" horiz-adv-x="516" 
d="M137 682h234q13 0 17.5 -4.5t4.5 -18.5v-20q0 -13 -4.5 -17.5t-17.5 -4.5h-234q-14 0 -18.5 4.5t-4.5 17.5v20q0 23 23 23zM52 426q54 105 203 105q109 0 158 -52t49 -150v-261q0 -26 -7.5 -37t-28.5 -20q-61 -26 -172 -26q-126 0 -172 39q-47 38 -47 120q0 86 51 121.5
t172 35.5q58 0 114 -7v38q0 60 -27.5 89.5t-91.5 29.5q-87 0 -124 -61q-10 -13 -14 -14.5t-19 2.5l-31 14q-25 10 -13 34zM372 94v126q-85 8 -124 8q-68 0 -95.5 -19.5t-27.5 -64.5q0 -44 26.5 -64t94.5 -20q76 0 111 12q15 6 15 22z" />
    <glyph glyph-name="Abreve" unicode="&#x102;" horiz-adv-x="649" 
d="M487 867q-36 -105 -154 -105q-58 0 -97 27t-55 78q-5 17 10 23l31 12q19 4 25 -9q18 -66 86 -66q67 0 87 66q6 14 20 9l36 -12q16 -7 11 -23zM386 691l260 -665q9 -26 -18 -26h-39q-24 0 -33.5 4.5t-14.5 18.5l-62 163h-296l-62 -163q-5 -14 -14.5 -18.5t-33.5 -4.5h-35
q-27 0 -18 26l260 664q7 22 33 22h40q25 0 33 -21zM452 265l-100 263q-18 52 -18 94h-6l-1 -14q-2 -38 -16 -79l-101 -264h242z" />
    <glyph glyph-name="abreve" unicode="&#x103;" horiz-adv-x="516" 
d="M408 689q-34 -105 -154 -105t-152 105q-5 17 10 23l31 12q19 4 25 -9q18 -66 86 -66t87 66q6 14 20 9l36 -12q16 -7 11 -23zM52 426q54 105 203 105q109 0 158 -52t49 -150v-261q0 -26 -7.5 -37t-28.5 -20q-61 -26 -172 -26q-126 0 -172 39q-47 38 -47 120q0 86 51 121.5
t172 35.5q58 0 114 -7v38q0 60 -27.5 89.5t-91.5 29.5q-87 0 -124 -61q-10 -13 -14 -14.5t-19 2.5l-31 14q-25 10 -13 34zM372 94v126q-85 8 -124 8q-68 0 -95.5 -19.5t-27.5 -64.5q0 -44 26.5 -64t94.5 -20q76 0 111 12q15 6 15 22z" />
    <glyph glyph-name="Aogonek" unicode="&#x104;" horiz-adv-x="648" 
d="M315 712h41q26 0 33 -21l259 -666q6 -16 -2 -24q-45 -41 -68.5 -86t-15.5 -70q8 -24 32 -25t41 17q12 7 15 -4l11 -26q5 -11 -1 -18q-38 -35 -93 -35q-69 0 -82 55q-10 42 14.5 94t78.5 99q-17 1 -23.5 5.5t-12.5 18.5l-62 163h-293l-64 -166q-5 -14 -14 -18.5t-33 -4.5
h-36q-28 0 -17 26l259 664q9 22 33 22zM453 269l-70 190q-17 48 -28 96q-13 57 -18 66h-6q-2 -5 -17 -65q-12 -52 -29 -97l-70 -190h238z" />
    <glyph glyph-name="aogonek" unicode="&#x105;" horiz-adv-x="518" 
d="M52 426q54 105 203 105q109 0 158 -52t49 -150v-261q0 -28 -12 -42q-49 -54 -72 -104t-14 -77q8 -24 33 -24q24 0 40 16q12 8 15 -4l11 -26q4 -12 -1 -17q-37 -36 -92 -36q-71 0 -83 55q-9 39 12.5 90.5t66.5 96.5q-52 -11 -112 -11q-126 0 -172 39q-47 38 -47 120
q0 86 51 121.5t172 35.5q58 0 114 -7v38q0 60 -27.5 89.5t-91.5 29.5q-87 0 -124 -61q-10 -13 -14 -14.5t-19 2.5l-31 14q-25 10 -13 34zM372 94v126q-85 8 -124 8q-68 0 -95.5 -19.5t-27.5 -64.5q0 -44 26.5 -64t94.5 -20q76 0 111 12q15 6 15 22z" />
    <glyph glyph-name="Cacute" unicode="&#x106;" horiz-adv-x="638" 
d="M228 805l156 95q28 16 44 -1l19 -24q16 -19 -3 -28l-175 -83q-24 -9 -31 1l-11 15q-13 16 1 25zM53 241v228q0 121 73 188.5t207 67.5q213 0 269 -170q7 -25 -17 -34l-41 -14q-14 -5 -21.5 -1.5t-12.5 17.5q-19 58 -61 85t-116 27q-89 0 -136 -43t-47 -122v-230
q0 -78 48 -121.5t135 -43.5q74 0 116.5 28t61.5 86q5 15 12.5 18.5t21.5 -1.5l41 -15q26 -8 17 -34q-55 -172 -270 -172q-134 0 -207 67.5t-73 188.5z" />
    <glyph glyph-name="cacute" unicode="&#x107;" horiz-adv-x="516" 
d="M161 629l155 95q29 15 44 -2l20 -24q16 -19 -4 -27l-175 -84q-23 -9 -30 1l-12 15q-14 19 2 26zM45 187v143q0 97 57 149t167 52q169 0 211 -134q9 -25 -16 -34l-35 -11q-24 -10 -34 16q-27 84 -130 84q-63 0 -96.5 -30.5t-33.5 -87.5v-151q0 -57 33.5 -88t96.5 -31
q103 0 131 87q6 14 13 17.5t21 -1.5l35 -10q26 -11 17 -34q-50 -138 -219 -138q-107 0 -162.5 52.5t-55.5 149.5z" />
    <glyph glyph-name="Ccircumflex" unicode="&#x108;" horiz-adv-x="638" 
d="M334 905h10q14 0 21.5 -3.5t22.5 -17.5l112 -103q18 -20 -11 -20h-35q-25 0 -39 14l-78 71l-81 -71q-14 -14 -37 -14h-33q-29 0 -12 20l114 103q14 15 21 18t25 3zM53 241v228q0 121 73 188.5t207 67.5q213 0 269 -170q7 -25 -17 -34l-41 -14q-14 -5 -21.5 -1.5
t-12.5 17.5q-19 58 -61 85t-116 27q-89 0 -136 -43t-47 -122v-230q0 -78 48 -121.5t135 -43.5q74 0 116.5 28t61.5 86q5 15 12.5 18.5t21.5 -1.5l41 -15q26 -8 17 -34q-55 -172 -270 -172q-134 0 -207 67.5t-73 188.5z" />
    <glyph glyph-name="ccircumflex" unicode="&#x109;" horiz-adv-x="516" 
d="M266 720h10q15 0 22 -3t21 -17l110 -101q16 -19 -11 -19h-35q-26 0 -38 13l-76 69l-79 -69q-13 -13 -36 -13h-33q-27 0 -11 19l111 101q14 14 21 17t24 3zM45 187v143q0 97 57 149t167 52q169 0 211 -134q9 -25 -16 -34l-35 -11q-24 -10 -34 16q-27 84 -130 84
q-63 0 -96.5 -30.5t-33.5 -87.5v-151q0 -57 33.5 -88t96.5 -31q103 0 131 87q6 14 13 17.5t21 -1.5l35 -10q26 -11 17 -34q-50 -138 -219 -138q-107 0 -162.5 52.5t-55.5 149.5z" />
    <glyph glyph-name="Cdotaccent" unicode="&#x10a;" horiz-adv-x="638" 
d="M334 874h5q25 0 34 -9t9 -34v-7q0 -25 -9 -34t-34 -9h-5q-25 0 -34 9t-9 34v7q0 25 9 34t34 9zM53 241v228q0 121 73 188.5t207 67.5q213 0 269 -170q7 -25 -17 -34l-41 -14q-14 -5 -21.5 -1.5t-12.5 17.5q-19 58 -61 85t-116 27q-89 0 -136 -43t-47 -122v-230
q0 -78 48 -121.5t135 -43.5q74 0 116.5 28t61.5 86q5 15 12.5 18.5t21.5 -1.5l41 -15q26 -8 17 -34q-55 -172 -270 -172q-134 0 -207 67.5t-73 188.5z" />
    <glyph glyph-name="cdotaccent" unicode="&#x10b;" horiz-adv-x="516" 
d="M266 696h6q25 0 33.5 -9t8.5 -34v-7q0 -25 -8.5 -34t-33.5 -9h-6q-25 0 -34 9t-9 34v7q0 25 9 34t34 9zM45 187v143q0 97 57 149t167 52q169 0 211 -134q9 -25 -16 -34l-35 -11q-24 -10 -34 16q-27 84 -130 84q-63 0 -96.5 -30.5t-33.5 -87.5v-151q0 -57 33.5 -88
t96.5 -31q103 0 131 87q6 14 13 17.5t21 -1.5l35 -10q26 -11 17 -34q-50 -138 -219 -138q-107 0 -162.5 52.5t-55.5 149.5z" />
    <glyph glyph-name="Ccaron" unicode="&#x10c;" horiz-adv-x="638" 
d="M451 904h35q15 0 18 -6t-6 -14l-113 -103q-14 -14 -21.5 -17.5t-22.5 -3.5h-9q-18 0 -25 3t-22 18l-113 103q-9 8 -6 14t18 6h33q23 0 37 -14l80 -71l78 71q14 14 39 14zM53 241v228q0 121 73 188.5t207 67.5q213 0 269 -170q7 -25 -17 -34l-41 -14q-14 -5 -21.5 -1.5
t-12.5 17.5q-19 58 -61 85t-116 27q-89 0 -136 -43t-47 -122v-230q0 -78 48 -121.5t135 -43.5q74 0 116.5 28t61.5 86q5 15 12.5 18.5t21.5 -1.5l41 -15q26 -8 17 -34q-55 -172 -270 -172q-134 0 -207 67.5t-73 188.5z" />
    <glyph glyph-name="ccaron" unicode="&#x10d;" horiz-adv-x="516" 
d="M374 708h32q13 0 15.5 -5.5t-5.5 -12.5l-103 -95q-12 -14 -19 -17t-21 -3h-9q-16 0 -23 3t-19 17l-104 95q-16 18 10 18h31q22 0 34 -12l74 -66l71 66q12 12 36 12zM45 187v143q0 97 57 149t167 52q169 0 211 -134q9 -25 -16 -34l-35 -11q-24 -10 -34 16q-27 84 -130 84
q-63 0 -96.5 -30.5t-33.5 -87.5v-151q0 -57 33.5 -88t96.5 -31q103 0 131 87q6 14 13 17.5t21 -1.5l35 -10q26 -11 17 -34q-50 -138 -219 -138q-107 0 -162.5 52.5t-55.5 149.5z" />
    <glyph glyph-name="Dcaron" unicode="&#x10e;" horiz-adv-x="659" 
d="M427 904h35q14 0 17 -6t-6 -14l-112 -103q-15 -14 -22.5 -17.5t-21.5 -3.5h-10q-18 0 -25 3t-21 18l-113 103q-9 8 -6 14t17 6h33q23 0 37 -14l81 -71l78 71q14 14 39 14zM100 710h218q137 0 213.5 -70t76.5 -194v-182q0 -124 -76.5 -194t-213.5 -70h-218q-14 0 -20 6
t-6 20v658q0 14 6 20t20 6zM511 263v184q0 83 -50 128t-143 45h-147v-530h147q93 0 143 45t50 128z" />
    <glyph glyph-name="dcaron" unicode="&#x10f;" horiz-adv-x="589" 
d="M46 186v141q0 100 51 152t152 52q59 0 140 -22v207q0 14 5.5 19t18.5 5h42q23 0 23 -24v-645q0 -25 -7.5 -35t-31.5 -20q-80 -31 -179 -31q-214 0 -214 201zM659 716l-51 -185q-6 -22 -25 -22h-24q-10 0 -13 3t-2 14l32 190q2 14 8 19t20 5h34q30 0 21 -24zM389 102v325
q-70 22 -123 22q-130 0 -130 -125v-135q0 -122 132 -122q62 0 107 16q14 5 14 19z" />
    <glyph glyph-name="Dcroat" unicode="&#x110;" horiz-adv-x="672" 
d="M113 710h218q137 0 213.5 -70t76.5 -194v-182q0 -124 -76.5 -194t-213.5 -70h-218q-14 0 -20 6t-6 20v306h-67q-16 0 -16 17v29q0 17 16 17h67v289q0 14 6 20t20 6zM524 263v184q0 83 -50 128t-143 45h-147v-225h154q10 0 13 -3.5t3 -13.5v-29q0 -10 -3 -13.5t-13 -3.5
h-154v-242h147q93 0 143 45t50 128z" />
    <glyph glyph-name="dslash" unicode="&#x111;" horiz-adv-x="540" 
d="M479 660h61q10 0 13 -3.5t3 -13.5v-22q0 -10 -3 -13.5t-13 -3.5h-61v-533q0 -25 -7.5 -35t-31.5 -20q-80 -31 -180 -31q-213 0 -213 201v141q0 100 51 151.5t152 51.5q59 0 140 -21v95h-138q-10 0 -13.5 3.5t-3.5 13.5v22q0 17 17 17h138v56q0 14 5 19t19 5h41
q13 0 18.5 -5t5.5 -19v-56zM390 102v325q-70 22 -124 22q-130 0 -130 -125v-135q0 -122 132 -122q61 0 108 16q14 5 14 19z" />
    <glyph glyph-name="Emacron" unicode="&#x112;" horiz-adv-x="576" 
d="M185 859h234q13 0 17.5 -4.5t4.5 -17.5v-20q0 -13 -4.5 -18t-17.5 -5h-234q-13 0 -18 5t-5 18v20q0 22 23 22zM100 710h402q15 0 20.5 -6t5.5 -20v-38q0 -14 -5.5 -20t-20.5 -6h-331v-215h285q15 0 20.5 -6t5.5 -21v-37q0 -15 -5.5 -20.5t-20.5 -5.5h-285v-225h343
q15 0 20.5 -6t5.5 -20v-38q0 -14 -5.5 -20t-20.5 -6h-414q-14 0 -20 6t-6 20v658q0 14 6 20t20 6z" />
    <glyph glyph-name="emacron" unicode="&#x113;" horiz-adv-x="534" 
d="M163 675h214q13 0 17 -4t4 -17v-19q0 -13 -4 -17.5t-17 -4.5h-214q-13 0 -17 4.5t-4 17.5v19q0 12 4.5 16.5t16.5 4.5zM44 193v124q0 103 58 158.5t168 55.5q109 0 167.5 -56t58.5 -151v-58q0 -35 -37 -35h-326v-48q0 -58 34.5 -89t99.5 -31q99 0 139 69q17 24 39 9
l27 -14q26 -13 9 -39q-58 -103 -215 -103q-110 0 -166 55t-56 153zM407 300v29q0 60 -35.5 93t-101.5 33t-101.5 -33t-35.5 -93v-29h274z" />
    <glyph glyph-name="Ebreve" unicode="&#x114;" horiz-adv-x="576" 
d="M455 867q-35 -105 -153 -105t-153 105q-4 16 11 23l31 12q19 4 24 -9q19 -66 87 -66q66 0 87 66q5 14 20 9l36 -12q14 -7 10 -23zM100 710h402q15 0 20.5 -6t5.5 -20v-38q0 -14 -5.5 -20t-20.5 -6h-331v-215h285q15 0 20.5 -6t5.5 -21v-37q0 -15 -5.5 -20.5t-20.5 -5.5
h-285v-225h343q15 0 20.5 -6t5.5 -20v-38q0 -14 -5.5 -20t-20.5 -6h-414q-14 0 -20 6t-6 20v658q0 14 6 20t20 6z" />
    <glyph glyph-name="ebreve" unicode="&#x115;" horiz-adv-x="534" 
d="M424 690q-34 -106 -154 -106q-121 0 -152 106q-4 16 10 22l31 12q19 4 25 -9q18 -66 86 -66t87 66q6 15 20 10l36 -13q15 -7 11 -22zM44 193v124q0 103 58 158.5t168 55.5q109 0 167.5 -56t58.5 -151v-58q0 -35 -37 -35h-326v-48q0 -58 34.5 -89t99.5 -31q99 0 139 69
q17 24 39 9l27 -14q26 -13 9 -39q-58 -103 -215 -103q-110 0 -166 55t-56 153zM407 300v29q0 60 -35.5 93t-101.5 33t-101.5 -33t-35.5 -93v-29h274z" />
    <glyph glyph-name="Edotaccent" unicode="&#x116;" horiz-adv-x="576" 
d="M299 874h5q25 0 34 -9t9 -34v-7q0 -25 -9 -34t-34 -9h-5q-25 0 -34 9t-9 34v7q0 25 9 34t34 9zM100 710h402q15 0 20.5 -6t5.5 -20v-38q0 -14 -5.5 -20t-20.5 -6h-331v-215h285q15 0 20.5 -6t5.5 -21v-37q0 -15 -5.5 -20.5t-20.5 -5.5h-285v-225h343q15 0 20.5 -6
t5.5 -20v-38q0 -14 -5.5 -20t-20.5 -6h-414q-14 0 -20 6t-6 20v658q0 14 6 20t20 6z" />
    <glyph glyph-name="edotaccent" unicode="&#x117;" horiz-adv-x="534" 
d="M267 696h6q25 0 33.5 -9t8.5 -34v-6q0 -25 -8.5 -34t-33.5 -9h-6q-25 0 -34 9t-9 34v6q0 25 9 34t34 9zM44 193v124q0 103 58 158.5t168 55.5q109 0 167.5 -56t58.5 -151v-58q0 -35 -37 -35h-326v-48q0 -58 34.5 -89t99.5 -31q99 0 139 69q17 24 39 9l27 -14
q26 -13 9 -39q-58 -103 -215 -103q-110 0 -166 55t-56 153zM407 300v29q0 60 -35.5 93t-101.5 33t-101.5 -33t-35.5 -93v-29h274z" />
    <glyph glyph-name="Eogonek" unicode="&#x118;" horiz-adv-x="576" 
d="M100 710h402q15 0 20.5 -6t5.5 -20v-38q0 -14 -5.5 -20t-20.5 -6h-331v-216h285q15 0 20.5 -5.5t5.5 -20.5v-37q0 -15 -5.5 -21t-20.5 -6h-285v-224h343q15 0 20.5 -6t5.5 -20v-38q0 -14 -9 -23q-81 -70 -89 -134q-4 -40 24 -45q5 -1 10 -1q21 0 38 16q11 8 15 -4l11 -26
q5 -12 -2 -17q-38 -36 -91 -36q-69 0 -82 55q-11 40 15.5 92t82.5 97h-363q-14 0 -20 6t-6 20v658q0 14 6 20t20 6z" />
    <glyph glyph-name="eogonek" unicode="&#x119;" horiz-adv-x="534" 
d="M44 193v124q0 103 58 158.5t168 55.5q109 0 167.5 -56t58.5 -151v-58q0 -35 -37 -35h-326v-48q0 -58 34.5 -89t99.5 -31q99 0 139 69q17 24 39 9l27 -14q26 -13 9 -39q-14 -26 -32 -43q-51 -58 -76 -116q-25 -57 -17 -84q7 -25 33 -25q23 0 40 17q11 8 15 -4l11 -26
q5 -12 -2 -17q-36 -36 -92 -36q-70 0 -82 55q-10 37 11.5 87.5t67.5 101.5q-40 -13 -92 -13q-110 0 -166 55t-56 153zM407 300v29q0 60 -35.5 93t-101.5 33t-101.5 -33t-35.5 -93v-29h274z" />
    <glyph glyph-name="Ecaron" unicode="&#x11a;" horiz-adv-x="576" 
d="M416 904h35q15 0 18 -6t-6 -14l-113 -103q-14 -14 -21.5 -17.5t-22.5 -3.5h-9q-18 0 -25 3t-22 18l-113 103q-9 8 -6 14t18 6h33q23 0 37 -14l80 -71l79 71q14 14 38 14zM100 710h402q15 0 20.5 -6t5.5 -20v-38q0 -14 -5.5 -20t-20.5 -6h-331v-215h285q15 0 20.5 -6
t5.5 -21v-37q0 -15 -5.5 -20.5t-20.5 -5.5h-285v-225h343q15 0 20.5 -6t5.5 -20v-38q0 -14 -5.5 -20t-20.5 -6h-414q-14 0 -20 6t-6 20v658q0 14 6 20t20 6z" />
    <glyph glyph-name="ecaron" unicode="&#x11b;" horiz-adv-x="534" 
d="M375 709h32q26 0 10 -19l-103 -95q-13 -13 -19.5 -16t-20.5 -3h-9q-15 0 -22 3t-20 16l-104 96q-7 7 -4.5 12.5t14.5 5.5h31q22 0 34 -13l74 -66l71 66q13 13 36 13zM44 193v124q0 103 58 158.5t168 55.5q109 0 167.5 -56t58.5 -151v-58q0 -35 -37 -35h-326v-48
q0 -58 34.5 -89t99.5 -31q99 0 139 69q17 24 39 9l27 -14q26 -13 9 -39q-58 -103 -215 -103q-110 0 -166 55t-56 153zM407 300v29q0 60 -35.5 93t-101.5 33t-101.5 -33t-35.5 -93v-29h274z" />
    <glyph glyph-name="Gcircumflex" unicode="&#x11c;" horiz-adv-x="658" 
d="M330 915h10q15 0 22.5 -3.5t21.5 -17.5l113 -103q17 -20 -12 -20h-35q-25 0 -39 14l-78 71l-81 -71q-14 -14 -37 -14h-33q-29 0 -11 20l113 103q14 15 21 18t25 3zM344 378h242q15 0 21 -6t6 -21v-128q0 -109 -74.5 -173.5t-205.5 -64.5q-134 0 -207 67.5t-73 188.5v228
q0 121 73 188.5t207 67.5q213 0 269 -170q7 -25 -17 -34l-41 -14q-14 -5 -21.5 -1.5t-12.5 17.5q-19 58 -61 85t-116 27q-89 0 -136 -43t-47 -122v-229q0 -79 47.5 -122.5t135.5 -43.5q86 0 135 40t49 108v65h-173q-15 0 -20.5 5.5t-5.5 20.5v38q0 14 5.5 20t20.5 6z" />
    <glyph glyph-name="gcircumflex" unicode="&#x11d;" horiz-adv-x="538" 
d="M275 720h10q15 0 22 -3t20 -17l111 -101q16 -19 -12 -19h-34q-26 0 -38 13l-76 69l-79 -69q-13 -13 -36 -13h-33q-27 0 -11 19l111 101q14 14 21 17t24 3zM48 201v123q0 207 220 207q108 0 174 -31q24 -11 31 -21t7 -34v-470q0 -216 -215 -216q-147 0 -202 102
q-16 25 9 38l29 16q24 13 39 -9q39 -67 123 -67q127 0 127 132v57q-76 -25 -140 -25q-202 0 -202 198zM376 434q-46 15 -102 15q-137 0 -137 -128v-118q0 -118 125 -118q55 0 128 22v307q0 15 -14 20z" />
    <glyph glyph-name="Gbreve" unicode="&#x11e;" horiz-adv-x="658" 
d="M487 877q-36 -105 -154 -105q-58 0 -97 27t-55 78q-5 17 10 23l31 12q19 4 25 -9q18 -66 86 -66q67 0 87 66q6 14 20 9l36 -12q16 -7 11 -23zM344 378h242q15 0 21 -6t6 -21v-128q0 -109 -74.5 -173.5t-205.5 -64.5q-134 0 -207 67.5t-73 188.5v228q0 121 73 188.5
t207 67.5q213 0 269 -170q7 -25 -17 -34l-41 -14q-14 -5 -21.5 -1.5t-12.5 17.5q-19 58 -61 85t-116 27q-89 0 -136 -43t-47 -122v-229q0 -79 47.5 -122.5t135.5 -43.5q86 0 135 40t49 108v65h-173q-15 0 -20.5 5.5t-5.5 20.5v38q0 14 5.5 20t20.5 6z" />
    <glyph glyph-name="gbreve" unicode="&#x11f;" horiz-adv-x="538" 
d="M431 689q-33 -105 -153 -105t-153 105q-4 16 11 23l31 12q19 4 24 -9q19 -66 87 -66q66 0 87 66q5 14 20 9l36 -12q14 -7 10 -23zM48 201v123q0 207 220 207q108 0 174 -31q24 -11 31 -21t7 -34v-470q0 -216 -215 -216q-147 0 -202 102q-16 25 9 38l29 16q24 13 39 -9
q39 -67 123 -67q127 0 127 132v57q-76 -25 -140 -25q-202 0 -202 198zM376 434q-46 15 -102 15q-137 0 -137 -128v-118q0 -118 125 -118q55 0 128 22v307q0 15 -14 20z" />
    <glyph glyph-name="Gdotaccent" unicode="&#x120;" horiz-adv-x="658" 
d="M330 884h6q25 0 33.5 -9t8.5 -34v-7q0 -25 -8.5 -34t-33.5 -9h-6q-25 0 -34 9t-9 34v7q0 25 9 34t34 9zM344 378h242q15 0 21 -6t6 -21v-128q0 -109 -74.5 -173.5t-205.5 -64.5q-134 0 -207 67.5t-73 188.5v228q0 121 73 188.5t207 67.5q213 0 269 -170q7 -25 -17 -34
l-41 -14q-14 -5 -21.5 -1.5t-12.5 17.5q-19 58 -61 85t-116 27q-89 0 -136 -43t-47 -122v-229q0 -79 47.5 -122.5t135.5 -43.5q86 0 135 40t49 108v65h-173q-15 0 -20.5 5.5t-5.5 20.5v38q0 14 5.5 20t20.5 6z" />
    <glyph glyph-name="gdotaccent" unicode="&#x121;" horiz-adv-x="538" 
d="M275 696h5q25 0 34 -9t9 -34v-7q0 -25 -9 -34t-34 -9h-5q-25 0 -34 9t-9 34v7q0 25 9 34t34 9zM48 201v123q0 207 220 207q108 0 174 -31q24 -11 31 -21t7 -34v-470q0 -216 -215 -216q-147 0 -202 102q-16 25 9 38l29 16q24 13 39 -9q39 -67 123 -67q127 0 127 132v57
q-76 -25 -140 -25q-202 0 -202 198zM376 434q-46 15 -102 15q-137 0 -137 -128v-118q0 -118 125 -118q55 0 128 22v307q0 15 -14 20z" />
    <glyph glyph-name="Gcommaaccent" unicode="&#x122;" horiz-adv-x="658" 
d="M344 378h242q15 0 21 -6t6 -21v-128q0 -109 -74.5 -173.5t-205.5 -64.5q-134 0 -207 67.5t-73 188.5v228q0 121 73 188.5t207 67.5q213 0 269 -170q7 -25 -17 -34l-41 -14q-14 -5 -21.5 -1.5t-12.5 17.5q-19 58 -61 85t-116 27q-89 0 -136 -43t-47 -122v-229
q0 -79 47.5 -122.5t135.5 -43.5q86 0 135 40t49 108v65h-173q-15 0 -20.5 5.5t-5.5 20.5v38q0 14 5.5 20t20.5 6zM396 -92l-46 -138q-8 -23 -28 -23h-29q-10 0 -13.5 3.5t-2.5 14.5l28 143q1 15 7.5 20t21.5 5h40q31 0 22 -25z" />
    <glyph glyph-name="gcommaaccent" unicode="&#x123;" horiz-adv-x="539" 
d="M225 601l45 114q6 22 30 22h23q12 0 15.5 -3.5t1.5 -14.5l-29 -118q-2 -16 -8.5 -22t-23.5 -6h-33q-31 0 -21 28zM48 201v123q0 207 220 207q108 0 174 -31q24 -11 31 -21t7 -34v-470q0 -216 -215 -216q-147 0 -202 102q-16 25 9 38l29 16q24 13 39 -9q39 -67 123 -67
q127 0 127 132v57q-76 -25 -140 -25q-202 0 -202 198zM376 434q-46 15 -102 15q-137 0 -137 -128v-118q0 -118 125 -118q55 0 128 22v307q0 15 -14 20z" />
    <glyph glyph-name="Hcircumflex" unicode="&#x124;" horiz-adv-x="683" 
d="M339 905h10q14 0 21.5 -3.5t22.5 -17.5l113 -103q17 -20 -12 -20h-35q-25 0 -39 14l-78 71l-81 -71q-14 -14 -37 -14h-33q-29 0 -12 20l114 103q14 15 21 18t25 3zM539 710h44q15 0 20.5 -6t5.5 -20v-658q0 -14 -5.5 -20t-20.5 -6h-44q-15 0 -20.5 6t-5.5 20v289h-342
v-289q0 -14 -6 -20t-21 -6h-44q-14 0 -20 6t-6 20v658q0 14 6 20t20 6h44q15 0 21 -6t6 -20v-279h342v279q0 14 5.5 20t20.5 6z" />
    <glyph glyph-name="hcircumflex" unicode="&#x125;" horiz-adv-x="553" 
d="M122 927h9q15 0 21.5 -3t20.5 -17l108 -100q16 -19 -11 -19h-34q-24 0 -37 13l-75 69l-77 -69q-13 -13 -36 -13h-32q-27 0 -11 19l109 100q14 14 21 17t24 3zM103 740h42q14 0 19 -5t5 -19v-207q43 22 140 22q203 0 203 -198v-309q0 -14 -5.5 -19t-18.5 -5h-42
q-13 0 -18.5 5t-5.5 19v306q0 119 -126 119q-79 0 -127 -23v-402q0 -14 -5 -19t-19 -5h-42q-14 0 -19 5t-5 19v692q0 14 5 19t19 5z" />
    <glyph glyph-name="Hbar" unicode="&#x126;" horiz-adv-x="694" 
d="M614 599h55q10 0 13 -3.5t3 -13.5v-22q0 -11 -3 -14.5t-13 -3.5h-55v-516q0 -14 -5.5 -20t-20.5 -6h-44q-15 0 -20.5 6t-5.5 20v289h-342v-289q0 -14 -6 -20t-21 -6h-44q-14 0 -20 6t-6 20v516h-53q-10 0 -13 3.5t-3 14.5v22q0 17 16 17h53v85q0 14 6 20t20 6h44
q15 0 21 -6t6 -20v-85h342v85q0 14 5.5 20t20.5 6h44q15 0 20.5 -6t5.5 -20v-85zM518 542h-342v-137h342v137z" />
    <glyph glyph-name="hbar" unicode="&#x127;" horiz-adv-x="553" 
d="M152 607v-98q45 22 140 22q203 0 203 -198v-309q0 -14 -5.5 -19t-18.5 -5h-42q-13 0 -18.5 5t-5.5 19v306q0 119 -125 119q-80 0 -128 -23v-402q0 -14 -5 -19t-19 -5h-42q-23 0 -23 24v583h-44q-16 0 -16 18v19q0 17 16 17h44v55q0 24 23 24h42q14 0 19 -5t5 -19v-55h147
q10 0 13 -3.5t3 -13.5v-19q0 -11 -3 -14.5t-13 -3.5h-147z" />
    <glyph glyph-name="Itilde" unicode="&#x128;" horiz-adv-x="245" 
d="M232 888h26q15 0 15 -15q0 -55 -19.5 -80t-61.5 -25q-35 0 -76 32q-40 31 -63 31q-33 0 -33 -48q0 -15 -14 -15h-26q-15 0 -15 15q0 105 80 105q33 0 79 -31.5t62 -31.5q32 0 32 48q0 15 14 15zM74 26v658q0 14 6 20t20 6h44q15 0 21 -6t6 -20v-658q0 -14 -6 -20t-21 -6
h-44q-14 0 -20 6t-6 20z" />
    <glyph glyph-name="itilde" unicode="&#x129;" horiz-adv-x="213" 
d="M189 720h23q13 0 13 -15q0 -56 -16 -80.5t-50 -24.5q-29 0 -56 30q-27 29 -45 29q-27 0 -27 -43q0 -16 -12 -16h-24q-13 0 -13 16q0 56 16.5 80t50.5 24q31 0 58 -30t44 -30q26 0 26 45q0 15 12 15zM86 516h42q23 0 23 -24v-468q0 -24 -23 -24h-42q-14 0 -19 5t-5 19v468
q0 14 5 19t19 5z" />
    <glyph glyph-name="Imacron" unicode="&#x12a;" horiz-adv-x="245" 
d="M6 859h233q13 0 18 -4.5t5 -17.5v-20q0 -13 -5 -18t-18 -5h-233q-14 0 -18.5 5t-4.5 18v20q0 22 23 22zM74 26v658q0 14 6 20t20 6h44q15 0 21 -6t6 -20v-658q0 -14 -6 -20t-21 -6h-44q-14 0 -20 6t-6 20z" />
    <glyph glyph-name="imacron" unicode="&#x12b;" horiz-adv-x="213" 
d="M34 679h145q9 0 11.5 -4t2.5 -18v-19q0 -13 -2.5 -17.5t-11.5 -4.5h-145q-14 0 -14 22v19q0 22 14 22zM86 516h42q23 0 23 -24v-468q0 -24 -23 -24h-42q-14 0 -19 5t-5 19v468q0 14 5 19t19 5z" />
    <glyph glyph-name="Ibreve" unicode="&#x12c;" horiz-adv-x="245" 
d="M281 867q-35 -105 -154 -105q-118 0 -152 105q-4 16 11 23l31 12q17 4 24 -9q20 -66 86 -66q67 0 87 66q6 13 21 9l35 -12q16 -7 11 -23zM79 26v658q0 14 6 20t20 6h44q15 0 21 -6t6 -20v-658q0 -14 -6 -20t-21 -6h-44q-14 0 -20 6t-6 20z" />
    <glyph glyph-name="ibreve" unicode="&#x12d;" horiz-adv-x="213" 
d="M201 723l35 -12q15 -7 11 -22q-30 -104 -135 -104t-134 104q-4 16 10 22l31 11q20 5 24 -8q14 -62 69 -62q52 0 69 62q5 15 20 9zM91 516h42q23 0 23 -24v-468q0 -24 -23 -24h-42q-14 0 -19 5t-5 19v468q0 14 5 19t19 5z" />
    <glyph glyph-name="Iogonek" unicode="&#x12e;" horiz-adv-x="245" 
d="M216 -167l10 -26q5 -11 -1 -17q-37 -36 -92 -36q-71 0 -83 55q-20 81 72 191q-16 0 -22 6t-6 20v658q0 14 6 20t20 6h44q15 0 21 -6t6 -20v-658q0 -16 -7 -23q-35 -46 -49.5 -88t-7.5 -70q9 -24 34 -24q24 0 40 16q11 8 15 -4z" />
    <glyph glyph-name="iogonek" unicode="&#x12f;" horiz-adv-x="214" 
d="M116 601h-6q-27 0 -37.5 10t-10.5 38v8q0 27 10.5 37.5t37.5 10.5h6q28 0 38 -10.5t10 -37.5v-8q0 -27 -10 -37.5t-38 -10.5zM184 -167l9 -24q6 -11 0 -18q-30 -36 -81 -36q-72 0 -81 61q-6 41 11 93t47 92q-21 0 -21 23v468q0 14 5 19t19 5h42q14 0 19 -5t5 -19v-468
q0 -14 -5 -19q-23 -37 -36 -81t-9 -75q1 -12 9.5 -20.5t20.5 -8.5q18 0 30 16q10 6 16 -3z" />
    <glyph glyph-name="Idot" unicode="&#x130;" horiz-adv-x="245" 
d="M120 874h5q25 0 34 -9t9 -34v-7q0 -25 -9 -34t-34 -9h-5q-25 0 -34 9t-9 34v7q0 25 9 34t34 9zM74 26v658q0 14 6 20t20 6h44q15 0 21 -6t6 -20v-658q0 -14 -6 -20t-21 -6h-44q-14 0 -20 6t-6 20z" />
    <glyph glyph-name="dotlessi" unicode="&#x131;" horiz-adv-x="214" 
d="M86 516h42q14 0 19 -5t5 -19v-468q0 -14 -5 -19t-19 -5h-42q-14 0 -19 5t-5 19v468q0 14 5 19t19 5z" />
    <glyph glyph-name="IJ" unicode="&#x132;" horiz-adv-x="821" 
d="M74 26v658q0 14 6 20t20 6h44q15 0 21 -6t6 -20v-658q0 -14 -6 -20t-21 -6h-44q-14 0 -20 6t-6 20zM681 710h45q14 0 20 -6t6 -20v-456q0 -115 -64.5 -179t-183.5 -64q-190 0 -239 178q-7 25 16 34l42 15q25 7 34 -17q16 -61 51 -90.5t96 -29.5q74 0 112.5 39.5
t38.5 112.5v457q0 14 5.5 20t20.5 6z" />
    <glyph glyph-name="ij" unicode="&#x133;" horiz-adv-x="457" 
d="M104 705h6q28 0 38 -10.5t10 -37.5v-8q0 -27 -10 -37.5t-38 -10.5h-6q-27 0 -37.5 10t-10.5 38v8q0 27 10.5 37.5t37.5 10.5zM346 705h7q27 0 37 -10.5t10 -37.5v-8q0 -27 -10 -37.5t-37 -10.5h-7q-27 0 -37.5 10t-10.5 38v8q0 27 10.5 37.5t37.5 10.5zM86 516h42
q14 0 19 -5t5 -19v-468q0 -14 -5 -19t-19 -5h-42q-14 0 -19 5t-5 19v468q0 14 5 19t19 5zM329 516h41q14 0 19 -5t5 -19v-500q0 -111 -52.5 -166.5t-164.5 -55.5q-13 0 -18.5 5t-5.5 19v35q0 24 24 24q68 0 98 34.5t30 106.5v498q0 14 5.5 19t18.5 5z" />
    <glyph glyph-name="Jcircumflex" unicode="&#x134;" horiz-adv-x="574" 
d="M462 905h9q15 0 22.5 -3.5t21.5 -17.5l113 -103q18 -20 -12 -20h-35q-24 0 -38 14l-79 71l-80 -71q-14 -14 -37 -14h-33q-29 0 -12 20l113 103q15 15 22 18t25 3zM442 710h45q14 0 19.5 -6t5.5 -20v-456q0 -115 -64 -179t-183 -64q-190 0 -239 178q-7 25 16 34l42 15
q25 7 34 -17q16 -61 51 -90.5t96 -29.5q74 0 112.5 39.5t38.5 112.5v457q0 14 5.5 20t20.5 6z" />
    <glyph glyph-name="jcircumflex" unicode="&#x135;" horiz-adv-x="215" 
d="M105 720h9q16 0 23 -3t20 -17l99 -101q16 -19 -12 -19h-34q-26 0 -38 13l-65 70l-67 -70q-13 -13 -36 -13h-33q-27 0 -11 19l99 101q14 14 21 17t25 3zM87 516h41q14 0 19 -5t5 -19v-500q0 -111 -52.5 -166.5t-164.5 -55.5q-13 0 -18.5 5t-5.5 19v35q0 24 24 24
q68 0 98 34.5t30 106.5v498q0 14 5.5 19t18.5 5z" />
    <glyph glyph-name="Kcommaaccent" unicode="&#x136;" horiz-adv-x="617" 
d="M471 272l127 -245q14 -27 -14 -27h-44q-24 0 -34.5 4.5t-17.5 18.5l-106 214q-24 46 -51.5 62.5t-81.5 16.5h-78v-290q0 -14 -6 -20t-21 -6h-44q-14 0 -20 6t-6 20v658q0 14 6 20t20 6h44q15 0 21 -6t6 -20v-280h70h18l213 284q11 14 20.5 18t32.5 4h49q13 0 17 -8
t-4 -17l-231 -300q71 -24 115 -113zM375 -92l-47 -138q-7 -23 -28 -23h-28q-12 0 -15 3.5t-1 14.5l27 143q1 15 7.5 20t21.5 5h40q32 0 23 -25z" />
    <glyph glyph-name="kcommaaccent" unicode="&#x137;" horiz-adv-x="514" 
d="M402 206l88 -178q8 -15 5 -21.5t-20 -6.5h-39q-20 0 -27 4t-14 18l-69 145q-14 30 -34.5 42.5t-55.5 12.5h-84v-197q0 -14 -5.5 -19.5t-19.5 -5.5h-39q-14 0 -19.5 5.5t-5.5 19.5v691q0 14 5.5 19t19.5 5h39q14 0 19.5 -5t5.5 -19v-411h73h8l149 193q9 12 16.5 15t30.5 3
h38q37 0 15 -28l-160 -200q49 -18 80 -82zM323 -79l-39 -128q-9 -22 -30 -22h-23q-12 0 -15.5 4t-1.5 15l23 131q2 16 8.5 21.5t22.5 5.5h34q30 0 21 -27z" />
    <glyph glyph-name="kgreenlandic" unicode="&#x138;" horiz-adv-x="488" 
d="M280 287l186 -258q21 -29 -15 -29h-39q-37 0 -50 19l-141 199l-69 -77v-116q0 -14 -5.5 -19.5t-19.5 -5.5h-40q-14 0 -19.5 5.5t-5.5 19.5v467q0 14 5.5 19t19.5 5h40q14 0 19.5 -5t5.5 -19v-227l206 233q10 12 18 15t29 3h38q37 0 15 -28z" />
    <glyph glyph-name="Lacute" unicode="&#x139;" horiz-adv-x="525" 
d="M15 805l155 95q28 16 44 -1l20 -24q17 -20 -4 -28l-175 -83q-24 -9 -31 1l-11 15q-14 16 2 25zM100 710h44q15 0 21 -6t6 -20v-594h314q15 0 21 -6t6 -20v-38q0 -14 -6 -20t-21 -6h-385q-14 0 -20 6t-6 20v658q0 14 6 20t20 6z" />
    <glyph glyph-name="lacute" unicode="&#x13a;" horiz-adv-x="221" 
d="M24 819l130 76q26 15 41 -4l22 -27q6 -8 7.5 -13t-1 -8.5t-10.5 -6.5l-148 -63q-22 -9 -30 2l-14 18q-12 18 3 26zM167 716v-692q0 -14 -5.5 -19t-18.5 -5h-42q-13 0 -18.5 5t-5.5 19v692q0 14 5.5 19t18.5 5h42q13 0 18.5 -5t5.5 -19z" />
    <glyph glyph-name="Lcommaaccent" unicode="&#x13b;" horiz-adv-x="525" 
d="M100 710h44q15 0 21 -6t6 -20v-594h314q15 0 21 -6t6 -20v-38q0 -14 -6 -20t-21 -6h-385q-14 0 -20 6t-6 20v658q0 14 6 20t20 6zM338 -92l-47 -138q-8 -23 -27 -23h-29q-12 0 -15 3.5t-1 14.5l27 143q1 25 29 25h40q32 0 23 -25z" />
    <glyph glyph-name="lcommaaccent" unicode="&#x13c;" horiz-adv-x="221" 
d="M156 716v-692q0 -14 -5.5 -19t-18.5 -5h-41q-14 0 -19 5t-5 19v692q0 14 5 19t19 5h41q13 0 18.5 -5t5.5 -19zM153 -66l-39 -132q-9 -22 -30 -22h-23q-12 0 -15 3.5t-2 15.5l24 135q1 27 31 27h33q30 0 21 -27z" />
    <glyph glyph-name="Lcaron" unicode="&#x13d;" horiz-adv-x="525" 
d="M100 710h44q15 0 21 -6t6 -20v-594h314q15 0 21 -6t6 -20v-38q0 -14 -6 -20t-21 -6h-385q-14 0 -20 6t-6 20v658q0 14 6 20t20 6zM434 685l-52 -180q-8 -21 -27 -21h-22q-10 0 -13 3t-2 13l30 186q1 24 28 24h37q30 0 21 -25z" />
    <glyph glyph-name="lcaron" unicode="&#x13e;" horiz-adv-x="228" 
d="M155 716v-692q0 -14 -5.5 -19t-18.5 -5h-41q-14 0 -19 5t-5 19v692q0 14 5 19t19 5h41q13 0 18.5 -5t5.5 -19zM339 715l-48 -157q-6 -13 -10.5 -17t-16.5 -4h-21q-11 0 -14 3t-2 13l25 163q2 14 8 19t20 5h37q31 0 22 -25z" />
    <glyph glyph-name="Ldot" unicode="&#x13f;" horiz-adv-x="525" 
d="M100 710h44q15 0 21 -6t6 -20v-594h314q15 0 21 -6t6 -20v-38q0 -14 -6 -20t-21 -6h-385q-14 0 -20 6t-6 20v658q0 14 6 20t20 6zM354 426h7q29 0 39.5 -11t10.5 -39v-8q0 -29 -10.5 -40t-39.5 -11h-7q-29 0 -39.5 11t-10.5 40v8q0 28 11 39t39 11z" />
    <glyph glyph-name="ldot" unicode="&#x140;" horiz-adv-x="354" 
d="M155 716v-692q0 -14 -5.5 -19t-18.5 -5h-41q-14 0 -19 5t-5 19v692q0 14 5 19t19 5h41q13 0 18.5 -5t5.5 -19zM286 430h6q29 0 40 -11t11 -40v-7q0 -29 -11 -40t-40 -11h-6q-29 0 -40 11t-11 40v7q0 29 11 40t40 11z" />
    <glyph glyph-name="Lslash" unicode="&#x141;" horiz-adv-x="556" 
d="M209 90h315q15 0 21 -6t6 -20v-38q0 -14 -6 -20t-21 -6h-385q-15 0 -20.5 6t-5.5 20v247l-68 -31q-16 -10 -25 8l-14 28q-9 16 7 23l100 47v336q0 14 5.5 20t20.5 6h44q15 0 20.5 -6t5.5 -20v-292l184 87q17 7 27 -9l13 -29q7 -16 -9 -22l-215 -102v-227z" />
    <glyph glyph-name="lslash" unicode="&#x142;" horiz-adv-x="307" 
d="M290 463l14 -26q11 -15 -6 -23l-95 -54v-336q0 -14 -5 -19t-19 -5h-42q-23 0 -23 24v288l-55 -32q-18 -9 -27 6l-15 26q-7 16 7 24l90 51v329q0 24 23 24h42q14 0 19 -5t5 -19v-281l60 35q17 8 27 -7z" />
    <glyph glyph-name="Nacute" unicode="&#x143;" horiz-adv-x="693" 
d="M239 805l155 95q31 17 44 -1l20 -24q16 -19 -3 -28l-176 -83q-23 -9 -30 1l-12 15q-13 16 2 25zM552 710h41q14 0 20 -6t6 -20v-658q0 -14 -6 -20t-20 -6h-44q-18 0 -27 13l-285 415q-25 37 -51 94l-30 60h-5q0 -2 9 -69q8 -72 8 -117v-370q0 -14 -6 -20t-21 -6h-41
q-14 0 -20 6t-6 20v658q0 14 6 20t20 6h44q19 0 26 -13l281 -408q31 -46 56 -98q8 -17 15.5 -32l11 -22t3.5 -8h5q0 1 -1 8.5t-3 26t-4 37.5q-8 72 -8 121v362q0 14 5.5 20t20.5 6z" />
    <glyph glyph-name="nacute" unicode="&#x144;" 
d="M168 629l155 95q28 16 44 -2l20 -24q16 -19 -4 -27l-175 -84q-24 -8 -31 2l-11 14q-14 19 2 26zM99 497q81 34 191 34q203 0 203 -198v-309q0 -14 -5.5 -19t-18.5 -5h-42q-13 0 -18.5 5t-5.5 19v306q0 119 -125 119q-60 0 -116 -18q-12 -5 -12 -18v-389q0 -14 -5 -19
t-19 -5h-42q-23 0 -23 24v417q0 24 7.5 35t30.5 21z" />
    <glyph glyph-name="Ncommaaccent" unicode="&#x145;" horiz-adv-x="693" 
d="M552 710h41q14 0 20 -6t6 -20v-658q0 -14 -6 -20t-20 -6h-44q-18 0 -27 13l-285 415q-25 37 -51 94l-30 60h-5q0 -2 9 -69q8 -72 8 -117v-370q0 -14 -6 -20t-21 -6h-41q-14 0 -20 6t-6 20v658q0 14 6 20t20 6h44q19 0 26 -13l281 -408q31 -46 56 -98q8 -17 15.5 -32
l11 -22t3.5 -8h5q0 1 -1 8.5t-3 26t-4 37.5q-8 72 -8 121v362q0 14 5.5 20t20.5 6zM401 -92l-47 -138q-7 -23 -28 -23h-28q-12 0 -15 3.5t-1 14.5l27 143q1 15 7.5 20t21.5 5h40q32 0 23 -25z" />
    <glyph glyph-name="ncommaaccent" unicode="&#x146;" 
d="M99 497q81 34 191 34q203 0 203 -198v-309q0 -14 -5.5 -19t-18.5 -5h-42q-13 0 -18.5 5t-5.5 19v306q0 119 -125 119q-60 0 -116 -18q-12 -5 -12 -18v-389q0 -14 -5 -19t-19 -5h-42q-23 0 -23 24v417q0 24 7.5 35t30.5 21zM326 -66l-39 -130q-6 -22 -30 -22h-23
q-12 0 -15.5 3.5t-1.5 14.5l23 134q2 16 8.5 21.5t22.5 5.5h34q30 0 21 -27z" />
    <glyph glyph-name="Ncaron" unicode="&#x147;" horiz-adv-x="693" 
d="M462 904h35q14 0 17 -6t-6 -14l-112 -103q-14 -14 -21.5 -17.5t-22.5 -3.5h-10q-18 0 -25 3t-21 18l-113 103q-9 8 -6 14t17 6h33q23 0 37 -14l81 -71l78 71q14 14 39 14zM552 710h41q14 0 20 -6t6 -20v-658q0 -14 -6 -20t-20 -6h-44q-18 0 -27 13l-285 415
q-25 37 -51 94l-30 60h-5q0 -2 9 -69q8 -72 8 -117v-370q0 -14 -6 -20t-21 -6h-41q-14 0 -20 6t-6 20v658q0 14 6 20t20 6h44q19 0 26 -13l281 -408q31 -46 56 -98q8 -17 15.5 -32l11 -22t3.5 -8h5q0 1 -1 8.5t-3 26t-4 37.5q-8 72 -8 121v362q0 14 5.5 20t20.5 6z" />
    <glyph glyph-name="ncaron" unicode="&#x148;" 
d="M381 709h32q26 0 10 -19l-103 -95q-13 -13 -19.5 -16t-20.5 -3h-9q-15 0 -22 3t-20 16l-104 96q-7 7 -4.5 12.5t14.5 5.5h31q22 0 34 -13l74 -66l71 66q12 13 36 13zM99 497q81 34 191 34q203 0 203 -198v-309q0 -14 -5.5 -19t-18.5 -5h-42q-13 0 -18.5 5t-5.5 19v306
q0 119 -125 119q-60 0 -116 -18q-12 -5 -12 -18v-389q0 -14 -5 -19t-19 -5h-42q-23 0 -23 24v417q0 24 7.5 35t30.5 21z" />
    <glyph glyph-name="napostrophe" unicode="&#x149;" 
d="M192 715l-88 -159q-7 -11 -12 -14t-17 -3h-22q-10 0 -12.5 3.5t0.5 13.5l65 163q4 13 9 17t19 4h42q32 0 16 -25zM101 497q81 34 191 34q203 0 203 -198v-309q0 -14 -5.5 -19t-18.5 -5h-42q-13 0 -18.5 5t-5.5 19v306q0 119 -125 119q-60 0 -116 -18q-12 -5 -12 -18v-389
q0 -14 -5 -19t-19 -5h-42q-23 0 -23 24v417q0 24 7.5 35t30.5 21z" />
    <glyph glyph-name="Eng" unicode="&#x14a;" horiz-adv-x="693" 
d="M552 710h41q14 0 20 -6t6 -20v-694q0 -106 -59 -163t-170 -57q-14 0 -19.5 5t-5.5 19v35q0 14 5.5 19t19.5 5q136 0 136 140v16l-289 419q-25 37 -51 94l-30 60h-5q0 -1 4.5 -31t8.5 -73t4 -74v-378q0 -14 -6 -20t-21 -6h-41q-14 0 -20 6t-6 20v658q0 14 6 20t20 6h44
q19 0 26 -13l281 -408q31 -46 56 -98q8 -17 15.5 -32l11 -22t3.5 -8h5q0 1 -1 8.5t-3 26t-4 37.5q-8 72 -8 121v362q0 14 5.5 20t20.5 6z" />
    <glyph glyph-name="eng" unicode="&#x14b;" 
d="M99 497q81 34 191 34q203 0 203 -198v-349q0 -103 -57.5 -158.5t-165.5 -55.5q-13 0 -18 5t-5 18v33q0 14 5 19t18 5q133 0 133 137v343q0 119 -125 119q-60 0 -116 -18q-12 -5 -12 -18v-389q0 -14 -5 -19t-19 -5h-42q-23 0 -23 24v417q0 24 7.5 35t30.5 21z" />
    <glyph glyph-name="Omacron" unicode="&#x14c;" horiz-adv-x="666" 
d="M216 869h234q13 0 18 -4.5t5 -17.5v-20q0 -13 -4.5 -18t-18.5 -5h-234q-13 0 -17.5 5t-4.5 18v20q0 13 5 17.5t17 4.5zM53 241v228q0 121 73 188.5t207 67.5t207 -67.5t73 -188.5v-228q0 -121 -73 -188.5t-207 -67.5t-207 67.5t-73 188.5zM516 241v228q0 80 -47.5 123
t-135.5 43t-135.5 -43t-47.5 -123v-228q0 -80 47.5 -123t135.5 -43t135.5 43t47.5 123z" />
    <glyph glyph-name="omacron" unicode="&#x14d;" horiz-adv-x="541" 
d="M163 675h214q13 0 17 -4.5t4 -17.5v-19q0 -13 -4 -17t-17 -4h-214q-12 0 -16.5 4t-4.5 17v19q0 13 5 17.5t16 4.5zM46 176v163q0 90 59.5 141t164.5 51q107 0 166 -51t59 -141v-163q0 -90 -59 -140.5t-166 -50.5q-105 0 -164.5 51t-59.5 140zM406 176v164q0 52 -36 81
t-100 29q-63 0 -99 -29t-36 -81v-164q0 -52 36 -81t99 -29q64 0 100 29t36 81z" />
    <glyph glyph-name="Obreve" unicode="&#x14e;" horiz-adv-x="666" 
d="M487 877q-35 -105 -154 -105q-117 0 -152 105q-4 16 11 23l31 12q17 4 24 -9q19 -66 86 -66t87 66q6 13 21 9l35 -12q16 -7 11 -23zM53 241v228q0 121 73 188.5t207 67.5t207 -67.5t73 -188.5v-228q0 -121 -73 -188.5t-207 -67.5t-207 67.5t-73 188.5zM516 241v228
q0 80 -47.5 123t-135.5 43t-135.5 -43t-47.5 -123v-228q0 -80 47.5 -123t135.5 -43t135.5 43t47.5 123z" />
    <glyph glyph-name="obreve" unicode="&#x14f;" horiz-adv-x="541" 
d="M424 689q-34 -105 -154 -105t-152 105q-4 16 10 23l32 12q16 4 24 -9q20 -66 86 -66q68 0 87 66q6 13 21 9l35 -12q16 -7 11 -23zM46 176v163q0 90 59.5 141t164.5 51q107 0 166 -51t59 -141v-163q0 -90 -59 -140.5t-166 -50.5q-105 0 -164.5 51t-59.5 140zM406 176v164
q0 52 -36 81t-100 29q-63 0 -99 -29t-36 -81v-164q0 -52 36 -81t99 -29q64 0 100 29t36 81z" />
    <glyph glyph-name="Ohungarumlaut" unicode="&#x150;" horiz-adv-x="666" 
d="M191 801l81 101q15 23 40 16l28 -9q25 -9 7 -27l-106 -100q-16 -15 -28 -10l-14 5q-21 6 -8 24zM357 798l86 104q17 24 40 16l30 -9q27 -11 8 -27l-113 -103q-17 -14 -29 -10l-14 5q-22 4 -8 24zM53 241v228q0 121 73 188.5t207 67.5t207 -67.5t73 -188.5v-228
q0 -121 -73 -188.5t-207 -67.5t-207 67.5t-73 188.5zM516 241v228q0 80 -47.5 123t-135.5 43t-135.5 -43t-47.5 -123v-228q0 -80 47.5 -123t135.5 -43t135.5 43t47.5 123z" />
    <glyph glyph-name="ohungarumlaut" unicode="&#x151;" horiz-adv-x="541" 
d="M139 600l74 93q15 19 37 15l26 -9q22 -7 7 -24l-98 -92q-15 -14 -26 -9l-13 4q-17 6 -7 22zM292 598l80 94q15 21 37 15l27 -8q26 -11 7 -25l-105 -93q-16 -13 -26 -9l-13 4q-21 5 -7 22zM46 176v163q0 90 59.5 141t164.5 51q107 0 166 -51t59 -141v-163
q0 -90 -59 -140.5t-166 -50.5q-105 0 -164.5 51t-59.5 140zM406 176v164q0 52 -36 81t-100 29q-63 0 -99 -29t-36 -81v-164q0 -52 36 -81t99 -29q64 0 100 29t36 81z" />
    <glyph glyph-name="OE" unicode="&#x152;" horiz-adv-x="851" 
d="M515 90h274q15 0 21 -6t6 -20v-38q0 -14 -6 -20t-21 -6h-344q-49 -15 -112 -15q-134 0 -207 67.5t-73 188.5v228q0 121 73 188.5t207 67.5q64 0 112 -15h333q14 0 20 -6t6 -20v-38q0 -14 -6 -20t-20 -6h-263v-216h216q15 0 20.5 -5.5t5.5 -20.5v-37q0 -15 -5.5 -21
t-20.5 -6h-216v-224zM150 469v-228q0 -80 47.5 -123t135.5 -43q55 0 85 13v534q-33 13 -85 13q-88 0 -135.5 -43t-47.5 -123z" />
    <glyph glyph-name="oe" unicode="&#x153;" horiz-adv-x="823" 
d="M417 456q47 75 160 75q103 0 155.5 -55t52.5 -151v-59q0 -35 -37 -35h-288v-49q0 -119 116 -119q43 0 70.5 16.5t48.5 51.5q15 22 39 10l27 -15q25 -14 9 -39q-30 -52 -75.5 -77t-119.5 -25q-113 0 -159 73q-48 -73 -163 -73q-98 0 -152 50.5t-54 140.5v164
q0 90 54 140.5t152 50.5q117 0 164 -75zM695 300v30q0 125 -118 125q-117 0 -117 -125v-30h235zM370 176v164q0 52 -30.5 81t-86.5 29q-55 0 -85.5 -29t-30.5 -81v-164q0 -52 30.5 -81t85.5 -29t86 29t31 81z" />
    <glyph glyph-name="Racute" unicode="&#x154;" horiz-adv-x="647" 
d="M212 805l155 95q28 16 44 -1l20 -24q17 -20 -4 -28l-175 -83q-23 -9 -30 1l-12 15q-14 16 2 25zM100 710h281q102 0 159 -56t57 -157q0 -80 -38.5 -131.5t-108.5 -67.5q27 -15 50 -56l111 -215q13 -27 -14 -27h-44q-25 0 -35 4.5t-17 18.5l-91 183q-22 45 -50 62t-82 17
h-107v-259q0 -14 -6 -20t-21 -6h-44q-14 0 -20 6t-6 20v658q0 14 6 20t20 6zM496 497q0 59 -32.5 91t-91.5 32h-201v-245h201q59 0 91.5 32t32.5 90z" />
    <glyph glyph-name="racute" unicode="&#x155;" horiz-adv-x="346" 
d="M97 629l155 95q30 15 45 -2l19 -24q16 -20 -3 -27l-176 -84q-23 -9 -30 1l-11 15q-14 17 1 26zM282 531h32q14 0 19 -5.5t5 -18.5v-34q0 -13 -5 -18.5t-19 -5.5h-35q-58 0 -115 -17q-14 -5 -14 -20v-388q0 -14 -5 -19t-19 -5h-42q-23 0 -23 24v420q0 24 7.5 35t30.5 21
q78 30 183 31z" />
    <glyph glyph-name="Rcommaaccent" unicode="&#x156;" horiz-adv-x="647" 
d="M100 710h281q102 0 159 -56t57 -157q0 -80 -38.5 -131.5t-108.5 -67.5q27 -15 50 -56l111 -215q13 -27 -14 -27h-44q-25 0 -35 4.5t-17 18.5l-91 183q-22 45 -50 62t-82 17h-107v-259q0 -14 -6 -20t-21 -6h-44q-14 0 -20 6t-6 20v658q0 14 6 20t20 6zM496 497
q0 59 -32.5 91t-91.5 32h-201v-245h201q59 0 91.5 32t32.5 90zM388 -92l-46 -138q-8 -23 -28 -23h-29q-10 0 -13.5 3.5t-1.5 14.5l27 143q1 15 7.5 20t21.5 5h40q31 0 22 -25z" />
    <glyph glyph-name="rcommaaccent" unicode="&#x157;" horiz-adv-x="346" 
d="M283 531h32q14 0 19 -5.5t5 -18.5v-34q0 -13 -5 -18.5t-19 -5.5h-35q-58 0 -115 -17q-14 -5 -14 -20v-388q0 -14 -5 -19t-19 -5h-42q-23 0 -23 24v420q0 24 7.5 35t30.5 21q78 30 183 31zM149 -68l-38 -133q-6 -23 -30 -23h-24q-12 0 -15 3.5t-2 15.5l23 137q1 27 31 27
h34q30 0 21 -27z" />
    <glyph glyph-name="Rcaron" unicode="&#x158;" horiz-adv-x="647" 
d="M434 904h36q14 0 17 -6t-6 -14l-113 -103q-14 -14 -21.5 -17.5t-21.5 -3.5h-10q-18 0 -25 3t-22 18l-112 103q-9 8 -6 14t17 6h33q23 0 37 -14l81 -71l78 71q14 14 38 14zM100 710h281q102 0 159 -56t57 -157q0 -80 -38.5 -131.5t-108.5 -67.5q27 -15 50 -56l111 -215
q13 -27 -14 -27h-44q-25 0 -35 4.5t-17 18.5l-91 183q-22 45 -50 62t-82 17h-107v-259q0 -14 -6 -20t-21 -6h-44q-14 0 -20 6t-6 20v658q0 14 6 20t20 6zM496 497q0 59 -32.5 91t-91.5 32h-201v-245h201q59 0 91.5 32t32.5 90z" />
    <glyph glyph-name="rcaron" unicode="&#x159;" horiz-adv-x="346" 
d="M324 708h33q27 0 10 -18l-103 -95q-14 -14 -20.5 -17t-19.5 -3h-9q-16 0 -23.5 3t-19.5 17l-104 95q-13 18 10 18h31q22 0 34 -12l74 -66l72 66q11 12 35 12zM296 531h32q14 0 19 -5.5t5 -18.5v-34q0 -13 -5 -18.5t-19 -5.5h-35q-58 0 -115 -17q-14 -5 -14 -20v-388
q0 -14 -5 -19t-19 -5h-42q-23 0 -23 24v420q0 24 7.5 35t30.5 21q78 30 183 31z" />
    <glyph glyph-name="Sacute" unicode="&#x15a;" horiz-adv-x="629" 
d="M212 815l155 95q31 17 44 -2l20 -24q17 -20 -3 -27l-176 -84q-22 -9 -30 2l-12 14q-14 17 2 26zM51 513q0 97 70.5 154.5t195.5 57.5q101 0 162 -36.5t100 -116.5q12 -24 -14 -35l-42 -19q-14 -6 -20.5 -3.5t-13.5 16.5q-28 53 -67.5 77t-104.5 24q-167 0 -167 -113
q0 -70 82 -95q39 -13 110 -20q90 -11 139 -30q35 -14 59 -35q53 -49 53 -137q0 -102 -72.5 -159.5t-204.5 -57.5q-109 0 -174 41.5t-99 129.5q-5 14 -1.5 21.5t18.5 12.5l41 15q23 10 34 -16q50 -113 181 -113q180 0 180 124q0 61 -55 85q-42 17 -122 27q-65 6 -123 21
q-33 7 -58 22q-92 50 -87 158z" />
    <glyph glyph-name="sacute" unicode="&#x15b;" horiz-adv-x="500" 
d="M152 629l155 95q31 17 45 -2l19 -24q17 -20 -3 -27l-175 -84q-24 -8 -31 2l-11 14q-14 17 1 26zM52 376q0 73 52 114t149 41q159 0 209 -108q12 -24 -12 -35l-34 -14q-15 -5 -19.5 -3.5t-13.5 14.5q-16 33 -46 49t-82 16q-114 0 -114 -72q0 -42 29.5 -57.5t106.5 -21.5
q101 -11 149 -41q49 -31 49 -113q0 -75 -54 -117.5t-155 -42.5q-172 0 -219 123q-11 24 15 32l34 12q22 7 32 -15q28 -72 135 -72q125 0 125 76q0 40 -29 56t-104 23q-68 7 -114 23q-32 11 -47 26q-42 37 -42 107z" />
    <glyph glyph-name="Scircumflex" unicode="&#x15c;" horiz-adv-x="629" 
d="M318 914h10q15 0 22 -3t21 -18l113 -103q19 -19 -12 -19h-35q-26 0 -38 13l-79 71l-80 -71q-13 -13 -37 -13h-33q-28 0 -12 19l113 103q15 15 22 18t25 3zM51 513q0 97 70.5 154.5t195.5 57.5q101 0 162 -36.5t100 -116.5q12 -24 -14 -35l-42 -19q-14 -6 -20.5 -3.5
t-13.5 16.5q-28 53 -67.5 77t-104.5 24q-167 0 -167 -113q0 -70 82 -95q39 -13 110 -20q90 -11 139 -30q35 -14 59 -35q53 -49 53 -137q0 -102 -72.5 -159.5t-204.5 -57.5q-109 0 -174 41.5t-99 129.5q-5 14 -1.5 21.5t18.5 12.5l41 15q23 10 34 -16q50 -113 181 -113
q180 0 180 124q0 61 -55 85q-42 17 -122 27q-65 6 -123 21q-33 7 -58 22q-92 50 -87 158z" />
    <glyph glyph-name="scircumflex" unicode="&#x15d;" horiz-adv-x="500" 
d="M258 721h9q15 0 21.5 -3t21.5 -18l111 -101q16 -19 -12 -19h-34q-25 0 -38 13l-77 70l-78 -70q-13 -13 -37 -13h-32q-14 0 -17 6t6 13l110 101q15 14 22.5 17.5t23.5 3.5zM52 376q0 73 52 114t149 41q159 0 209 -108q12 -24 -12 -35l-34 -14q-15 -5 -19.5 -3.5
t-13.5 14.5q-16 33 -46 49t-82 16q-114 0 -114 -72q0 -42 29.5 -57.5t106.5 -21.5q101 -11 149 -41q49 -31 49 -113q0 -75 -54 -117.5t-155 -42.5q-172 0 -219 123q-11 24 15 32l34 12q22 7 32 -15q28 -72 135 -72q125 0 125 76q0 40 -29 56t-104 23q-68 7 -114 23
q-32 11 -47 26q-42 37 -42 107z" />
    <glyph glyph-name="Scedilla" unicode="&#x15e;" horiz-adv-x="629" 
d="M341 404q90 -11 139 -30q36 -15 60 -35q53 -48 53 -137q0 -94 -62 -150t-177 -65l-20 -54q4 1 20 1q40 0 63.5 -24t20.5 -61q-4 -47 -37.5 -71.5t-88.5 -24.5q-44 0 -76 17q-14 6 -14 23l-1 24q0 17 13 10q32 -20 67 -20q60 0 60 47q0 35 -52 36q-17 0 -29 -3
q-11 -1 -14 4t2 16l31 78q-101 3 -162 44.5t-94 126.5q-5 14 -1.5 21.5t17.5 12.5l41 15q14 5 21 1.5t13 -17.5q50 -113 181 -113q181 0 181 124q0 67 -76 93q-37 12 -102 19q-65 6 -123 21q-33 7 -58 22q-92 50 -87 158q0 97 70.5 154.5t195.5 57.5q101 0 162 -36.5
t101 -116.5q11 -24 -15 -35l-42 -19q-13 -6 -19.5 -3.5t-14.5 16.5q-27 52 -67 76.5t-105 24.5q-167 0 -167 -113q0 -70 82 -95q39 -13 110 -20z" />
    <glyph glyph-name="scedilla" unicode="&#x15f;" horiz-adv-x="500" 
d="M52 376q0 73 52 114t149 41q159 0 209 -108q12 -24 -12 -35l-34 -14q-15 -5 -19.5 -3.5t-13.5 14.5q-16 33 -46 49t-82 16q-114 0 -114 -72q0 -42 29.5 -57.5t106.5 -21.5q101 -11 149 -41q49 -31 49 -113q0 -69 -46.5 -110.5t-135.5 -47.5l-22 -58q14 2 19 2
q38 0 61.5 -23t21.5 -59q-4 -46 -37 -69t-86 -23q-44 0 -76 15q-13 7 -13 23l-1 23q0 15 12 9q31 -19 67 -19q58 0 58 45q0 33 -51 35q-16 0 -29 -3q-10 -1 -12.5 4t1.5 16l34 81q-149 9 -193 122q-11 24 15 32l34 12q22 7 32 -15q28 -72 135 -72q125 0 125 76q0 40 -29 56
t-104 23q-68 7 -114 23q-32 11 -47 26q-42 37 -42 107z" />
    <glyph glyph-name="Scaron" unicode="&#x160;" horiz-adv-x="629" 
d="M435 914h35q14 0 17 -6t-6 -14l-112 -103q-14 -15 -21 -18t-23 -3h-10q-18 0 -25 3t-21 18l-113 103q-9 7 -6 13.5t17 6.5h33q23 0 37 -14l81 -71l78 71q14 14 39 14zM51 513q0 97 70.5 154.5t195.5 57.5q101 0 162 -36.5t100 -116.5q12 -24 -14 -35l-42 -19
q-14 -6 -20.5 -3.5t-13.5 16.5q-28 53 -67.5 77t-104.5 24q-167 0 -167 -113q0 -70 82 -95q39 -13 110 -20q90 -11 139 -30q35 -14 59 -35q53 -49 53 -137q0 -102 -72.5 -159.5t-204.5 -57.5q-109 0 -174 41.5t-99 129.5q-5 14 -1.5 21.5t18.5 12.5l41 15q23 10 34 -16
q50 -113 181 -113q180 0 180 124q0 61 -55 85q-42 17 -122 27q-65 6 -123 21q-33 7 -58 22q-92 50 -87 158z" />
    <glyph glyph-name="scaron" unicode="&#x161;" horiz-adv-x="500" 
d="M364 705h32q12 0 14.5 -5.5t-4.5 -12.5l-102 -93q-13 -13 -19 -16t-20 -3h-9q-15 0 -22 3t-20 16l-102 93q-7 7 -5 12.5t14 5.5h31q20 0 34 -12l72 -65l71 65q12 12 35 12zM52 376q0 73 52 114t149 41q159 0 209 -108q12 -24 -12 -35l-34 -14q-15 -5 -19.5 -3.5
t-13.5 14.5q-16 33 -46 49t-82 16q-114 0 -114 -72q0 -42 29.5 -57.5t106.5 -21.5q101 -11 149 -41q49 -31 49 -113q0 -75 -54 -117.5t-155 -42.5q-172 0 -219 123q-11 24 15 32l34 12q22 7 32 -15q28 -72 135 -72q125 0 125 76q0 40 -29 56t-104 23q-68 7 -114 23
q-32 11 -47 26q-42 37 -42 107z" />
    <glyph glyph-name="Tcaron" unicode="&#x164;" horiz-adv-x="554" 
d="M392 904h35q14 0 17 -6t-6 -14l-112 -103q-14 -14 -21.5 -17.5t-22.5 -3.5h-10q-18 0 -25 3t-21 18l-113 103q-9 8 -6 14t17 6h33q23 0 37 -14l81 -71l78 71q14 14 39 14zM40 710h474q14 0 20 -6t6 -20v-38q0 -14 -6 -20t-20 -6h-189v-594q0 -14 -5.5 -20t-20.5 -6h-44
q-15 0 -20.5 6t-5.5 20v594h-189q-15 0 -20.5 6t-5.5 20v38q0 14 5.5 20t20.5 6z" />
    <glyph glyph-name="tcaron" unicode="&#x165;" horiz-adv-x="372" 
d="M383 716l-44 -139q-6 -22 -27 -22h-21q-10 0 -13 3t-2 14l21 144q1 24 28 24h37q30 0 21 -24zM137 636h42q13 0 18.5 -5t5.5 -19v-96h131q23 0 23 -24v-35q0 -24 -23 -24h-131v-233q0 -78 27 -104q28 -26 102 -26q14 0 19.5 -5t5.5 -19v-36q0 -13 -5.5 -18t-19.5 -6
q-122 -3 -169 43q-49 45 -49 169v235h-83q-24 0 -24 24v35q0 14 5.5 19t18.5 5h83v96q0 14 5 19t18 5z" />
    <glyph glyph-name="Tbar" unicode="&#x166;" horiz-adv-x="573" 
d="M50 710h474q14 0 20 -6t6 -20v-38q0 -14 -6 -20t-20 -6h-189v-257h131q16 0 16 -17v-35q0 -18 -16 -18h-131v-267q0 -14 -6 -20t-20 -6h-44q-15 0 -21 6t-6 20v267h-130q-10 0 -13 3.5t-3 14.5v35q0 17 16 17h130v257h-188q-15 0 -20.5 6t-5.5 20v38q0 14 5.5 20t20.5 6z
" />
    <glyph glyph-name="tbar" unicode="&#x167;" horiz-adv-x="378" 
d="M142 637h42q14 0 19 -5.5t5 -18.5v-96h130q14 0 19 -5.5t5 -18.5v-35q0 -14 -5 -19t-19 -5h-130v-137h104q16 0 16 -17v-29q0 -17 -16 -17h-104v-35q0 -79 27 -103q26 -25 102 -25q24 0 24 -24v-36q0 -24 -24 -24q-121 -3 -170 43q-49 45 -49 168v36h-75q-16 0 -16 17v29
q0 17 16 17h75v137h-82q-14 0 -19 5t-5 19v35q0 13 5 18.5t19 5.5h82v96q0 13 5 18.5t19 5.5z" />
    <glyph glyph-name="Utilde" unicode="&#x168;" horiz-adv-x="685" 
d="M452 888h25q16 0 16 -15q0 -55 -19.5 -80t-61.5 -25q-35 0 -76 32q-40 31 -63 31q-33 0 -33 -48q0 -15 -14 -15h-26q-15 0 -15 15q0 105 80 105q33 0 79 -31.5t62 -31.5q32 0 32 48q0 15 14 15zM165 684v-442q0 -80 45.5 -123.5t131.5 -43.5t131.5 43.5t45.5 123.5v442
q0 14 6 20t21 6h44q14 0 20 -6t6 -20v-441q0 -122 -70.5 -190t-203.5 -68q-131 0 -202 68.5t-71 189.5v441q0 14 5.5 20t20.5 6h44q15 0 20.5 -6t5.5 -20z" />
    <glyph glyph-name="utilde" unicode="&#x169;" 
d="M384 714h25q15 0 15 -15q0 -55 -19.5 -80t-61.5 -25q-35 0 -75 31t-63 31q-33 0 -33 -47q0 -15 -14 -15h-26q-15 0 -15 15q0 105 80 105q39 0 79 -31q41 -32 61 -32q33 0 33 48q0 15 14 15zM425 516h41q14 0 19 -5t5 -19v-417q0 -24 -7.5 -35t-30.5 -21q-90 -34 -191 -34
q-203 0 -203 198v309q0 14 5 19t19 5h42q23 0 23 -24v-306q0 -119 126 -119q56 0 113 17q15 8 15 23v385q0 14 5.5 19t18.5 5z" />
    <glyph glyph-name="Umacron" unicode="&#x16a;" horiz-adv-x="685" 
d="M225 859h234q13 0 18 -4.5t5 -17.5v-20q0 -13 -5 -18t-18 -5h-234q-13 0 -17.5 5t-4.5 18v20q0 13 5 17.5t17 4.5zM165 684v-442q0 -80 45.5 -123.5t131.5 -43.5t131.5 43.5t45.5 123.5v442q0 14 6 20t21 6h44q14 0 20 -6t6 -20v-441q0 -122 -70.5 -190t-203.5 -68
q-131 0 -202 68.5t-71 189.5v441q0 14 5.5 20t20.5 6h44q15 0 20.5 -6t5.5 -20z" />
    <glyph glyph-name="umacron" unicode="&#x16b;" 
d="M157 682h234q13 0 18 -5t5 -18v-20q0 -13 -4.5 -17.5t-18.5 -4.5h-234q-13 0 -17.5 4.5t-4.5 17.5v20q0 23 22 23zM425 516h41q14 0 19 -5t5 -19v-417q0 -24 -7.5 -35t-30.5 -21q-90 -34 -191 -34q-203 0 -203 198v309q0 14 5 19t19 5h42q23 0 23 -24v-306
q0 -119 126 -119q56 0 113 17q15 8 15 23v385q0 14 5.5 19t18.5 5z" />
    <glyph glyph-name="Ubreve" unicode="&#x16c;" horiz-adv-x="685" 
d="M496 867q-34 -105 -154 -105q-118 0 -152 105q-4 16 11 23l31 12q16 4 24 -9q20 -66 86 -66q68 0 87 66q6 13 21 9l35 -12q16 -7 11 -23zM165 684v-442q0 -80 45.5 -123.5t131.5 -43.5t131.5 43.5t45.5 123.5v442q0 14 6 20t21 6h44q14 0 20 -6t6 -20v-441
q0 -122 -70.5 -190t-203.5 -68q-131 0 -202 68.5t-71 189.5v441q0 14 5.5 20t20.5 6h44q15 0 20.5 -6t5.5 -20z" />
    <glyph glyph-name="ubreve" unicode="&#x16d;" 
d="M428 689q-35 -105 -154 -105q-120 0 -152 105q-4 16 10 23l32 12q16 4 24 -9q19 -66 86 -66q68 0 87 66q6 13 21 9l35 -12q16 -7 11 -23zM425 516h41q14 0 19 -5t5 -19v-417q0 -24 -7.5 -35t-30.5 -21q-90 -34 -191 -34q-203 0 -203 198v309q0 14 5 19t19 5h42
q23 0 23 -24v-306q0 -119 126 -119q56 0 113 17q15 8 15 23v385q0 14 5.5 19t18.5 5z" />
    <glyph glyph-name="Uring" unicode="&#x16e;" horiz-adv-x="685" 
d="M241 844q0 46 29.5 74t76.5 28q46 0 74 -28t28 -74q0 -45 -28 -73t-74 -28q-47 0 -76.5 28t-29.5 73zM388 803q25 24 11 63t-52 35q-28 0 -44 -15.5t-16 -41.5t16 -41t44 -15q25 0 41 15zM165 684v-442q0 -80 45.5 -123.5t131.5 -43.5t131.5 43.5t45.5 123.5v442
q0 14 6 20t21 6h44q14 0 20 -6t6 -20v-441q0 -122 -70.5 -190t-203.5 -68q-131 0 -202 68.5t-71 189.5v441q0 14 5.5 20t20.5 6h44q15 0 20.5 -6t5.5 -20z" />
    <glyph glyph-name="uring" unicode="&#x16f;" 
d="M171 647q0 46 29.5 74.5t76.5 28.5q46 0 74.5 -28.5t28.5 -74.5q0 -45 -28.5 -73t-74.5 -28q-47 0 -76.5 28t-29.5 73zM334 647q0 26 -15.5 41.5t-41.5 15.5q-27 0 -43.5 -15.5t-16.5 -41.5q0 -25 16.5 -40.5t43.5 -15.5q25 0 41 15.5t16 40.5zM425 516h41q14 0 19 -5
t5 -19v-417q0 -24 -7.5 -35t-30.5 -21q-90 -34 -191 -34q-203 0 -203 198v309q0 14 5 19t19 5h42q23 0 23 -24v-306q0 -119 126 -119q56 0 113 17q15 8 15 23v385q0 14 5.5 19t18.5 5z" />
    <glyph glyph-name="Uhungarumlaut" unicode="&#x170;" horiz-adv-x="685" 
d="M200 791l81 101q15 23 40 16l28 -9q25 -9 7 -27l-106 -100q-16 -15 -28 -10l-14 5q-21 6 -8 24zM366 788l86 104q17 24 40 16l30 -9q27 -11 8 -27l-113 -103q-17 -14 -29 -10l-14 5q-22 4 -8 24zM165 684v-442q0 -80 45.5 -123.5t131.5 -43.5t131.5 43.5t45.5 123.5v442
q0 14 6 20t21 6h44q14 0 20 -6t6 -20v-441q0 -122 -70.5 -190t-203.5 -68q-131 0 -202 68.5t-71 189.5v441q0 14 5.5 20t20.5 6h44q15 0 20.5 -6t5.5 -20z" />
    <glyph glyph-name="uhungarumlaut" unicode="&#x171;" 
d="M132 607l80 101q16 24 41 16l28 -9q24 -8 7 -26l-106 -100q-16 -15 -28 -10l-14 4q-21 6 -8 24zM297 605l88 103q16 22 40 16l30 -9q27 -10 7 -27l-114 -101q-16 -15 -29 -10l-14 4q-22 7 -8 24zM425 516h41q14 0 19 -5t5 -19v-417q0 -24 -7.5 -35t-30.5 -21
q-90 -34 -191 -34q-203 0 -203 198v309q0 14 5 19t19 5h42q23 0 23 -24v-306q0 -119 126 -119q56 0 113 17q15 8 15 23v385q0 14 5.5 19t18.5 5z" />
    <glyph glyph-name="Uogonek" unicode="&#x172;" horiz-adv-x="685" 
d="M546 710h44q14 0 20 -6t6 -20v-441q0 -135 -86 -203q-62 -57 -95 -112t-26 -83q9 -24 34 -24q24 0 40 16q11 8 15 -4l10 -26q5 -11 -1 -17q-38 -36 -92 -36q-70 0 -83 55q-9 36 14.5 86t71.5 99q-33 -9 -76 -9q-131 0 -202 68.5t-71 189.5v441q0 14 5.5 20t20.5 6h44
q15 0 20.5 -6t5.5 -20v-442q0 -80 45.5 -123.5t131.5 -43.5t131.5 43.5t45.5 123.5v442q0 14 6 20t21 6z" />
    <glyph glyph-name="uogonek" unicode="&#x173;" 
d="M425 516h41q14 0 19 -5t5 -19v-417q0 -28 -13 -41q-49 -53 -71 -108q-24 -55 -16 -81q8 -24 33 -24q24 0 40 16q11 8 15 -4l11 -26q5 -12 -2 -17q-36 -36 -92 -36q-70 0 -82 55q-10 37 12 91.5t67 101.5q-57 -17 -131 -17q-203 0 -203 198v309q0 14 5 19t19 5h42
q23 0 23 -24v-306q0 -119 126 -119q56 0 113 17q15 8 15 23v385q0 14 5.5 19t18.5 5z" />
    <glyph glyph-name="Wcircumflex" unicode="&#x174;" horiz-adv-x="890" 
d="M450 905h10q15 0 22.5 -3.5t21.5 -17.5l113 -103q17 -20 -12 -20h-35q-25 0 -39 14l-78 71l-81 -71q-14 -14 -37 -14h-33q-29 0 -12 20l114 103q14 15 21 18t25 3zM807 710h46q14 0 17.5 -5.5t0.5 -20.5l-173 -662q-5 -22 -33 -22h-42q-29 0 -33 21l-120 445
q-13 49 -18 104h-6q-5 -54 -19 -104l-121 -444q-6 -22 -33 -22h-42q-29 0 -33 21l-172 663q-4 14 -0.5 20t17.5 6h53q18 0 25 -4.5t10 -18.5l104 -433q10 -50 17 -120h5q12 88 21 119l118 426q8 23 35 23h42q29 0 35 -23l117 -426q15 -59 21 -119h5q7 76 18 118l103 435
q3 14 10 18.5t25 4.5z" />
    <glyph glyph-name="wcircumflex" unicode="&#x175;" horiz-adv-x="733" 
d="M370 720h9q15 0 22 -3t21 -17l110 -101q9 -7 6 -13t-17 -6h-34q-28 0 -38 13l-77 69l-79 -69q-13 -13 -36 -13h-32q-28 0 -12 19l111 101q14 14 21 17t25 3zM668 516h26q17 0 21 -6t-1 -22l-142 -469q-4 -21 -32 -21h-27q-27 0 -34 21l-89 295q-4 16 -8.5 38t-7.5 38
l-3 17h-4q0 -1 -3 -16t-7.5 -38t-8.5 -39l-89 -295q-6 -21 -33 -21h-26q-27 0 -33 21l-140 469q-6 16 -2 22t22 6h30q22 0 30.5 -4.5t11.5 -19.5l75 -271q5 -17 13 -66q6 -44 7 -46h4q2 6 9 47q9 49 14 66l82 262q5 16 12 20.5t28 4.5h18q20 0 27 -4.5t12 -19.5l83 -261
q10 -37 16 -70q7 -41 7 -45h5q1 1 7 44q5 42 12 70l75 269q4 15 12.5 19.5t30.5 4.5z" />
    <glyph glyph-name="Ycircumflex" unicode="&#x176;" horiz-adv-x="634" 
d="M320 905h9q15 0 22.5 -3.5t21.5 -17.5l113 -103q17 -20 -12 -20h-35q-25 0 -39 14l-78 71l-80 -71q-14 -14 -37 -14h-33q-30 0 -12 20l113 103q15 15 22 18t25 3zM558 710h50q29 0 14 -26l-254 -400v-258q0 -14 -5.5 -20t-20.5 -6h-44q-15 0 -20.5 6t-5.5 20v260
l-254 398q-7 10 -3.5 18t17.5 8h54q25 0 33.5 -4t17.5 -19l184 -303l186 303q9 16 17.5 19.5t33.5 3.5z" />
    <glyph glyph-name="ycircumflex" unicode="&#x177;" horiz-adv-x="553" 
d="M274 720h10q15 0 22 -3t21 -17l110 -101q16 -19 -11 -19h-35q-26 0 -38 13l-76 69l-79 -69q-13 -13 -36 -13h-32q-28 0 -12 19l111 101q14 14 21 17t24 3zM428 516h41q14 0 19 -5t5 -19v-517q0 -216 -216 -216q-145 0 -203 102q-16 24 10 38l29 16q14 7 22 5t17 -14
q39 -67 124 -67q128 0 128 132v54q-76 -21 -140 -21q-203 0 -203 198v290q0 14 5 19t19 5h42q23 0 23 -24v-287q0 -119 126 -119q60 0 128 21v385q0 14 5.5 19t18.5 5z" />
    <glyph glyph-name="Ydieresis" unicode="&#x178;" horiz-adv-x="634" 
d="M220 875h7q24 0 33 -9t9 -32v-9q0 -23 -9 -32t-33 -9h-7q-23 0 -32 9t-9 32v9q0 23 9 32t32 9zM418 875h6q23 0 32 -9t9 -32v-9q0 -23 -9 -32t-32 -9h-6q-25 0 -34 9t-9 32v9q0 23 9.5 32t33.5 9zM558 710h50q29 0 14 -26l-254 -400v-258q0 -14 -5.5 -20t-20.5 -6h-44
q-15 0 -20.5 6t-5.5 20v260l-254 398q-7 10 -3.5 18t17.5 8h54q25 0 33.5 -4t17.5 -19l184 -303l186 303q9 16 17.5 19.5t33.5 3.5z" />
    <glyph glyph-name="Zacute" unicode="&#x179;" horiz-adv-x="576" 
d="M185 805l155 95q28 16 44 -1l20 -24q16 -19 -3 -28l-176 -83q-23 -9 -30 1l-12 15q-13 16 2 25zM64 710h446q14 0 20 -6t6 -20v-37q0 -17 -9 -28l-373 -529h364q15 0 20.5 -5.5t5.5 -20.5v-38q0 -14 -5.5 -20t-20.5 -6h-458q-15 0 -21 6t-6 20v37q0 16 10 29l372 528
h-351q-14 0 -20 6t-6 20v38q0 14 6 20t20 6z" />
    <glyph glyph-name="zacute" unicode="&#x17a;" horiz-adv-x="463" 
d="M123 629l155 95q30 15 45 -2l19 -24q16 -20 -3 -27l-176 -84q-23 -9 -30 1l-11 15q-14 17 1 26zM144 81h265q23 0 23 -24v-33q0 -24 -23 -24h-355q-14 0 -19 5t-5 19v33q0 13 9 25l273 353h-254q-23 0 -23 24v33q0 24 23 24h346q14 0 19 -5t5 -19v-33q0 -12 -9 -27z" />
    <glyph glyph-name="Zdotaccent" unicode="&#x17b;" horiz-adv-x="576" 
d="M291 874h5q25 0 34 -9t9 -34v-7q0 -25 -9 -34t-34 -9h-5q-25 0 -34 9t-9 34v7q0 25 9 34t34 9zM64 710h446q14 0 20 -6t6 -20v-37q0 -17 -9 -28l-373 -529h364q15 0 20.5 -5.5t5.5 -20.5v-38q0 -14 -5.5 -20t-20.5 -6h-458q-15 0 -21 6t-6 20v37q0 16 10 29l372 528h-351
q-14 0 -20 6t-6 20v38q0 14 6 20t20 6z" />
    <glyph glyph-name="zdotaccent" unicode="&#x17c;" horiz-adv-x="463" 
d="M229 696h5q25 0 34 -9t9 -34v-7q0 -25 -9 -34t-34 -9h-5q-25 0 -34 9t-9 34v7q0 25 9 34t34 9zM144 81h265q23 0 23 -24v-33q0 -24 -23 -24h-355q-14 0 -19 5t-5 19v33q0 13 9 25l273 353h-254q-23 0 -23 24v33q0 24 23 24h346q14 0 19 -5t5 -19v-33q0 -12 -9 -27z" />
    <glyph glyph-name="Zcaron" unicode="&#x17d;" horiz-adv-x="576" 
d="M408 904h35q14 0 17 -6t-6 -14l-112 -103q-15 -14 -22.5 -17.5t-21.5 -3.5h-10q-18 0 -25 3t-21 18l-113 103q-9 8 -6 14t17 6h33q23 0 37 -14l81 -71l78 71q14 14 39 14zM64 710h446q14 0 20 -6t6 -20v-37q0 -17 -9 -28l-373 -529h364q15 0 20.5 -5.5t5.5 -20.5v-38
q0 -14 -5.5 -20t-20.5 -6h-458q-15 0 -21 6t-6 20v37q0 16 10 29l372 528h-351q-14 0 -20 6t-6 20v38q0 14 6 20t20 6z" />
    <glyph glyph-name="zcaron" unicode="&#x17e;" horiz-adv-x="463" 
d="M334 704h32q13 0 15.5 -5.5t-5.5 -12.5l-101 -93q-13 -13 -19.5 -16t-19.5 -3h-9q-16 0 -23 3t-19 16l-102 93q-16 18 10 18h30q21 0 34 -12l72 -65l71 65q10 12 34 12zM144 81h265q23 0 23 -24v-33q0 -24 -23 -24h-355q-14 0 -19 5t-5 19v33q0 13 9 25l273 353h-254
q-23 0 -23 24v33q0 24 23 24h346q14 0 19 -5t5 -19v-33q0 -12 -9 -27z" />
    <glyph glyph-name="longs" unicode="&#x17f;" horiz-adv-x="276" 
d="M103 516v19q0 106 52.5 155.5t166.5 49.5q14 0 19 -5t5 -19v-35q0 -13 -5 -18.5t-19 -5.5q-71 0 -100 -29.5t-29 -99.5v-504q0 -14 -5.5 -19t-19.5 -5h-40q-14 0 -19.5 5t-5.5 19v409h-69q-23 0 -23 24v35q0 24 23 24h69z" />
    <glyph glyph-name="florin" unicode="&#x192;" horiz-adv-x="452" 
d="M179 399l13 131q12 106 65 158t158 52q13 0 18.5 -5t5.5 -19v-35q0 -24 -24 -24q-65 0 -95.5 -32t-37.5 -99l-14 -127h122q14 0 19 -5.5t5 -18.5v-35q0 -14 -5 -19t-19 -5h-130l-35 -325q-10 -105 -63.5 -158t-158.5 -53q-14 0 -19.5 5t-5.5 19v35q0 14 5.5 19t19.5 5
q64 0 95 32.5t38 98.5l34 322h-115q-13 0 -18.5 5t-5.5 19v35q0 24 24 24h124z" />
    <glyph glyph-name="Aringacute" unicode="&#x1fa;" horiz-adv-x="648" 
d="M245 895l140 64q26 13 42 -1l18 -19q14 -14 -4 -19l-165 -60q-20 -7 -28 1l-11 11q-11 13 8 23zM228 745q0 45 30.5 74t77.5 29q46 0 75.5 -29t29.5 -74q0 -53 -48 -75l254 -644q11 -26 -17 -26h-40q-24 0 -33.5 4.5t-14.5 18.5l-63 166h-293l-64 -166
q-5 -14 -14.5 -18.5t-33.5 -4.5h-35q-28 0 -17 26l255 644q-49 22 -49 75zM391 748q0 24 -15.5 39t-39.5 15q-26 0 -42 -15t-16 -39q0 -22 16.5 -36.5t41.5 -14.5q24 0 39.5 14.5t15.5 36.5zM451 269l-79 215q-14 34 -24 84q-12 50 -13 52h-6q-1 0 -11 -50q-10 -48 -23 -85
l-81 -216h237z" />
    <glyph glyph-name="aringacute" unicode="&#x1fb;" horiz-adv-x="516" 
d="M154 824l146 71q27 12 41 -2l18 -17q16 -15 -3 -21l-164 -62q-21 -6 -28 1l-11 11q-13 13 1 19zM152 671q0 46 29.5 74t76.5 28q46 0 74.5 -28t28.5 -74q0 -45 -28.5 -73t-74.5 -28q-47 0 -76.5 28t-29.5 73zM300 631q25 23 10.5 62t-52.5 35q-27 0 -43.5 -15.5
t-16.5 -41.5q0 -25 16.5 -40.5t43.5 -15.5q26 0 42 16zM52 426q54 105 203 105q109 0 158 -52t49 -150v-261q0 -26 -7.5 -37t-28.5 -20q-61 -26 -172 -26q-126 0 -172 39q-47 38 -47 120q0 86 51 121.5t172 35.5q58 0 114 -7v38q0 60 -27.5 89.5t-91.5 29.5q-87 0 -124 -61
q-10 -13 -14 -14.5t-19 2.5l-31 14q-25 10 -13 34zM372 94v126q-85 8 -124 8q-68 0 -95.5 -19.5t-27.5 -64.5q0 -44 26.5 -64t94.5 -20q76 0 111 12q15 6 15 22z" />
    <glyph glyph-name="AEacute" unicode="&#x1fc;" horiz-adv-x="843" 
d="M507 805l155 95q31 17 44 -1l20 -24q16 -19 -3 -28l-176 -83q-23 -9 -30 1l-11 15q-13 16 1 25zM524 90h267q15 0 20.5 -6t5.5 -20v-38q0 -14 -5.5 -20t-20.5 -6h-334q-15 0 -21 6t-6 20v137h-232l-83 -140q-9 -14 -18 -18.5t-31 -4.5h-41q-27 0 -18 26l412 662
q9 13 15 17.5t18 4.5h327q15 0 20.5 -6t5.5 -20v-38q0 -14 -5.5 -20t-20.5 -6h-255v-216h209q14 0 20 -5.5t6 -20.5v-37q0 -15 -6 -21t-20 -6h-209v-224zM430 243v305l-184 -305h184z" />
    <glyph glyph-name="aeacute" unicode="&#x1fd;" horiz-adv-x="793" 
d="M282 633l156 94q28 16 44 -1l19 -24q16 -19 -3 -28l-175 -83q-24 -9 -31 1l-11 15q-14 17 1 26zM53 426q54 105 187 105q108 0 150 -73q46 73 158 73q102 0 154.5 -55t52.5 -151v-59q0 -35 -36 -35h-288v-49q0 -119 116 -119q43 0 70.5 16.5t48.5 51.5q15 22 38 10
l28 -15q26 -14 9 -39q-30 -52 -75.5 -77t-119.5 -25q-93 0 -140 50q-65 -50 -168 -50q-115 0 -159 38t-44 120q0 87 46.5 122t160.5 35q40 0 99 -7v49q0 56 -23 82.5t-80 26.5q-71 0 -108 -61q-9 -12 -14.5 -14t-18.5 3l-31 13q-27 11 -13 34zM666 300v30q0 125 -118 125
q-117 0 -117 -125v-30h235zM341 158v62q-69 7 -108 7q-60 0 -83.5 -19.5t-23.5 -64.5q0 -44 22.5 -63.5t81.5 -19.5q39 0 67 8t38 16.5t10 15.5q-4 21 -4 58z" />
    <glyph glyph-name="Oslashacute" unicode="&#x1fe;" horiz-adv-x="666" 
d="M233 815l155 95q30 17 45 -1l19 -24q16 -19 -3 -28l-176 -83q-23 -9 -30 1l-11 15q-13 16 1 25zM570 752h52q10 0 5 -9l-66 -103q57 -66 57 -171v-228q0 -121 -73 -188t-207 -68q-104 0 -169 41l-37 -59q-6 -8 -18 -8h-51q-9 0 -5 10l61 96q-61 64 -61 176v228
q0 121 73 188.5t207 67.5q106 0 174 -45l41 64q6 8 17 8zM180 159l282 441q-50 35 -124 35q-88 0 -135.5 -43t-47.5 -123v-228q0 -51 25 -82zM500 545l-280 -439q46 -31 118 -31q88 0 135.5 43t47.5 123v228q0 46 -21 76z" />
    <glyph glyph-name="oslashacute" unicode="&#x1ff;" horiz-adv-x="541" 
d="M162 629l155 95q29 15 44 -2l20 -24q17 -20 -4 -27l-175 -84q-23 -9 -30 1l-12 15q-14 17 2 26zM440 552h36q8 0 4 -9l-41 -65q56 -51 56 -139v-163q0 -90 -59 -140.5t-166 -50.5q-72 0 -126 27l-25 -39q-6 -8 -18 -8h-35q-12 0 -4 9l41 65q-57 49 -57 137v163
q0 90 59.5 141t164.5 51q77 0 128 -27l26 40q6 8 16 8zM157 123l195 308q-34 19 -82 19q-63 0 -99 -29t-36 -81v-164q0 -31 22 -53zM385 393l-196 -308q34 -19 81 -19q64 0 100 29t36 81v164q0 32 -21 53z" />
    <glyph glyph-name="Scommaaccent" unicode="&#x218;" horiz-adv-x="629" 
d="M51 513q0 97 70.5 154.5t195.5 57.5q101 0 162 -36.5t100 -116.5q12 -24 -14 -35l-42 -19q-14 -6 -20.5 -3.5t-13.5 16.5q-28 53 -67.5 77t-104.5 24q-167 0 -167 -113q0 -70 82 -95q39 -13 110 -20q90 -11 139 -30q35 -14 59 -35q53 -49 53 -137q0 -102 -72.5 -159.5
t-204.5 -57.5q-109 0 -174 41.5t-99 129.5q-5 14 -1.5 21.5t18.5 12.5l41 15q23 10 34 -16q50 -113 181 -113q180 0 180 124q0 61 -55 85q-42 17 -122 27q-65 6 -123 21q-33 7 -58 22q-92 50 -87 158zM379 -96l-47 -138q-7 -22 -28 -22h-29q-19 0 -15 17l27 143q1 15 7 20
t22 5h40q17 0 22 -6t1 -19z" />
    <glyph glyph-name="scommaaccent" unicode="&#x219;" horiz-adv-x="500" 
d="M52 376q0 73 52 114t149 41q159 0 209 -108q12 -24 -12 -35l-34 -14q-15 -5 -19.5 -3.5t-13.5 14.5q-16 33 -46 49t-82 16q-114 0 -114 -72q0 -42 29.5 -57.5t106.5 -21.5q101 -11 149 -41q49 -31 49 -113q0 -75 -54 -117.5t-155 -42.5q-172 0 -219 123q-11 24 15 32
l34 12q22 7 32 -15q28 -72 135 -72q125 0 125 76q0 40 -29 56t-104 23q-68 7 -114 23q-32 11 -47 26q-42 37 -42 107zM315 -75l-38 -125q-9 -22 -30 -22h-24q-11 0 -14.5 4t-2.5 15l24 128q2 16 8.5 22t22.5 6h34q30 0 20 -28z" />
    <glyph glyph-name="uni021A" unicode="&#x21a;" horiz-adv-x="554" 
d="M40 710h474q14 0 20 -6t6 -20v-38q0 -14 -6 -20t-20 -6h-189v-594q0 -14 -5.5 -20t-20.5 -6h-44q-15 0 -20.5 6t-5.5 20v594h-189q-15 0 -20.5 6t-5.5 20v38q0 14 5.5 20t20.5 6zM327 -92l-47 -138q-7 -23 -28 -23h-28q-12 0 -15 3.5t-1 14.5l27 143q1 15 7.5 20t21.5 5
h40q32 0 23 -25z" />
    <glyph glyph-name="uni021B" unicode="&#x21b;" horiz-adv-x="372" 
d="M137 636h42q13 0 18.5 -5t5.5 -19v-96h131q23 0 23 -24v-35q0 -24 -23 -24h-131v-233q0 -78 27 -104q28 -26 102 -26q14 0 19.5 -5t5.5 -19v-36q0 -13 -5.5 -18t-19.5 -6q-122 -3 -169 43q-49 45 -49 169v235h-83q-24 0 -24 24v35q0 14 5.5 19t18.5 5h83v96q0 14 5 19
t18 5zM273 -92l-46 -138q-8 -23 -28 -23h-29q-10 0 -13.5 3.5t-2.5 14.5l28 143q1 15 7.5 20t21.5 5h40q31 0 22 -25z" />
    <glyph glyph-name="dotlessj" unicode="&#x237;" horiz-adv-x="215" 
d="M87 516h41q14 0 19 -5t5 -19v-500q0 -111 -52.5 -166.5t-164.5 -55.5q-13 0 -18.5 5t-5.5 19v35q0 24 24 24q68 0 98 34.5t30 106.5v498q0 14 5.5 19t18.5 5z" />
    <glyph glyph-name="circumflex" unicode="&#x2c6;" horiz-adv-x="385" 
d="M189 729h10q15 0 22.5 -3.5t21.5 -17.5l113 -103q9 -7 5.5 -13.5t-17.5 -6.5h-35q-25 0 -39 14l-78 71l-81 -71q-14 -14 -37 -14h-33q-14 0 -17 6.5t6 13.5l113 103q14 15 21 18t25 3z" />
    <glyph glyph-name="caron" unicode="&#x2c7;" horiz-adv-x="332" 
d="M283 728h35q14 0 17 -6t-6 -14l-112 -103q-14 -14 -21.5 -17.5t-22.5 -3.5h-10q-18 0 -25 3t-21 18l-113 103q-9 8 -6.5 14t16.5 6h34q23 0 37 -14l81 -71l78 71q14 14 39 14z" />
    <glyph glyph-name="breve" unicode="&#x2d8;" horiz-adv-x="287" 
d="M298 693q-34 -106 -154 -106q-121 0 -152 106q-6 18 10 22l31 12q19 4 25 -8q18 -66 86 -66t87 66q6 14 20 9l36 -13q15 -7 11 -22z" />
    <glyph glyph-name="dotaccent" unicode="&#x2d9;" horiz-adv-x="216" 
d="M105 699h6q25 0 34 -8.5t9 -33.5v-7q0 -25 -9 -34t-34 -9h-6q-25 0 -34 9t-9 34v7q0 25 9 33.5t34 8.5z" />
    <glyph glyph-name="ring" unicode="&#x2da;" horiz-adv-x="240" 
d="M16 653q0 46 29.5 74.5t76.5 28.5q46 0 74.5 -28.5t28.5 -74.5q0 -45 -28.5 -73t-74.5 -28q-47 0 -76.5 28t-29.5 73zM179 653q0 26 -15.5 41.5t-41.5 15.5q-27 0 -43.5 -15.5t-16.5 -41.5q0 -25 16.5 -40.5t43.5 -15.5q25 0 41 15.5t16 40.5z" />
    <glyph glyph-name="ogonek" unicode="&#x2db;" horiz-adv-x="252" 
d="M143 0h60q-44 -47 -64.5 -89t-12.5 -66t33 -24q24 0 40 16q11 8 15 -4l11 -26q5 -12 -2 -17q-36 -36 -92 -36q-70 0 -82 55q-11 40 14 91.5t80 99.5z" />
    <glyph glyph-name="tilde" unicode="&#x2dc;" horiz-adv-x="305" 
d="M266 718h25q15 0 15 -15q0 -55 -19.5 -80t-61.5 -25q-35 0 -75 31t-63 31q-33 0 -33 -47q0 -15 -14 -15h-26q-15 0 -15 15q0 105 80 105q39 0 79 -31q41 -32 61 -32q33 0 33 48q0 15 14 15z" />
    <glyph glyph-name="hungarumlaut" unicode="&#x2dd;" horiz-adv-x="395" 
d="M68 611l81 101q15 23 40 16l28 -9q25 -9 7 -27l-105 -99q-16 -14 -29 -10l-14 4q-21 6 -8 24zM234 609l87 102q17 24 40 16l30 -9q27 -10 7 -26l-114 -102q-18 -14 -28 -10l-14 5q-21 6 -8 24z" />
    <glyph glyph-name="uni0326" unicode="&#x326;" horiz-adv-x="0" 
d="M183 -92l-47 -138q-8 -23 -27 -23h-29q-10 0 -13.5 3.5t-2.5 14.5l28 143q1 15 7 20t21 5h41q31 0 22 -25z" />
    <glyph glyph-name="pi" unicode="&#x3c0;" horiz-adv-x="629" 
d="M177 516h416q14 0 19 -5t5 -19v-34q0 -24 -24 -24h-45v-286q0 -57 22 -98q12 -26 -13 -36l-34 -14q-23 -11 -34 13q-30 56 -30 139v282h-224v-410q0 -14 -5 -19t-19 -5h-42q-23 0 -23 24v410q-40 -2 -81 -23q-23 -11 -31 10l-14 33q-10 21 11 31q59 31 146 31z" />
    <glyph glyph-name="uni0401" unicode="&#x401;" horiz-adv-x="576" 
d="M201 867h7q24 0 33 -9t9 -32v-9q0 -23 -9 -32t-33 -9h-7q-23 0 -32 9t-9 32v9q0 23 9 32t32 9zM399 867h6q23 0 32.5 -9t9.5 -32v-9q0 -23 -9.5 -32t-32.5 -9h-6q-25 0 -34 9t-9 32v9q0 23 9 32t34 9zM100 710h402q15 0 20.5 -6t5.5 -20v-38q0 -14 -5.5 -20t-20.5 -6
h-331v-215h285q15 0 20.5 -6t5.5 -21v-37q0 -15 -5.5 -20.5t-20.5 -5.5h-285v-225h343q15 0 20.5 -6t5.5 -20v-38q0 -14 -5.5 -20t-20.5 -6h-414q-14 0 -20 6t-6 20v658q0 14 6 20t20 6z" />
    <glyph glyph-name="uni0410" unicode="&#x410;" horiz-adv-x="649" 
d="M386 691l260 -665q9 -26 -18 -26h-39q-24 0 -33.5 4.5t-14.5 18.5l-62 163h-296l-62 -163q-5 -14 -14.5 -18.5t-33.5 -4.5h-35q-27 0 -18 26l260 664q7 22 33 22h40q25 0 33 -21zM452 265l-100 263q-18 52 -18 94h-6l-1 -14q-2 -38 -16 -79l-101 -264h242z" />
    <glyph glyph-name="uni0411" unicode="&#x411;" horiz-adv-x="631" 
d="M100 710h423q15 0 21 -6t6 -20v-38q0 -14 -6 -20t-21 -6h-352v-199h215q99 0 156.5 -56t57.5 -154t-57.5 -154.5t-156.5 -56.5h-286q-14 0 -20 5.5t-6 19.5v659q0 14 6 20t20 6zM467 123q32 32 32 88t-32 88q-34 32 -91 32h-205v-241h205q58 0 91 33z" />
    <glyph glyph-name="uni0412" unicode="&#x412;" horiz-adv-x="647" 
d="M100 710h280q94 0 146.5 -47.5t52.5 -136.5q0 -114 -86 -156v-3q112 -33 112 -174q0 -91 -58.5 -142t-157.5 -51h-289q-14 0 -20 6t-6 20v658q0 14 6 20t20 6zM480 512q0 108 -111 108h-198v-215h198q111 0 111 107zM502 203q0 55 -30 84.5t-86 29.5h-215v-227h215
q116 0 116 113z" />
    <glyph glyph-name="uni0413" unicode="&#x413;" horiz-adv-x="515" 
d="M100 710h374q15 0 20.5 -6t5.5 -20v-38q0 -14 -5.5 -20t-20.5 -6h-303v-594q0 -14 -6 -20t-21 -6h-44q-14 0 -20 6t-6 20v658q0 14 6 20t20 6z" />
    <glyph glyph-name="uni0414" unicode="&#x414;" horiz-adv-x="724" 
d="M197 710h397q15 0 21 -6t6 -20v-594h58q15 0 20.5 -6t5.5 -20v-191q0 -14 -5.5 -20t-20.5 -6h-42q-15 0 -21 6t-6 20v127h-499v-127q0 -14 -5.5 -20t-20.5 -6h-42q-15 0 -20.5 6t-5.5 20v191q0 14 5.5 20t20.5 6h30q40 28 65 94q33 86 33 295v205q0 14 6 20t20 6z
M524 620h-260v-141q0 -288 -77 -389h337v530z" />
    <glyph glyph-name="uni0415" unicode="&#x415;" horiz-adv-x="576" 
d="M100 710h402q15 0 20.5 -6t5.5 -20v-38q0 -14 -5.5 -20t-20.5 -6h-331v-215h285q15 0 20.5 -6t5.5 -21v-37q0 -15 -5.5 -20.5t-20.5 -5.5h-285v-225h343q15 0 20.5 -6t5.5 -20v-38q0 -14 -5.5 -20t-20.5 -6h-414q-14 0 -20 6t-6 20v658q0 14 6 20t20 6z" />
    <glyph glyph-name="uni0416" unicode="&#x416;" horiz-adv-x="928" 
d="M849 710h49q14 0 18 -8t-5 -17l-208 -311q55 -27 93 -102l126 -245q14 -27 -13 -27h-44q-25 0 -35.5 4.5t-17.5 18.5l-106 214q-22 45 -50 62t-83 17h-47v-290q0 -14 -5.5 -20t-20.5 -6h-44q-15 0 -20.5 6t-5.5 20v290h-47q-55 0 -83 -17t-50 -62l-106 -214
q-7 -14 -17.5 -18.5t-35.5 -4.5h-44q-27 0 -13 27l127 245q36 73 92 102l-208 311q-7 10 -4 17.5t17 7.5h49q25 0 34.5 -3.5t18.5 -18.5l185 -286q18 2 38 2h47v280q0 14 5.5 20t20.5 6h44q15 0 20.5 -6t5.5 -20v-280h47q22 0 38 -2l186 286q9 14 18.5 18t33.5 4z" />
    <glyph glyph-name="uni0417" unicode="&#x417;" horiz-adv-x="627" 
d="M571 523q0 -113 -86 -154q108 -41 108 -173q0 -101 -65.5 -156t-192.5 -55q-234 0 -289 172q-9 24 16 34l42 15q24 8 33 -17q21 -60 66.5 -87t131.5 -27q156 0 156 125q0 55 -29.5 86.5t-85.5 31.5h-157q-15 0 -21 5.5t-6 20.5v35q0 15 6 20.5t21 5.5h146q52 0 80 30
t28 80q0 120 -144 120q-81 0 -124 -26.5t-62 -85.5q-5 -14 -12 -17t-21 1l-42 15q-26 9 -16 33q28 86 96.5 128t186.5 42q114 0 175 -52.5t61 -149.5z" />
    <glyph glyph-name="uni0418" unicode="&#x418;" horiz-adv-x="696" 
d="M551 710h45q15 0 20.5 -6t5.5 -20v-658q0 -14 -5.5 -20t-20.5 -6h-44q-15 0 -20.5 6t-5.5 20v348q0 112 18 215h-4q-36 -79 -103 -183l-265 -393q-9 -13 -27 -13h-45q-14 0 -20 6t-6 20v658q0 14 6 20t20 6h44q15 0 21 -6t6 -20v-341q0 -108 -18 -222h3q38 83 109 192
l260 384q7 13 26 13z" />
    <glyph glyph-name="uni0419" unicode="&#x419;" horiz-adv-x="696" 
d="M519 871q-38 -107 -168 -107q-129 0 -167 107q-4 16 12 23l34 12q20 4 27 -9q21 -67 94 -67q74 0 96 67q6 14 22 10l39 -13q17 -8 11 -23zM551 710h45q15 0 20.5 -6t5.5 -20v-658q0 -14 -5.5 -20t-20.5 -6h-44q-15 0 -20.5 6t-5.5 20v348q0 112 18 215h-4
q-36 -79 -103 -183l-265 -393q-9 -13 -27 -13h-45q-14 0 -20 6t-6 20v658q0 14 6 20t20 6h44q15 0 21 -6t6 -20v-341q0 -108 -18 -222h3q38 83 109 192l260 384q7 13 26 13z" />
    <glyph glyph-name="uni041A" unicode="&#x41a;" horiz-adv-x="617" 
d="M471 272l127 -245q14 -27 -14 -27h-44q-24 0 -34.5 4.5t-17.5 18.5l-106 214q-24 46 -51.5 62.5t-81.5 16.5h-78v-290q0 -14 -6 -20t-21 -6h-44q-14 0 -20 6t-6 20v658q0 14 6 20t20 6h44q15 0 21 -6t6 -20v-280h70h18l213 284q11 14 20.5 18t32.5 4h49q13 0 17 -8
t-4 -17l-231 -300q71 -24 115 -113z" />
    <glyph glyph-name="uni041B" unicode="&#x41b;" horiz-adv-x="665" 
d="M184 710h392q15 0 21 -6t6 -20v-658q0 -14 -6 -20t-21 -6h-44q-14 0 -20 6t-6 20v594h-253v-156q4 -238 -54 -358q-22 -51 -78 -90q-19 -13 -47 -26q-25 -10 -35 12l-20 38q-12 26 13 36q20 10 28 14.5t19 15.5t24 28q17 23 29 64q26 102 26 266v220q0 14 6 20t20 6z" />
    <glyph glyph-name="uni041C" unicode="&#x41c;" horiz-adv-x="805" 
d="M667 710h38q14 0 20 -6t6 -20v-658q0 -14 -6 -20t-20 -6h-40q-15 0 -20.5 6t-5.5 20v361q0 83 18 188h-5q-28 -76 -80 -168l-127 -226q-10 -19 -31 -19h-25q-21 0 -31 19l-129 228q-44 76 -75 166h-6q16 -92 16 -188v-361q0 -14 -5.5 -20t-20.5 -6h-38q-14 0 -20 6t-6 20
v658q0 14 6 20t20 6h35q26 0 37 -20l230 -409l229 408q7 13 13.5 17t22.5 4z" />
    <glyph glyph-name="uni041D" unicode="&#x41d;" horiz-adv-x="683" 
d="M539 710h44q15 0 20.5 -6t5.5 -20v-658q0 -14 -5.5 -20t-20.5 -6h-44q-15 0 -20.5 6t-5.5 20v289h-342v-289q0 -14 -6 -20t-21 -6h-44q-14 0 -20 6t-6 20v658q0 14 6 20t20 6h44q15 0 21 -6t6 -20v-279h342v279q0 14 5.5 20t20.5 6z" />
    <glyph glyph-name="uni041E" unicode="&#x41e;" horiz-adv-x="666" 
d="M53 241v228q0 121 73 188.5t207 67.5t207 -67.5t73 -188.5v-228q0 -121 -73 -188.5t-207 -67.5t-207 67.5t-73 188.5zM516 241v228q0 80 -47.5 123t-135.5 43t-135.5 -43t-47.5 -123v-228q0 -80 47.5 -123t135.5 -43t135.5 43t47.5 123z" />
    <glyph glyph-name="uni041F" unicode="&#x41f;" horiz-adv-x="678" 
d="M100 710h477q15 0 21 -6t6 -20v-658q0 -14 -6 -20t-21 -6h-44q-14 0 -20 6t-6 20v594h-336v-594q0 -14 -6 -20t-21 -6h-44q-14 0 -20 6t-6 20v658q0 14 6 20t20 6z" />
    <glyph glyph-name="uni0420" unicode="&#x420;" horiz-adv-x="627" 
d="M100 710h267q106 0 168 -61t62 -166t-61.5 -165t-168.5 -60h-196v-232q0 -14 -6 -20t-21 -6h-44q-14 0 -20 6t-6 20v658q0 14 6 20t20 6zM171 348h187q65 0 101.5 35.5t36.5 99.5t-36.5 100.5t-101.5 36.5h-187v-272z" />
    <glyph glyph-name="uni0421" unicode="&#x421;" horiz-adv-x="638" 
d="M53 241v228q0 121 73 188.5t207 67.5q213 0 269 -170q7 -25 -17 -34l-41 -14q-14 -5 -21.5 -1.5t-12.5 17.5q-19 58 -61 85t-116 27q-89 0 -136 -43t-47 -122v-230q0 -78 48 -121.5t135 -43.5q74 0 116.5 28t61.5 86q5 15 12.5 18.5t21.5 -1.5l41 -15q26 -8 17 -34
q-55 -172 -270 -172q-134 0 -207 67.5t-73 188.5z" />
    <glyph glyph-name="uni0422" unicode="&#x422;" horiz-adv-x="554" 
d="M40 710h474q14 0 20 -6t6 -20v-38q0 -14 -6 -20t-20 -6h-189v-594q0 -14 -5.5 -20t-20.5 -6h-44q-15 0 -20.5 6t-5.5 20v594h-189q-15 0 -20.5 6t-5.5 20v38q0 14 5.5 20t20.5 6z" />
    <glyph glyph-name="uni0423" unicode="&#x423;" horiz-adv-x="602" 
d="M547 710h44q25 0 14 -26l-316 -661q-6 -14 -14 -18.5t-29 -4.5h-52q-27 0 -13 26l90 179l-249 479q-14 26 13 26h45q26 0 33.5 -3t17.5 -20l191 -374l178 374q7 15 15 19t32 4z" />
    <glyph glyph-name="uni0424" unicode="&#x424;" horiz-adv-x="831" 
d="M394 735h44q14 0 20 -6t6 -20v-59h58q130 0 200 -66.5t70 -187.5v-77q0 -121 -70 -187.5t-200 -66.5h-58v-59q0 -14 -6 -20t-20 -6h-44q-15 0 -21 6t-6 20v59h-58q-130 0 -200 66.5t-70 187.5v77q0 121 70 187.5t200 66.5h58v59q0 14 6 20t21 6zM367 563h-58
q-84 0 -128.5 -42t-44.5 -121v-85q0 -79 44.5 -121t128.5 -42h58v411zM695 315v85q0 79 -44.5 121t-128.5 42h-58v-411h58q84 0 128.5 42t44.5 121z" />
    <glyph glyph-name="uni0425" unicode="&#x425;" horiz-adv-x="627" 
d="M377 362l235 -335q9 -10 5.5 -18.5t-18.5 -8.5h-54q-23 0 -32 4t-19 19l-182 264l-177 -264q-10 -16 -18.5 -19.5t-32.5 -3.5h-50q-14 0 -17.5 8t4.5 19l234 334l-226 324q-8 9 -4 17t17 8h52q23 0 31.5 -3.5t19.5 -18.5l172 -250l172 250q11 15 19 18.5t29 3.5h54
q12 0 16 -8t-3 -17z" />
    <glyph glyph-name="uni0426" unicode="&#x426;" horiz-adv-x="703" 
d="M599 90h57q15 0 20.5 -6t5.5 -20v-191q0 -14 -5.5 -20t-20.5 -6h-41q-14 0 -20 6t-6 20v127h-489q-14 0 -20 6t-6 20v658q0 14 6 20t20 6h44q15 0 21 -6t6 -20v-594h332v594q0 14 5.5 20t20.5 6h44q15 0 20.5 -6t5.5 -20v-594z" />
    <glyph glyph-name="uni0427" unicode="&#x427;" horiz-adv-x="635" 
d="M490 710h45q14 0 20 -6t6 -20v-658q0 -14 -6 -20t-20 -6h-45q-14 0 -20 6t-6 20v254q-74 -17 -169 -17q-133 0 -195 61t-62 184v176q0 14 6 20t21 6h44q14 0 20 -6t6 -20v-176q0 -78 39.5 -116.5t125.5 -38.5q104 0 164 19v312q0 14 6 20t20 6z" />
    <glyph glyph-name="uni0428" unicode="&#x428;" horiz-adv-x="918" 
d="M774 710h44q15 0 20.5 -6t5.5 -20v-658q0 -14 -5.5 -20t-20.5 -6h-718q-14 0 -20 6t-6 20v658q0 14 6 20t20 6h44q15 0 21 -6t6 -20v-594h240v594q0 14 6 20t20 6h44q15 0 21 -6t6 -20v-594h240v594q0 14 5.5 20t20.5 6z" />
    <glyph glyph-name="uni0429" unicode="&#x429;" horiz-adv-x="948" 
d="M844 90h58q14 0 20 -6t6 -20v-191q0 -14 -6 -20t-20 -6h-41q-14 0 -20 6t-6 20v127h-735q-14 0 -20 6t-6 20v658q0 14 6 20t20 6h44q15 0 21 -6t6 -20v-594h240v594q0 14 6 20t20 6h44q15 0 21 -6t6 -20v-594h240v594q0 14 5.5 20t20.5 6h44q15 0 20.5 -6t5.5 -20v-594z
" />
    <glyph glyph-name="uni042A" unicode="&#x42a;" horiz-adv-x="736" 
d="M280 452h196q107 0 168.5 -60t61.5 -165t-62 -166t-168 -61h-267q-14 0 -20 6t-6 20v594h-143q-15 0 -20.5 6t-5.5 20v38q0 14 5.5 20t20.5 6h213q15 0 21 -6t6 -20v-232zM280 90h187q65 0 102 36.5t37 100.5t-37 99.5t-102 35.5h-187v-272z" />
    <glyph glyph-name="uni042B" unicode="&#x42b;" horiz-adv-x="882" 
d="M367 0h-267q-14 0 -20 6t-6 20v658q0 14 6 20t20 6h44q15 0 21 -6t6 -20v-232h196q107 0 168.5 -60t61.5 -165t-62 -166t-168 -61zM712 26v658q0 14 5.5 20t20.5 6h44q15 0 20.5 -6t5.5 -20v-658q0 -14 -5.5 -20t-20.5 -6h-44q-15 0 -20.5 6t-5.5 20zM358 362h-187v-272
h187q65 0 101.5 36.5t36.5 100.5t-36.5 99.5t-101.5 35.5z" />
    <glyph glyph-name="uni042C" unicode="&#x42c;" horiz-adv-x="627" 
d="M367 0h-267q-14 0 -20 6t-6 20v658q0 14 6 20t20 6h44q15 0 21 -6t6 -20v-232h196q107 0 168.5 -60t61.5 -165t-62 -166t-168 -61zM358 362h-187v-272h187q65 0 101.5 36.5t36.5 100.5t-36.5 99.5t-101.5 35.5z" />
    <glyph glyph-name="uni042D" unicode="&#x42d;" horiz-adv-x="642" 
d="M48 555q57 170 269 170q134 0 207 -67.5t73 -187.5v-229q0 -121 -73 -188.5t-207 -67.5q-212 0 -270 172q-7 25 17 34l41 15q25 7 34 -17q19 -58 61.5 -86t116.5 -28q87 0 135 43.5t48 121.5v74h-274q-15 0 -20.5 6t-5.5 21v37q0 15 5.5 20.5t20.5 5.5h274v67
q0 78 -47 121t-136 43q-74 0 -116 -27t-61 -85q-5 -14 -12.5 -17t-21.5 1l-41 15q-25 7 -17 33z" />
    <glyph glyph-name="uni042E" unicode="&#x42e;" horiz-adv-x="929" 
d="M328 405v65q0 120 71.5 187.5t202.5 67.5t202.5 -67.5t71.5 -187.5v-230q0 -120 -71.5 -187.5t-202.5 -67.5t-202.5 67.5t-71.5 187.5v75h-157v-289q0 -14 -6 -20t-21 -6h-44q-14 0 -20 6t-6 20v658q0 14 6 20t20 6h44q15 0 21 -6t6 -20v-279h157zM779 240v230
q0 79 -45.5 122t-131.5 43t-131.5 -43t-45.5 -122v-230q0 -79 45.5 -122t131.5 -43t131.5 43t45.5 122z" />
    <glyph glyph-name="uni042F" unicode="&#x42f;" horiz-adv-x="646" 
d="M60 497q0 101 57.5 157t159.5 56h280q15 0 20.5 -6t5.5 -20v-658q0 -14 -5.5 -20t-20.5 -6h-44q-15 0 -20.5 6t-5.5 20v259h-111q-55 0 -83 -17t-48 -62l-84 -183q-6 -15 -15.5 -19t-36.5 -4h-44q-26 0 -14 27l104 215q21 40 47 57q-68 17 -105 68t-37 130zM487 620h-201
q-60 0 -92.5 -32t-32.5 -91q0 -58 33 -90t92 -32h201v245z" />
    <glyph glyph-name="uni0430" unicode="&#x430;" horiz-adv-x="516" 
d="M52 426q54 105 203 105q109 0 158 -52t49 -150v-261q0 -26 -7.5 -37t-28.5 -20q-61 -26 -172 -26q-126 0 -172 39q-47 38 -47 120q0 86 51 121.5t172 35.5q58 0 114 -7v38q0 60 -27.5 89.5t-91.5 29.5q-87 0 -124 -61q-10 -13 -14 -14.5t-19 2.5l-31 14q-25 10 -13 34z
M372 94v126q-85 8 -124 8q-68 0 -95.5 -19.5t-27.5 -64.5q0 -44 26.5 -64t94.5 -20q76 0 111 12q15 6 15 22z" />
    <glyph glyph-name="uni0431" unicode="&#x431;" horiz-adv-x="554" 
d="M331 731h33q50 0 75 12q24 12 34 -15l11 -31q8 -23 -15 -33q-31 -16 -103 -16h-34q-110 0 -151 -42q-40 -43 -40 -154v-19q48 72 161 72q98 0 152.5 -53t54.5 -147v-121q0 -95 -58 -147t-168 -52q-108 0 -166.5 52.5t-58.5 146.5v244q0 163 61 233t212 70zM419 185v120
q0 57 -35 88t-101 31q-58 0 -95 -28.5t-40 -66.5v-144q0 -57 34.5 -88t100.5 -31t101 31t35 88z" />
    <glyph glyph-name="uni0432" unicode="&#x432;" horiz-adv-x="534" 
d="M477 378q0 -76 -55 -109q73 -34 73 -125q0 -66 -41 -105t-111 -39h-256q-25 0 -25 24v468q0 24 25 24h242q69 0 108.5 -37t39.5 -101zM152 302h165q32 0 51 18.5t19 50.5q0 33 -19 51t-54 18h-162v-138zM152 76h173q37 0 57 20.5t20 56.5q0 35 -20.5 55t-57.5 20h-172
v-152z" />
    <glyph glyph-name="uni0433" unicode="&#x433;" horiz-adv-x="427" 
d="M86 516h303q13 0 18.5 -5t5.5 -19v-35q0 -24 -24 -24h-237v-409q0 -14 -5 -19t-19 -5h-42q-24 0 -24 24v468q0 14 5 19t19 5z" />
    <glyph glyph-name="uni0434" unicode="&#x434;" horiz-adv-x="605" 
d="M513 83h51q14 0 19 -5.5t5 -19.5v-173q0 -13 -5 -18.5t-19 -5.5h-39q-24 0 -24 24v115h-395v-115q0 -24 -25 -24h-39q-23 0 -23 24v173q0 14 5 19.5t18 5.5h27q31 25 49 80q17 56 17 178v151q0 14 5.5 19t18.5 5h330q13 0 18.5 -5t5.5 -19v-409zM222 433v-97
q0 -180 -50 -253h251v350h-201z" />
    <glyph glyph-name="uni0435" unicode="&#x435;" horiz-adv-x="534" 
d="M44 193v124q0 103 58 158.5t168 55.5q109 0 167.5 -56t58.5 -151v-58q0 -35 -37 -35h-326v-48q0 -58 34.5 -89t99.5 -31q99 0 139 69q17 24 39 9l27 -14q26 -13 9 -39q-58 -103 -215 -103q-110 0 -166 55t-56 153zM407 300v29q0 60 -35.5 93t-101.5 33t-101.5 -33
t-35.5 -93v-29h274z" />
    <glyph glyph-name="uni0436" unicode="&#x436;" horiz-adv-x="748" 
d="M360 516h40q14 0 19.5 -5t5.5 -19v-187h51h16l129 193q8 12 16.5 15t29.5 3h38q34 0 16 -28l-147 -207q39 -19 66 -75l89 -178q9 -15 5.5 -21.5t-20.5 -6.5h-39q-20 0 -27.5 4t-14.5 18l-69 145q-14 30 -34 42.5t-55 12.5h-50v-197q0 -14 -5.5 -19.5t-19.5 -5.5h-40
q-14 0 -19.5 5.5t-5.5 19.5v197h-50q-35 0 -55 -12.5t-34 -42.5l-69 -145q-7 -14 -14.5 -18t-27.5 -4h-39q-17 0 -20.5 6.5t5.5 21.5l89 178q27 56 66 75l-147 207q-19 28 16 28h38q21 0 29.5 -3t16.5 -15l129 -193h16h51v187q0 14 5.5 19t19.5 5z" />
    <glyph glyph-name="uni0437" unicode="&#x437;" horiz-adv-x="514" 
d="M50 400q9 27 31.5 54.5t73 52t115.5 24.5q103 0 154 -40.5t51 -112.5q0 -84 -66 -109v-4q77 -29 77 -125q0 -74 -52.5 -114.5t-160.5 -40.5q-42 0 -78.5 9.5t-61 23.5t-44 33t-30 35.5t-17.5 33.5q-10 27 17 34l34 11q14 5 21.5 1.5t12.5 -17.5q37 -85 147 -85
q120 0 120 85q0 76 -85 76h-103q-24 0 -24 24v26q0 24 24 24h97q38 0 59.5 19t21.5 52q0 82 -114 82q-39 0 -71.5 -16t-45.5 -34q-12 -17 -18 -31q-10 -24 -35 -17l-34 12q-25 7 -16 34z" />
    <glyph glyph-name="uni0438" unicode="&#x438;" horiz-adv-x="562" 
d="M86 516h42q14 0 19 -5t5 -19v-244q0 -67 -16 -130h3q21 46 54 90l218 296q8 12 23 12h42q14 0 19 -5t5 -19v-468q0 -14 -5 -19t-19 -5h-42q-14 0 -19 5t-5 19v240q0 57 16 133h-3q-18 -38 -56 -92l-215 -293q-9 -12 -24 -12h-42q-24 0 -24 24v468q0 14 5 19t19 5z" />
    <glyph glyph-name="uni0439" unicode="&#x439;" horiz-adv-x="562" 
d="M439 693q-34 -106 -154 -106q-118 0 -152 106q-5 18 11 22l31 12q18 5 24 -8q19 -66 86 -66t87 66q6 13 21 9l35 -13q15 -7 11 -22zM86 516h42q14 0 19 -5t5 -19v-244q0 -67 -16 -130h3q21 46 54 90l218 296q8 12 23 12h42q14 0 19 -5t5 -19v-468q0 -14 -5 -19t-19 -5
h-42q-14 0 -19 5t-5 19v240q0 57 16 133h-3q-18 -38 -56 -92l-215 -293q-9 -12 -24 -12h-42q-24 0 -24 24v468q0 14 5 19t19 5z" />
    <glyph glyph-name="uni043A" unicode="&#x43a;" horiz-adv-x="521" 
d="M409 206l88 -178q17 -28 -15 -28h-39q-20 0 -27 4t-14 18l-69 145q-14 30 -34.5 42.5t-55.5 12.5h-91v-197q0 -14 -5.5 -19.5t-19.5 -5.5h-40q-14 0 -19.5 5.5t-5.5 19.5v467q0 14 5.5 19t19.5 5h40q14 0 19.5 -5t5.5 -19v-187h79h9l149 193q9 12 16.5 15t30.5 3h38
q37 0 15 -28l-160 -200q49 -18 80 -82z" />
    <glyph glyph-name="uni043B" unicode="&#x43b;" horiz-adv-x="540" 
d="M140 516h321q13 0 18.5 -5t5.5 -19v-468q0 -14 -5.5 -19t-18.5 -5h-41q-14 0 -19 5t-5 19v409h-193v-103q0 -183 -45 -255q-21 -35 -42 -53t-54 -34q-19 -7 -29 12l-21 40q-7 18 9 28q17 9 25 14t17.5 15.5t20.5 28.5q32 52 32 210v156q0 14 5 19t19 5z" />
    <glyph glyph-name="uni043C" unicode="&#x43c;" horiz-adv-x="640" 
d="M518 516h34q16 0 21 -5.5t5 -20.5v-466q0 -14 -5 -19t-19 -5h-36q-14 0 -19 5t-5 19v231q0 61 16 137h-4q-21 -58 -50 -105l-95 -168q-7 -11 -12 -14.5t-18 -3.5h-22q-19 0 -30 18l-95 165q-28 51 -51 108h-3q15 -94 15 -141v-227q0 -14 -4.5 -19t-18.5 -5h-35
q-15 0 -20 5t-5 19v466q0 15 5.5 20.5t21.5 5.5h31q23 0 34 -20l167 -296l164 296q6 12 12.5 16t20.5 4z" />
    <glyph glyph-name="uni043D" unicode="&#x43d;" horiz-adv-x="557" 
d="M429 516h42q13 0 18.5 -5t5.5 -19v-468q0 -14 -5.5 -19t-18.5 -5h-42q-13 0 -18.5 5t-5.5 19v198h-253v-198q0 -14 -5 -19t-19 -5h-42q-24 0 -24 24v468q0 14 5 19t19 5h42q14 0 19 -5t5 -19v-187h253v187q0 14 5.5 19t18.5 5z" />
    <glyph glyph-name="uni043E" unicode="&#x43e;" horiz-adv-x="541" 
d="M46 176v163q0 90 59.5 141t164.5 51q107 0 166 -51t59 -141v-163q0 -90 -59 -140.5t-166 -50.5q-105 0 -164.5 51t-59.5 140zM406 176v164q0 52 -36 81t-100 29q-63 0 -99 -29t-36 -81v-164q0 -52 36 -81t99 -29q64 0 100 29t36 81z" />
    <glyph glyph-name="uni043F" unicode="&#x43f;" horiz-adv-x="553" 
d="M86 516h380q14 0 19 -5t5 -19v-468q0 -14 -5 -19t-19 -5h-41q-13 0 -18.5 5t-5.5 19v409h-249v-409q0 -14 -5 -19t-19 -5h-42q-24 0 -24 24v468q0 14 5 19t19 5z" />
    <glyph glyph-name="uni0440" unicode="&#x440;" horiz-adv-x="539" 
d="M100 502q76 29 184 29q209 0 209 -201v-141q0 -204 -213 -204q-52 0 -130 27v-208q0 -14 -5 -19t-19 -5h-42q-23 0 -23 24v641q0 25 7.5 36t31.5 21zM403 192v135q0 122 -132 122q-55 0 -106 -15q-15 -6 -15 -21v-320q76 -26 123 -26q130 0 130 125z" />
    <glyph glyph-name="uni0441" unicode="&#x441;" horiz-adv-x="516" 
d="M45 187v143q0 97 57 149t167 52q169 0 211 -134q9 -25 -16 -34l-35 -11q-24 -10 -34 16q-27 84 -130 84q-63 0 -96.5 -30.5t-33.5 -87.5v-151q0 -57 33.5 -88t96.5 -31q103 0 131 87q6 14 13 17.5t21 -1.5l35 -10q26 -11 17 -34q-50 -138 -219 -138q-107 0 -162.5 52.5
t-55.5 149.5z" />
    <glyph glyph-name="uni0442" unicode="&#x442;" horiz-adv-x="457" 
d="M38 516h381q13 0 18.5 -5t5.5 -19v-35q0 -24 -24 -24h-146v-409q0 -14 -5 -19t-18 -5h-42q-14 0 -19 5t-5 19v409h-146q-14 0 -19 5.5t-5 18.5v35q0 14 5 19t19 5z" />
    <glyph glyph-name="uni0443" unicode="&#x443;" horiz-adv-x="553" 
d="M428 516h41q14 0 19 -5t5 -19v-517q0 -216 -216 -216q-145 0 -203 102q-16 24 10 38l29 16q14 7 22 5t17 -14q39 -67 124 -67q128 0 128 132v54q-76 -21 -140 -21q-203 0 -203 198v290q0 14 5 19t19 5h42q23 0 23 -24v-287q0 -119 126 -119q60 0 128 21v385q0 14 5.5 19
t18.5 5z" />
    <glyph glyph-name="uni0444" unicode="&#x444;" horiz-adv-x="740" 
d="M415 716v-190q28 4 63 5q104 0 160.5 -52.5t56.5 -160.5v-119q0 -108 -56.5 -161t-160.5 -53q-35 1 -63 5v-186q0 -14 -5.5 -19t-18.5 -5h-42q-13 0 -18 5t-5 19v186q-28 -4 -65 -5q-104 0 -160.5 53t-56.5 161v115q0 108 57 162.5t160 54.5q37 -1 65 -5v190q0 13 5 18
t18 5h42q24 0 24 -23zM134 311v-110q0 -69 35.5 -101.5t97.5 -32.5q25 0 61 4v374q-36 4 -61 4q-61 0 -97 -33.5t-36 -104.5zM606 201v114q0 134 -133 134q-25 0 -61 -4v-374q36 -4 61 -4q62 0 97.5 32.5t35.5 101.5z" />
    <glyph glyph-name="uni0445" unicode="&#x445;" horiz-adv-x="497" 
d="M415 516h38q35 0 17 -28l-162 -223l172 -237q19 -28 -17 -28h-38q-19 0 -26.5 3.5t-16.5 16.5l-131 181l-128 -181q-8 -13 -16 -16.5t-27 -3.5h-37q-20 0 -23.5 7t6.5 21l172 237l-165 223q-18 28 19 28h36q19 0 27 -3.5t17 -16.5l121 -166l121 166q8 13 15 16.5t26 3.5z
" />
    <glyph glyph-name="uni0446" unicode="&#x446;" horiz-adv-x="577" 
d="M485 83h51q14 0 19 -5.5t5 -19.5v-173q0 -13 -5 -18.5t-19 -5.5h-39q-24 0 -24 24v115h-387q-14 0 -19 5t-5 19v468q0 24 24 24h42q14 0 19 -5t5 -19v-409h243v409q0 14 5.5 19t18.5 5h42q13 0 18.5 -5t5.5 -19v-409z" />
    <glyph glyph-name="uni0447" unicode="&#x447;" horiz-adv-x="513" 
d="M32 371v121q0 14 5 19t19 5h42q23 0 23 -24v-119q0 -111 126 -111q69 0 114 18v212q0 14 5.5 19t18.5 5h42q13 0 18.5 -5t5.5 -19v-468q0 -14 -5.5 -19t-18.5 -5h-42q-13 0 -18.5 5t-5.5 19v172q-37 -15 -126 -15q-104 0 -153.5 47t-49.5 143z" />
    <glyph glyph-name="uni0448" unicode="&#x448;" horiz-adv-x="766" 
d="M638 516h42q14 0 19 -5t5 -19v-468q0 -14 -5 -19t-19 -5h-594q-14 0 -19 5t-5 19v468q0 24 24 24h42q14 0 19 -5t5 -19v-409h186v409q0 14 5 19t19 5h42q14 0 19 -5t5 -19v-409h187v409q0 14 5 19t18 5z" />
    <glyph glyph-name="uni0449" unicode="&#x449;" horiz-adv-x="796" 
d="M704 83h50q14 0 19 -5.5t5 -19.5v-173q0 -13 -5 -18.5t-19 -5.5h-38q-25 0 -25 24v115h-605q-14 0 -19 5t-5 19v468q0 24 24 24h42q14 0 19 -5t5 -19v-409h186v409q0 14 5 19t19 5h42q14 0 19 -5t5 -19v-409h187v409q0 14 5 19t18 5h42q14 0 19 -5t5 -19v-409z" />
    <glyph glyph-name="uni044A" unicode="&#x44a;" horiz-adv-x="611" 
d="M245 360h155q86 0 135 -47.5t49 -131.5q0 -85 -49 -133t-135 -48h-221q-23 0 -23 24v409h-118q-14 0 -19 5.5t-5 18.5v35q0 14 5 19t19 5h183q13 0 18.5 -5t5.5 -19v-132zM245 80h144q48 0 75 27t27 74q0 46 -27 72t-75 26h-144v-199z" />
    <glyph glyph-name="uni044B" unicode="&#x44b;" horiz-adv-x="708" 
d="M152 360h155q86 0 135 -47.5t49 -131.5q0 -85 -49 -133t-135 -48h-221q-14 0 -19 5t-5 19v468q0 14 5 19t19 5h42q14 0 19 -5t5 -19v-132zM580 516h42q14 0 19 -5t5 -19v-468q0 -14 -5 -19t-19 -5h-42q-14 0 -19 5t-5 19v468q0 14 5 19t19 5zM152 80h144q47 0 74 27
t27 74q0 46 -27 72t-74 26h-144v-199z" />
    <glyph glyph-name="uni044C" unicode="&#x44c;" horiz-adv-x="518" 
d="M152 360h155q86 0 135 -47.5t49 -131.5q0 -85 -49 -133t-135 -48h-221q-14 0 -19 5t-5 19v468q0 14 5 19t19 5h42q14 0 19 -5t5 -19v-132zM152 80h144q47 0 74 27t27 74q0 46 -27 72t-74 26h-144v-199z" />
    <glyph glyph-name="uni044D" unicode="&#x44d;" horiz-adv-x="512" 
d="M45 397q42 134 210 134q110 0 166 -52t56 -149v-143q0 -97 -54.5 -149.5t-161.5 -52.5q-169 0 -218 138q-10 25 16 34l35 11q25 7 34 -16q28 -87 130 -87q63 0 96 30.5t33 87.5v39l-179 1q-23 0 -23 24v31q0 24 23 24h179v32q0 57 -33 87.5t-96 30.5q-100 0 -129 -84
q-11 -26 -34 -16l-34 11q-25 7 -16 34z" />
    <glyph glyph-name="uni044E" unicode="&#x44e;" horiz-adv-x="750" 
d="M265 303v38q0 90 57.5 140t161.5 50q105 0 162.5 -50t57.5 -140v-166q0 -90 -57.5 -140t-162.5 -50q-104 0 -161.5 50t-57.5 140v45h-113v-196q0 -14 -5 -19t-19 -5h-42q-24 0 -24 24v468q0 14 5 19t19 5h42q14 0 19 -5t5 -19v-189h113zM614 175v166q0 52 -34 80.5
t-96 28.5q-61 0 -95 -28.5t-34 -80.5v-166q0 -51 34 -80t95 -29t95.5 29t34.5 80z" />
    <glyph glyph-name="uni044F" unicode="&#x44f;" horiz-adv-x="528" 
d="M216 516h228q25 0 25 -24v-468q0 -14 -5 -19t-19 -5h-42q-14 0 -19 5t-5 19v153h-135l-99 -156q-8 -14 -15.5 -17.5t-28.5 -3.5h-37q-20 0 -24 7t6 21l107 161q-52 15 -81 56t-29 101q0 79 46.5 124.5t126.5 45.5zM379 436h-152q-42 0 -66.5 -24.5t-24.5 -65.5
t24.5 -64.5t66.5 -23.5h152v178z" />
    <glyph glyph-name="uni0451" unicode="&#x451;" horiz-adv-x="534" 
d="M168 697h7q24 0 33 -9t9 -32v-8q0 -24 -9 -33t-33 -9h-7q-23 0 -32 9t-9 33v8q0 23 9 32t32 9zM365 697h7q23 0 32 -9t9 -32v-8q0 -24 -9 -33t-32 -9h-7q-24 0 -33 9t-9 33v8q0 23 9 32t33 9zM44 193v124q0 103 58 158.5t168 55.5q109 0 167.5 -56t58.5 -151v-58
q0 -35 -37 -35h-326v-48q0 -58 34.5 -89t99.5 -31q99 0 139 69q17 24 39 9l27 -14q26 -13 9 -39q-58 -103 -215 -103q-110 0 -166 55t-56 153zM407 300v29q0 60 -35.5 93t-101.5 33t-101.5 -33t-35.5 -93v-29h274z" />
    <glyph glyph-name="Wgrave" unicode="&#x1e80;" horiz-adv-x="890" 
d="M344 871l20 24q13 19 44 2l156 -93q17 -9 2 -25l-11 -15q-7 -10 -31 -2l-177 82q-19 8 -3 27zM807 710h46q14 0 17.5 -5.5t0.5 -20.5l-173 -662q-5 -22 -33 -22h-42q-29 0 -33 21l-120 445q-13 49 -18 104h-6q-5 -54 -19 -104l-121 -444q-6 -22 -33 -22h-42q-29 0 -33 21
l-172 663q-4 14 -0.5 20t17.5 6h53q18 0 25 -4.5t10 -18.5l104 -433q10 -50 17 -120h5q12 88 21 119l118 426q8 23 35 23h42q29 0 35 -23l117 -426q15 -59 21 -119h5q7 76 18 118l103 435q3 14 10 18.5t25 4.5z" />
    <glyph glyph-name="wgrave" unicode="&#x1e81;" horiz-adv-x="733" 
d="M264 698l20 24q15 17 44 2l155 -95q16 -7 2 -26l-12 -15q-7 -10 -30 -1l-175 84q-20 8 -4 27zM668 516h26q17 0 21 -6t-1 -22l-142 -469q-4 -21 -32 -21h-27q-27 0 -34 21l-89 295q-4 16 -8.5 38t-7.5 38l-3 17h-4q0 -1 -3 -16t-7.5 -38t-8.5 -39l-89 -295
q-6 -21 -33 -21h-26q-27 0 -33 21l-140 469q-6 16 -2 22t22 6h30q22 0 30.5 -4.5t11.5 -19.5l75 -271q5 -17 13 -66q6 -44 7 -46h4q2 6 9 47q9 49 14 66l82 262q5 16 12 20.5t28 4.5h18q20 0 27 -4.5t12 -19.5l83 -261q10 -37 16 -70q7 -41 7 -45h5q1 1 7 44q5 42 12 70
l75 269q4 15 12.5 19.5t30.5 4.5z" />
    <glyph glyph-name="Wacute" unicode="&#x1e82;" horiz-adv-x="890" 
d="M345 805l155 95q28 16 44 -1l20 -24q17 -20 -4 -28l-175 -83q-24 -9 -31 1l-11 15q-14 16 2 25zM807 710h46q14 0 17.5 -5.5t0.5 -20.5l-173 -662q-5 -22 -33 -22h-42q-29 0 -33 21l-120 445q-13 49 -18 104h-6q-5 -54 -19 -104l-121 -444q-6 -22 -33 -22h-42
q-29 0 -33 21l-172 663q-4 14 -0.5 20t17.5 6h53q18 0 25 -4.5t10 -18.5l104 -433q10 -50 17 -120h5q12 88 21 119l118 426q8 23 35 23h42q29 0 35 -23l117 -426q15 -59 21 -119h5q7 76 18 118l103 435q3 14 10 18.5t25 4.5z" />
    <glyph glyph-name="wacute" unicode="&#x1e83;" horiz-adv-x="733" 
d="M264 629l155 95q30 15 44 -2l20 -24q17 -20 -3 -27l-176 -84q-23 -9 -30 1l-12 15q-14 17 2 26zM668 516h26q17 0 21 -6t-1 -22l-142 -469q-4 -21 -32 -21h-27q-27 0 -34 21l-89 295q-4 16 -8.5 38t-7.5 38l-3 17h-4q0 -1 -3 -16t-7.5 -38t-8.5 -39l-89 -295
q-6 -21 -33 -21h-26q-27 0 -33 21l-140 469q-6 16 -2 22t22 6h30q22 0 30.5 -4.5t11.5 -19.5l75 -271q5 -17 13 -66q6 -44 7 -46h4q2 6 9 47q9 49 14 66l82 262q5 16 12 20.5t28 4.5h18q20 0 27 -4.5t12 -19.5l83 -261q10 -37 16 -70q7 -41 7 -45h5q1 1 7 44q5 42 12 70
l75 269q4 15 12.5 19.5t30.5 4.5z" />
    <glyph glyph-name="Wdieresis" unicode="&#x1e84;" horiz-adv-x="890" 
d="M351 875h6q24 0 33 -9t9 -32v-9q0 -23 -9 -32t-33 -9h-6q-24 0 -32.5 9t-8.5 32v9q0 23 8.5 32t32.5 9zM548 875h6q24 0 33 -9t9 -32v-9q0 -23 -9 -32t-33 -9h-6q-24 0 -33 9t-9 32v9q0 23 9 32t33 9zM807 710h46q14 0 17.5 -5.5t0.5 -20.5l-173 -662q-5 -22 -33 -22h-42
q-29 0 -33 21l-120 445q-13 49 -18 104h-6q-5 -54 -19 -104l-121 -444q-6 -22 -33 -22h-42q-29 0 -33 21l-172 663q-4 14 -0.5 20t17.5 6h53q18 0 25 -4.5t10 -18.5l104 -433q10 -50 17 -120h5q12 88 21 119l118 426q8 23 35 23h42q29 0 35 -23l117 -426q15 -59 21 -119h5
q7 76 18 118l103 435q3 14 10 18.5t25 4.5z" />
    <glyph glyph-name="wdieresis" unicode="&#x1e85;" horiz-adv-x="733" 
d="M270 697h7q24 0 33 -9t9 -32v-9q0 -23 -9 -32t-33 -9h-7q-23 0 -32 9t-9 32v9q0 23 9 32t32 9zM468 697h6q23 0 32.5 -9t9.5 -32v-9q0 -23 -9.5 -32t-32.5 -9h-6q-25 0 -34 9t-9 32v9q0 23 9 32t34 9zM668 516h26q17 0 21 -6t-1 -22l-142 -469q-4 -21 -32 -21h-27
q-27 0 -34 21l-89 295q-4 16 -8.5 38t-7.5 38l-3 17h-4q0 -1 -3 -16t-7.5 -38t-8.5 -39l-89 -295q-6 -21 -33 -21h-26q-27 0 -33 21l-140 469q-6 16 -2 22t22 6h30q22 0 30.5 -4.5t11.5 -19.5l75 -271q5 -17 13 -66q6 -44 7 -46h4q2 6 9 47q9 49 14 66l82 262q5 16 12 20.5
t28 4.5h18q20 0 27 -4.5t12 -19.5l83 -261q10 -37 16 -70q7 -41 7 -45h5q1 1 7 44q5 42 12 70l75 269q4 15 12.5 19.5t30.5 4.5z" />
    <glyph glyph-name="Ygrave" unicode="&#x1ef2;" horiz-adv-x="634" 
d="M213 871l20 24q16 18 44 2l157 -93q15 -9 2 -25l-12 -15q-7 -10 -30 -2l-177 82q-20 8 -4 27zM558 710h50q29 0 14 -26l-254 -400v-258q0 -14 -5.5 -20t-20.5 -6h-44q-15 0 -20.5 6t-5.5 20v260l-254 398q-7 10 -3.5 18t17.5 8h54q25 0 33.5 -4t17.5 -19l184 -303
l186 303q9 16 17.5 19.5t33.5 3.5z" />
    <glyph glyph-name="ygrave" unicode="&#x1ef3;" horiz-adv-x="553" 
d="M169 698l20 24q15 17 44 2l155 -95q16 -9 2 -26l-12 -15q-7 -10 -30 -1l-176 84q-20 7 -3 27zM428 516h41q14 0 19 -5t5 -19v-517q0 -216 -216 -216q-145 0 -203 102q-16 24 10 38l29 16q14 7 22 5t17 -14q39 -67 124 -67q128 0 128 132v54q-76 -21 -140 -21
q-203 0 -203 198v290q0 14 5 19t19 5h42q23 0 23 -24v-287q0 -119 126 -119q60 0 128 21v385q0 14 5.5 19t18.5 5z" />
    <glyph glyph-name="endash" unicode="&#x2013;" horiz-adv-x="572" 
d="M86 310h400q14 0 20 -5.5t6 -20.5v-34q0 -15 -6 -20.5t-20 -5.5h-400q-15 0 -20.5 5.5t-5.5 20.5v34q0 15 5.5 20.5t20.5 5.5z" />
    <glyph glyph-name="emdash" unicode="&#x2014;" horiz-adv-x="770" 
d="M85 310h600q15 0 20.5 -5.5t5.5 -20.5v-34q0 -15 -5.5 -21t-20.5 -6h-600q-14 0 -20 6t-6 21v34q0 15 6 20.5t20 5.5z" />
    <glyph glyph-name="quoteleft" unicode="&#x2018;" horiz-adv-x="210" 
d="M57 517l59 169q8 24 30 24h16q12 0 15.5 -3.5t1.5 -14.5l-30 -175q-2 -17 -9 -23t-24 -6h-34q-36 0 -25 29z" />
    <glyph glyph-name="quoteright" unicode="&#x2019;" horiz-adv-x="205" 
d="M175 681l-59 -169q-8 -24 -30 -24h-16q-12 0 -15.5 4t-1.5 15l30 174q2 17 9 23t24 6h34q36 0 25 -29z" />
    <glyph glyph-name="quotesinglbase" unicode="&#x201a;" horiz-adv-x="187" 
d="M137 86l-15 -197q-2 -14 -7 -19t-18 -5h-21q-14 0 -19 5.5t-5 18.5v197q0 14 5 19t19 5h37q27 0 24 -24z" />
    <glyph glyph-name="quotedblleft" unicode="&#x201c;" horiz-adv-x="346" 
d="M57 517l59 169q8 24 30 24h16q12 0 15.5 -3.5t1.5 -14.5l-30 -175q-2 -17 -9 -23t-24 -6h-34q-36 0 -25 29zM193 517l58 169q7 24 30 24h17q12 0 15 -3.5t1 -14.5l-30 -175q-2 -17 -8.5 -23t-23.5 -6h-35q-35 0 -24 29z" />
    <glyph glyph-name="quotedblright" unicode="&#x201d;" horiz-adv-x="340" 
d="M175 681l-59 -169q-8 -24 -30 -24h-16q-12 0 -15.5 4t-1.5 15l30 174q2 17 9 23t24 6h34q36 0 25 -29zM310 681l-59 -169q-7 -24 -29 -24h-17q-11 0 -14.5 4t-1.5 15l30 174q2 17 8.5 23t23.5 6h35q35 0 24 -29z" />
    <glyph glyph-name="quotedblbase" unicode="&#x201e;" horiz-adv-x="334" 
d="M150 71l-59 -169q-7 -24 -30 -24h-16q-12 0 -15.5 4t-1.5 15l30 174q2 17 9 23t24 6h34q36 0 25 -29zM285 71l-59 -169q-8 -24 -29 -24h-17q-11 0 -14.5 4t-2.5 15l31 174q2 17 8.5 23t23.5 6h34q36 0 25 -29z" />
    <glyph glyph-name="dagger" unicode="&#x2020;" horiz-adv-x="528" 
d="M310 489h163q14 0 20 -5.5t6 -20.5v-37q0 -15 -6 -21t-20 -6h-163v-473q0 -14 -6 -20t-20 -6h-38q-15 0 -21 6t-6 20v473h-163q-15 0 -20.5 6t-5.5 21v37q0 15 5.5 20.5t20.5 5.5h163v195q0 14 6 20t21 6h38q14 0 20 -6t6 -20v-195z" />
    <glyph glyph-name="daggerdbl" unicode="&#x2021;" horiz-adv-x="569" 
d="M265 710h38q15 0 21 -6t6 -20v-195h162q15 0 21 -5.5t6 -20.5v-37q0 -15 -6 -21t-21 -6h-162v-189h163q15 0 20.5 -6t5.5 -20v-38q0 -15 -5.5 -20.5t-20.5 -5.5h-163v-194q0 -14 -6 -20t-21 -6h-38q-14 0 -20 6t-6 20v194h-163q-14 0 -20 5.5t-6 20.5v38q0 14 6 20t20 6
h163v189h-163q-15 0 -20.5 6t-5.5 21v37q0 15 5.5 20.5t20.5 5.5h163v195q0 14 6 20t20 6z" />
    <glyph glyph-name="bullet" unicode="&#x2022;" horiz-adv-x="332" 
d="M231 199q-25 -27 -64.5 -27t-65.5 27q-26 26 -26 65q0 38 26 64t65 26t64.5 -26t25.5 -64q0 -40 -25 -65z" />
    <glyph glyph-name="ellipsis" unicode="&#x2026;" horiz-adv-x="651" 
d="M99 103h6q29 0 40 -11t11 -40v-8q0 -29 -11 -39.5t-40 -10.5h-6q-29 0 -40 10.5t-11 39.5v8q0 29 11 40t40 11zM322 103h7q28 0 39 -11t11 -40v-8q0 -28 -10.5 -39t-39.5 -11h-7q-29 0 -40 10.5t-11 39.5v8q0 28 11.5 39.5t39.5 11.5zM545 103h7q28 0 39.5 -11.5
t11.5 -39.5v-8q0 -28 -11 -39t-40 -11h-7q-29 0 -39.5 10.5t-10.5 39.5v8q0 29 11 40t39 11z" />
    <glyph glyph-name="perthousand" unicode="&#x2030;" horiz-adv-x="1185" 
d="M34 505v73q0 70 42.5 109t119.5 39t119.5 -39t42.5 -109v-73q0 -69 -42.5 -107.5t-119.5 -38.5t-119.5 38.5t-42.5 107.5zM652 710h35q13 0 16.5 -7.5t-4.5 -17.5l-486 -662q-11 -16 -19.5 -19.5t-32.5 -3.5h-30q-15 0 -18.5 8t4.5 19l487 661q10 15 18 18.5t30 3.5z
M282 510v64q0 38 -22 59t-64 21q-87 0 -87 -80v-64q0 -38 22.5 -59t64.5 -21t64 21t22 59zM457 131v72q0 70 42.5 109t119.5 39t119.5 -39t42.5 -109v-72q0 -69 -42 -108t-120 -39t-120 39t-42 108zM829 131v72q0 70 42.5 109t119.5 39t119.5 -39t42.5 -109v-72
q0 -69 -42 -108t-120 -39t-120 39t-42 108zM706 136v63q0 80 -87 80q-42 0 -64 -21t-22 -59v-63q0 -38 22 -59t64 -21q87 0 87 80zM1078 136v63q0 80 -87 80q-42 0 -64 -21t-22 -59v-63q0 -38 22 -59t64 -21q87 0 87 80z" />
    <glyph glyph-name="guilsinglleft" unicode="&#x2039;" horiz-adv-x="344" 
d="M152 264l150 -151q16 -13 0 -30l-28 -28q-16 -13 -30 0l-193 193q-14 14 0 29l196 197q17 16 30 0l27 -27q15 -15 0 -29z" />
    <glyph glyph-name="guilsinglright" unicode="&#x203a;" horiz-adv-x="344" 
d="M221 264l-152 154q-17 14 0 29l26 27q15 16 30 0l196 -197q15 -15 0 -29l-193 -193q-14 -13 -30 0l-28 28q-15 17 0 30z" />
    <glyph glyph-name="fraction" unicode="&#x2044;" horiz-adv-x="176" 
d="M-199 27l486 661q11 15 19 18.5t29 3.5h35q13 0 16.5 -7.5t-3.5 -17.5l-486 -661q-12 -16 -20.5 -20t-31.5 -4h-31q-15 0 -18.5 8t5.5 19z" />
    <glyph glyph-name="zerosuperior" unicode="&#x2070;" horiz-adv-x="376" 
d="M39 545v136q0 64 39.5 101t109.5 37t109.5 -37t39.5 -101v-136q0 -64 -39 -101t-110 -37t-110 37t-39 101zM261 545v136q0 30 -19.5 47.5t-53.5 17.5q-35 0 -54 -17.5t-19 -47.5v-136q0 -31 19 -48.5t54 -17.5q34 0 53.5 17.5t19.5 48.5z" />
    <glyph glyph-name="foursuperior" unicode="&#x2074;" horiz-adv-x="370" 
d="M291 572h31q14 0 18 -4t4 -17v-22q0 -13 -4 -17t-18 -4h-31v-71q0 -13 -4 -17.5t-17 -4.5h-27q-12 0 -16 4.5t-4 17.5v71h-181q-14 0 -18.5 5t-4.5 18v19q0 14 8 25l180 222q11 14 32 14h29q15 0 19 -4.5t4 -19.5v-215zM223 572v145l-118 -145h118z" />
    <glyph glyph-name="fivesuperior" unicode="&#x2075;" horiz-adv-x="356" 
d="M96 811h206q10 0 14 -4t4 -15v-28q0 -11 -3.5 -14.5t-14.5 -3.5h-168l-8 -80h66q70 0 106.5 -33.5t36.5 -91.5q0 -59 -38 -96.5t-105 -37.5q-120 0 -151 102q-10 25 12 32l21 8q15 4 21 1.5t11 -14.5q22 -63 83 -63q35 0 54.5 18t19.5 49q0 64 -73 64h-115q-22 0 -21 22
l16 163q1 13 6.5 17.5t19.5 4.5z" />
    <glyph glyph-name="sixsuperior" unicode="&#x2076;" horiz-adv-x="376" 
d="M114 671v-30q46 18 93 18q67 0 101.5 -32.5t34.5 -91.5q0 -62 -40 -95t-114 -33q-151 0 -151 148v113q0 72 40.5 111.5t115.5 39.5q50 0 85.5 -20.5t52.5 -52.5q9 -16 -11 -24l-30 -15q-16 -9 -27 5q-22 37 -70 37q-80 0 -80 -78zM114 572v-19q0 -77 75 -77q78 0 78 58
q0 56 -72 56q-37 0 -81 -18z" />
    <glyph glyph-name="sevensuperior" unicode="&#x2077;" horiz-adv-x="320" 
d="M42 811h242q12 0 16 -4t4 -16v-19q0 -13 -5 -25l-139 -316q-4 -11 -9 -13.5t-23 -2.5h-29q-15 0 -18 5.5t4 21.5l132 299h-175q-12 0 -16 4t-4 15v31q0 12 4 16t16 4z" />
    <glyph glyph-name="eightsuperior" unicode="&#x2078;" horiz-adv-x="382" 
d="M45 706q0 53 39 83t107 30q69 0 107 -27.5t38 -76.5q0 -63 -60 -92q73 -28 73 -96q0 -58 -40 -89t-118 -31q-77 0 -117.5 27.5t-40.5 78.5q0 67 74 99q-62 29 -62 94zM261 706q0 53 -71 53q-70 0 -70 -54q0 -24 19 -37t67 -22q55 21 55 60zM269 525q0 26 -20 38.5
t-72 21.5q-22 -6 -38 -18q-26 -19 -26 -45q0 -55 79 -55q77 0 77 58z" />
    <glyph glyph-name="ninesuperior" unicode="&#x2079;" horiz-adv-x="376" 
d="M262 555v29q-57 -18 -93 -18q-67 0 -101.5 32.5t-34.5 92.5q0 62 40 95t113 33q151 0 151 -149v-112q0 -73 -40 -112t-115 -39q-50 0 -85.5 20t-52.5 52q-9 16 10 25l30 15q18 8 28 -5q20 -38 70 -38q80 0 80 79zM262 654v18q0 77 -76 77q-77 0 -77 -57q0 -56 71 -56
q46 0 82 18z" />
    <glyph glyph-name="zeroinferior" unicode="&#x2080;" horiz-adv-x="376" 
d="M39 11v135q0 64 40 101.5t109 37.5t109 -37.5t40 -101.5v-135q0 -64 -39 -101t-110 -37t-110 37t-39 101zM261 11v135q0 31 -19.5 48.5t-53.5 17.5q-35 0 -54 -17.5t-19 -48.5v-135q0 -31 19 -48.5t54 -17.5q34 0 53.5 17.5t19.5 48.5z" />
    <glyph glyph-name="oneinferior" unicode="&#x2081;" horiz-adv-x="283" 
d="M201 277h14q15 0 21 -6t6 -20v-344q0 -14 -6 -20t-21 -6h-23q-15 0 -20.5 6t-5.5 20v275l-86 -48q-23 -12 -37 9l-10 19q-13 22 11 36l126 71q14 8 31 8z" />
    <glyph glyph-name="twoinferior" unicode="&#x2082;" horiz-adv-x="359" 
d="M45 182q37 103 145 103q65 0 102 -34.5t37 -90.5q0 -52 -26 -80.5t-88 -47.5l-56 -18q-44 -14 -44 -46v-18h186q23 0 23 -23v-23q0 -23 -23 -23h-234q-25 0 -25 24v35q0 51 18.5 80t63.5 47l57 22q48 19 59 31q12 15 12 37q0 25 -17 40.5t-46 15.5q-49 0 -69 -48l-3 -7
q-7 -15 -13 -18.5t-21 1.5l-22 8q-25 9 -16 33z" />
    <glyph glyph-name="threeinferior" unicode="&#x2083;" horiz-adv-x="366" 
d="M45 182q33 103 153 103q62 0 97 -30.5t35 -82.5q0 -61 -45 -85q57 -27 57 -101q0 -54 -37 -83.5t-107 -29.5q-120 0 -154 101q-10 26 12 33l23 7q24 10 33 -16q10 -31 29 -44t57 -13q69 0 69 54q0 24 -13.5 38t-37.5 14h-50q-15 0 -19 4.5t-4 18.5v20q0 16 4.5 20.5
t20.5 4.5h43q48 0 48 49q0 25 -16 39t-44 14q-65 0 -83 -57q-7 -17 -15 -20.5t-25 2.5l-15 6q-23 9 -16 34z" />
    <glyph glyph-name="fourinferior" unicode="&#x2084;" horiz-adv-x="372" 
d="M294 38h30q15 0 18.5 -4t3.5 -17v-22q0 -13 -3.5 -17t-18.5 -4h-30v-71q0 -13 -4 -17.5t-17 -4.5h-30q-12 0 -16 4.5t-4 17.5v71h-181q-14 0 -18.5 5t-4.5 18v19q0 14 8 25l180 222q11 14 32 14h32q15 0 19 -4.5t4 -19.5v-215zM223 38v145l-118 -145h118z" />
    <glyph glyph-name="fiveinferior" unicode="&#x2085;" horiz-adv-x="357" 
d="M95 277h206q18 0 18 -18v-29q0 -11 -3.5 -14.5t-14.5 -3.5h-168l-8 -80h66q70 0 106.5 -33t36.5 -92t-38 -96.5t-105 -37.5q-119 0 -151 102q-9 25 12 32l21 8q15 5 21 2.5t11 -15.5q21 -62 83 -62q35 0 54.5 17.5t19.5 48.5q0 64 -73 64h-115q-23 0 -21 23l16 163
q1 13 6.5 17t19.5 4z" />
    <glyph glyph-name="sixinferior" unicode="&#x2086;" horiz-adv-x="376" 
d="M114 137v-30q46 18 93 18q136 0 136 -124q0 -62 -40 -95t-114 -33q-151 0 -151 148v113q0 73 39.5 112t116.5 39q50 0 85.5 -20.5t52.5 -52.5q9 -13 -11 -24l-30 -15q-17 -8 -27 5q-23 38 -70 38q-80 0 -80 -79zM114 38v-18q0 -78 75 -78q78 0 78 58q0 56 -72 56
q-37 0 -81 -18z" />
    <glyph glyph-name="seveninferior" unicode="&#x2087;" horiz-adv-x="320" 
d="M41 277h243q12 0 16 -4.5t4 -15.5v-18q0 -14 -6 -26l-138 -316q-4 -8 -6.5 -10.5t-8 -4t-17.5 -1.5h-30q-14 0 -17.5 5.5t3.5 21.5l133 299h-176q-12 0 -16 4.5t-4 15.5v30q0 12 4 16t16 4z" />
    <glyph glyph-name="eightinferior" unicode="&#x2088;" horiz-adv-x="382" 
d="M45 172q0 53 39 83t107 30q69 0 107 -27.5t38 -76.5q0 -63 -60 -92q73 -28 73 -96q0 -58 -40 -89t-118 -31q-77 0 -117.5 27.5t-40.5 78.5q0 69 74 99q-62 29 -62 94zM261 173q0 52 -71 52q-70 0 -70 -53q0 -25 19 -38t67 -22q55 21 55 61zM269 -9q0 26 -20 38.5
t-72 21.5q-22 -6 -38 -18q-26 -19 -26 -45q0 -54 79 -54q77 0 77 57z" />
    <glyph glyph-name="nineinferior" unicode="&#x2089;" horiz-adv-x="376" 
d="M262 21v29q-56 -17 -93 -17q-136 0 -136 124q0 62 40 95t113 33q151 0 151 -149v-112q0 -73 -40 -112t-115 -39q-50 0 -85.5 20t-52.5 52q-9 16 10 25l30 15q18 8 28 -5q20 -38 70 -38q80 0 80 79zM262 120v18q0 78 -76 78q-77 0 -77 -58q0 -56 71 -56q46 0 82 18z" />
    <glyph glyph-name="Euro" unicode="&#x20ac;" horiz-adv-x="731" 
d="M148 460v24q0 112 74.5 176.5t205.5 64.5q183 0 247 -115q19 -29 -11 -46l-30 -15q-17 -8 -26 -5.5t-19 16.5q-37 75 -161 75q-85 0 -133.5 -39t-48.5 -109v-27h284q26 0 18 -23l-8 -25q-7 -22 -32 -22h-265v-80h242q26 0 18 -23l-7 -25q-7 -22 -32 -22h-218v-20
q3 -70 50.5 -107.5t131.5 -37.5q67 0 108 22.5t55 56.5q12 15 19.5 17.5t25.5 -6.5l30 -15q31 -16 12 -46q-66 -119 -250 -119q-132 0 -203.5 60.5t-75.5 174.5v20h-97q-14 0 -18 5t-1 18l8 26q6 21 31 21h77v80h-57q-26 0 -18 23l8 26q6 21 31 21h35z" />
    <glyph glyph-name="uni20BD" unicode="&#x20bd;" horiz-adv-x="658" 
d="M200 278v-84h323q13 0 18.5 -5t5.5 -19v-22q0 -14 -5.5 -19t-18.5 -5h-323v-98q0 -14 -6 -20t-21 -6h-44q-14 0 -20 6t-6 20v98h-43q-14 0 -19 5t-5 19v22q0 14 5 19t19 5h43v490q0 14 6 20t20 6h273q105 0 164.5 -57.5t59.5 -159.5q0 -101 -59.5 -158t-164.5 -57h-202z
M200 620v-252h193q62 0 97 33.5t35 91.5q0 59 -35 93t-97 34h-193z" />
    <glyph glyph-name="uni2113" unicode="&#x2113;" horiz-adv-x="428" 
d="M130 285v258q0 95 39.5 142t106.5 47q64 0 99 -39.5t35 -111.5q0 -169 -200 -336v-72q0 -52 18.5 -75.5t60.5 -23.5q14 0 28.5 5t23.5 10.5t10 5.5q14 11 23 -1l27 -31q11 -16 -2 -26q-50 -43 -115 -43q-153 0 -153 153v37q-30 -20 -42 -30q-17 -12 -29 6l-21 33
q-12 20 4 30q50 34 87 62zM330 583q0 36 -15 55.5t-40 19.5q-65 0 -65 -116v-185q120 113 120 226z" />
    <glyph glyph-name="uni2116" unicode="&#x2116;" horiz-adv-x="1043" 
d="M992 577v-72q0 -69 -42 -108t-120 -39q-77 0 -119 38.5t-42 108.5v72q0 70 42 109t119 39t119.5 -39t42.5 -109zM543 710h41q15 0 20.5 -6t5.5 -20v-658q0 -14 -5.5 -20t-20.5 -6h-44q-19 0 -26 13l-285 415q-24 36 -51 93q-29 58 -31 61h-4l1 -7q1 -7 3 -24t4 -37
q8 -72 8 -118v-370q0 -14 -6 -20t-20 -6h-41q-15 0 -21 6t-6 20v658q0 14 6 20t21 6h43q17 0 27 -13l280 -408q31 -46 56 -98q5 -11 10 -21l8.5 -17t6.5 -12.5t5 -8.5l1 -3h4q0 1 -1 8.5t-3 26t-4 37.5q-8 72 -8 121v362q0 14 5.5 20t20.5 6zM744 573v-63q0 -38 22 -59
t64 -21q87 0 87 80v63q0 80 -87 80q-42 0 -64 -21t-22 -59zM693 309h275q14 0 20 -6t6 -20v-29q0 -14 -6 -20t-20 -6h-275q-14 0 -20 6t-6 20v29q0 14 6 20t20 6z" />
    <glyph glyph-name="uni2117" unicode="&#x2117;" horiz-adv-x="804" 
d="M43 351q0 150 105 255q104 104 255 104q150 0 254 -104q104 -106 104 -255q0 -151 -104 -255t-254 -104t-255 105t-105 254zM106 351q0 -125 86 -211t211 -86q124 0 210 86q85 85 85 211t-85 211t-210 85q-126 0 -211 -85q-86 -86 -86 -211zM298 538h133q63 0 100 -36
t37 -98t-37 -97.5t-100 -35.5h-92v-95q0 -11 -4 -14.5t-15 -3.5h-23q-11 0 -14.5 3.5t-3.5 14.5v344q0 11 3.5 14.5t15.5 3.5zM339 328h89q36 0 57 20.5t21 55.5q0 36 -21 56.5t-57 20.5h-89v-153z" />
    <glyph glyph-name="trademark" unicode="&#x2122;" horiz-adv-x="625" 
d="M57 695h200q11 0 14 -3t3 -14v-16q0 -11 -3 -14t-14 -3h-73v-185q0 -10 -4 -13.5t-15 -3.5h-15q-18 0 -18 17v185h-75q-12 0 -14 2.5t-2 14.5v16q0 12 2 14.5t14 2.5zM528 695h10q12 0 15.5 -3t3.5 -14v-218q0 -11 -3 -14t-14 -3h-17q-11 0 -14 3t-3 14v90q0 22 3 52
q-3 -5 -6 -9.5t-4.5 -7.5t-3 -5.5t-2.5 -3.5l-1 -2l-41 -60q-9 -13 -20 -13h-8q-12 0 -19 10l-41 59q-16 24 -17 26q1 -11 1 -46v-90q0 -11 -2.5 -14t-13.5 -3h-17q-11 0 -14 3t-3 14v218q0 11 3.5 14t15.5 3h9q13 0 21 -12l81 -123l80 122q7 13 21 13z" />
    <glyph glyph-name="Omega" unicode="&#x2126;" horiz-adv-x="766" 
d="M55 377q0 152 92 250t234 98q146 0 239 -97q92 -98 92 -249q0 -185 -142 -285h122q15 0 20.5 -6t5.5 -21v-41q0 -14 -5.5 -20t-20.5 -6h-245q-20 0 -20 20v35q0 16 16 23q80 39 128 116q48 76 48 168q0 119 -62 196q-61 75 -176 75q-110 0 -171 -76q-62 -77 -62 -194
q0 -94 45 -169.5t128 -116.5q16 -7 16 -23v-34q0 -20 -20 -20h-244q-15 0 -20.5 6t-5.5 20v41q0 15 5.5 21t20.5 6h121q-139 100 -139 283z" />
    <glyph glyph-name="estimated" unicode="&#x212e;" horiz-adv-x="816" 
d="M783 355v-20q0 -20 -21 -20h-535v-192q83 -65 186 -65q77 0 147.5 40t114.5 116q10 16 32 16h34q11 0 13.5 -4t-1.5 -15q-42 -101 -134 -163q-91 -63 -206 -63q-153 0 -261 109q-109 108 -109 261t109 262q108 108 261 108t262 -108q108 -110 108 -262zM600 388v199
q-80 67 -187 67t-186 -66v-200h373z" />
    <glyph glyph-name="uni2153" unicode="&#x2153;" horiz-adv-x="856" 
d="M213 713h15q15 0 20.5 -5.5t5.5 -20.5v-343q0 -15 -5.5 -20.5t-20.5 -5.5h-23q-15 0 -21 5.5t-6 20.5v275l-85 -48q-24 -13 -37 9l-11 19q-12 21 12 35l125 72q11 7 31 7zM660 710h34q13 0 17 -7.5t-4 -17.5l-486 -661q-12 -16 -20.5 -20t-31.5 -4h-31q-14 0 -17.5 8
t4.5 19l487 661q11 15 19 18.5t29 3.5zM535 301q33 103 153 103q62 0 97 -30.5t35 -82.5q0 -61 -45 -85q57 -27 57 -101q0 -54 -37 -83.5t-107 -29.5q-122 0 -154 101q-10 25 12 33l23 7q13 5 20 1.5t13 -17.5q10 -31 29 -44t57 -13q69 0 69 54q0 24 -13.5 38t-37.5 14h-50
q-15 0 -19 4.5t-4 18.5v20q0 17 4.5 21t20.5 4h43q48 0 48 49q0 25 -16 39t-44 14q-65 0 -84 -57q-6 -17 -14 -20.5t-25 2.5l-15 6q-23 9 -16 34z" />
    <glyph glyph-name="uni2154" unicode="&#x2154;" horiz-adv-x="891" 
d="M53 622q37 103 145 103q65 0 102 -34.5t37 -90.5q0 -53 -25.5 -80.5t-88.5 -48.5l-57 -17q-43 -13 -43 -47v-17h186q23 0 23 -23v-24q0 -22 -23 -22h-234q-14 0 -19.5 5t-5.5 18v35q0 52 18.5 80.5t63.5 46.5l56 22q33 13 50 24q21 13 21 45q0 25 -16.5 40.5t-45.5 15.5
q-8 0 -15 -1t-12.5 -3.5t-10 -4.5t-8.5 -6.5t-6.5 -6.5t-6 -7.5t-4.5 -7t-4 -7.5l-3 -6l-2 -6q-7 -14 -13 -17t-21 1l-22 7q-26 9 -16 34zM708 710h34q14 0 17.5 -7.5t-4.5 -17.5l-486 -661q-11 -16 -19.5 -20t-32.5 -4h-30q-15 0 -18.5 8t5.5 19l486 661q11 15 19 18.5
t29 3.5zM568 301q33 103 152 103q62 0 97 -30.5t35 -82.5q0 -61 -45 -85q57 -27 57 -101q0 -54 -37 -83.5t-107 -29.5q-119 0 -154 101q-8 26 13 33l22 7q23 10 34 -16q9 -31 28 -44t57 -13q69 0 69 54q0 24 -13.5 38t-37.5 14h-50q-14 0 -18.5 4.5t-4.5 18.5v20q0 17 4 21
t21 4h44q47 0 47 49q0 25 -15.5 39t-43.5 14q-36 0 -55.5 -13.5t-28.5 -43.5q-7 -17 -15 -20.5t-25 2.5l-15 6q-24 9 -15 34z" />
    <glyph glyph-name="oneeighth" unicode="&#x215b;" horiz-adv-x="863" 
d="M214 717h14q15 0 21 -6t6 -21v-343q0 -15 -6 -20.5t-21 -5.5h-23q-15 0 -20.5 5.5t-5.5 20.5v275l-86 -48q-24 -13 -37 9l-11 19q-12 22 12 36l125 71q14 8 32 8zM660 710h34q13 0 17 -7.5t-4 -17.5l-486 -661q-12 -16 -20.5 -20t-31.5 -4h-31q-14 0 -17.5 8t4.5 19
l486 661q11 14 19.5 18t29.5 4zM535 291q0 53 39 83t107 30q69 0 107.5 -27.5t38.5 -76.5q0 -65 -61 -92q73 -27 73 -96q0 -120 -158 -120q-77 0 -117 27.5t-40 78.5q0 70 74 99q-63 28 -63 94zM752 292q0 52 -71 52t-71 -53q0 -24 19.5 -37.5t67.5 -22.5q55 22 55 61z
M760 110q0 26 -20 38.5t-72 21.5q-1 -1 -16.5 -7t-22.5 -11q-26 -17 -26 -45q0 -54 80 -54q77 0 77 57z" />
    <glyph glyph-name="threeeighths" unicode="&#x215c;" horiz-adv-x="888" 
d="M49 622q33 103 153 103q62 0 97 -30.5t35 -82.5q0 -61 -45 -85q57 -27 57 -101q0 -54 -37 -83.5t-107 -29.5q-122 0 -154 101q-9 26 12 33l23 8q13 5 20 1.5t13 -18.5q10 -31 29 -44t57 -13q33 0 51 14.5t18 39.5q0 24 -13.5 38.5t-37.5 14.5h-50q-15 0 -19 4t-4 19v20
q0 17 4 21t21 4h43q48 0 48 48q0 26 -16 40t-44 14q-65 0 -84 -57q-6 -17 -14 -21t-25 2l-15 6q-23 11 -16 34zM694 709h34q14 0 17.5 -7.5t-4.5 -17.5l-486 -661q-11 -16 -19.5 -20t-32.5 -4h-30q-15 0 -19 8.5t5 18.5l487 661q10 15 18 18.5t30 3.5zM559 291q0 53 39 83
t107 30q69 0 107.5 -27.5t38.5 -76.5q0 -64 -60 -92q72 -27 72 -96q0 -120 -158 -120q-77 0 -117 27.5t-40 78.5q0 70 74 99q-63 28 -63 94zM776 292q0 52 -71 52q-70 0 -70 -53q0 -25 19 -38t67 -22q55 21 55 61zM784 110q0 26 -20 38.5t-72 21.5q-1 -1 -16.5 -7t-22.5 -11
q-26 -17 -26 -45q0 -54 80 -54q77 0 77 57z" />
    <glyph glyph-name="fiveeighths" unicode="&#x215d;" horiz-adv-x="887" 
d="M97 716h206q11 0 14.5 -4t3.5 -14v-29q0 -11 -3.5 -14.5t-14.5 -3.5h-167l-9 -79h67q70 0 106 -33.5t36 -91.5q0 -59 -38 -97t-104 -38q-120 0 -152 102q-7 25 12 32l22 8q14 5 20 2.5t12 -15.5q21 -62 83 -62q35 0 54 18t19 48q0 64 -73 64h-115q-23 0 -21 23l16 163
q1 13 6.5 17t19.5 4zM682 710h34q13 0 17 -7.5t-4 -17.5l-486 -661q-11 -16 -20 -20t-32 -4h-31q-14 0 -17.5 8t4.5 19l487 661q11 15 19 18.5t29 3.5zM557 291q0 53 39 83t107 30q69 0 107.5 -27.5t38.5 -76.5q0 -64 -61 -92q73 -27 73 -96q0 -58 -40 -89t-118 -31
q-77 0 -117 27.5t-40 78.5q0 70 74 99q-63 28 -63 94zM774 292q0 52 -71 52t-71 -53q0 -24 19.5 -37.5t67.5 -22.5q55 22 55 61zM782 110q0 26 -20 38.5t-72 21.5q-1 -1 -16.5 -7t-22.5 -11q-26 -17 -26 -45q0 -54 80 -54q77 0 77 57z" />
    <glyph glyph-name="seveneighths" unicode="&#x215e;" horiz-adv-x="847" 
d="M51 717h243q12 0 16 -4.5t4 -15.5v-19q0 -13 -6 -25l-138 -316q-5 -11 -9.5 -13.5t-22.5 -2.5h-30q-14 0 -17.5 5.5t3.5 21.5l133 299h-176q-12 0 -16 4t-4 15v30q0 13 4 17t16 4zM615 710h34q13 0 17 -7.5t-4 -17.5l-486 -661q-11 -16 -20 -20t-32 -4h-31q-14 0 -17.5 8
t4.5 19l487 661q11 15 19 18.5t29 3.5zM509 291q0 53 39 83t107 30q69 0 107.5 -27.5t38.5 -76.5q0 -64 -61 -92q73 -27 73 -96q0 -58 -40 -89t-118 -31q-77 0 -117.5 27.5t-40.5 78.5q0 69 75 99q-63 28 -63 94zM726 292q0 52 -71 52t-71 -53q0 -24 19.5 -37.5t66.5 -22.5
q56 23 56 61zM734 110q0 26 -20.5 38.5t-72.5 21.5l-13 -5q-19 -8 -32 -19q-19 -15 -19 -39q0 -54 79 -54q78 0 78 57z" />
    <glyph glyph-name="arrowleft" unicode="&#x2190;" horiz-adv-x="745" 
d="M186 370h517q21 0 21 -21v-30q0 -22 -21 -22h-516l160 -162q13 -13 0 -28l-22 -23q-14 -15 -29 0l-230 230q-22 21 0 40l230 230q15 15 29 1l23 -24q13 -15 0 -28z" />
    <glyph glyph-name="arrowup" unicode="&#x2191;" horiz-adv-x="745" 
d="M407 657l230 -230q16 -15 1 -30l-23 -22q-15 -13 -28 0l-161 160v-516q0 -21 -22 -21h-32q-22 0 -22 21v516l-161 -161q-14 -14 -28 0l-24 23q-15 13 0 30l230 230q21 21 40 0z" />
    <glyph glyph-name="arrowright" unicode="&#x2192;" horiz-adv-x="745" 
d="M471 584l230 -230q22 -19 0 -40l-230 -230q-15 -15 -29 0l-22 23q-13 15 0 28l160 162h-516q-21 0 -21 22v30q0 21 21 21h517l-162 163q-13 13 0 28l23 24q14 14 29 -1z" />
    <glyph glyph-name="arrowdown" unicode="&#x2193;" horiz-adv-x="745" 
d="M371 663h32q22 0 22 -21v-516l161 160q13 13 28 0l23 -22q15 -16 -1 -29l-230 -230q-19 -22 -40 0l-230 230q-13 16 0 29l24 23q14 14 28 0l161 -161v516q0 21 22 21z" />
    <glyph glyph-name="uni2196" unicode="&#x2196;" horiz-adv-x="745" 
d="M270 576h325q28 0 28 -28v-326q0 -11 -4.5 -15.5t-15.5 -4.5h-35q-11 0 -14.5 4.5t-3.5 16.5v226l-365 -364q-13 -17 -30 0l-23 22q-15 15 0 31l365 365h-229q-11 0 -15 4.5t-4 15.5v33q0 20 21 20z" />
    <glyph glyph-name="uni2197" unicode="&#x2197;" horiz-adv-x="745" 
d="M165 576h325q21 0 21 -20v-33q0 -11 -4 -15.5t-15 -4.5h-229l365 -365q16 -16 0 -31l-23 -22q-17 -17 -30 0l-365 364v-226q0 -12 -3.5 -16.5t-14.5 -4.5h-35q-11 0 -15.5 4.5t-4.5 15.5v326q0 28 28 28z" />
    <glyph glyph-name="uni2198" unicode="&#x2198;" horiz-adv-x="745" 
d="M132 543l23 22q17 13 30 0l365 -364v226q0 21 18 21h35q11 0 15.5 -4.5t4.5 -16.5v-325q0 -29 -28 -29h-325q-21 0 -21 21v33q0 11 4 15.5t16 4.5h228l-365 365q-15 16 0 31z" />
    <glyph glyph-name="uni2199" unicode="&#x2199;" horiz-adv-x="745" 
d="M210 201l365 364q13 13 30 0l23 -22q16 -15 0 -31l-365 -365h228q12 0 16 -4.5t4 -15.5v-33q0 -21 -21 -21h-325q-28 0 -28 29v325q0 12 4.5 16.5t15.5 4.5h35q18 0 18 -21v-226z" />
    <glyph glyph-name="partialdiff" unicode="&#x2202;" horiz-adv-x="552" 
d="M122 683v35q0 14 5 19t18 5q189 0 270 -81q80 -83 80 -263v-215q0 -95 -58 -146.5t-167 -51.5t-167 51.5t-58 146.5v123q0 92 55.5 145.5t151.5 53.5q117 0 158 -68q-5 116 -66 169.5t-196 53.5q-15 0 -20 5t-6 18zM405 184v123q0 57 -34.5 87t-100.5 30t-100.5 -30.5
t-34.5 -87.5v-122q0 -57 34.5 -87.5t100.5 -30.5t100.5 30.5t34.5 87.5z" />
    <glyph glyph-name="increment" unicode="&#x2206;" horiz-adv-x="629" 
d="M292 710h45q25 0 33 -21l219 -582q13 -35 13 -49v-32q0 -14 -6 -20t-20 -6h-522q-15 0 -20.5 6t-5.5 20v32q0 17 13 49l218 582q7 21 33 21zM499 80l-133 373q-16 45 -30 105q-15 59 -18 67h-6q-4 -7 -19 -69q-15 -58 -30 -103l-132 -373h368z" />
    <glyph glyph-name="product" unicode="&#x220f;" horiz-adv-x="679" 
d="M57 710h566q15 0 20.5 -6t5.5 -20v-38q0 -14 -5.5 -20t-20.5 -6h-58v-694q0 -14 -6 -20t-21 -6h-44q-15 0 -20.5 6t-5.5 20v694h-255v-694q0 -14 -6 -20t-21 -6h-44q-14 0 -20 6t-6 20v694h-59q-15 0 -21 6t-6 20v38q0 14 6 20t21 6z" />
    <glyph glyph-name="summation" unicode="&#x2211;" horiz-adv-x="583" 
d="M157 620l174 -281q11 -18 11.5 -29.5t-11.5 -30.5l-177 -289h360q15 0 21 -6t6 -20v-38q0 -14 -6 -20t-21 -6h-452q-15 0 -20.5 6t-5.5 20v37q0 16 8 27l197 319l-192 310q-9 11 -9 28v36q0 15 5.5 21t20.5 6h444q15 0 20.5 -6t5.5 -21v-37q0 -14 -5.5 -20t-20.5 -6h-353
z" />
    <glyph glyph-name="minus" unicode="&#x2212;" horiz-adv-x="593" 
d="M87 369h419q15 0 21 -5.5t6 -20.5v-35q0 -14 -6 -20t-21 -6h-419q-15 0 -20.5 6t-5.5 20v35q0 15 5.5 20.5t20.5 5.5z" />
    <glyph glyph-name="uni2215" unicode="&#x2215;" horiz-adv-x="596" 
d="M10 27l486 661q10 15 18.5 18.5t30.5 3.5h34q13 0 16.5 -8t-3.5 -18l-486 -660q-11 -16 -20 -20t-32 -4h-31q-14 0 -17.5 8t4.5 19z" />
    <glyph glyph-name="uni2219" unicode="&#x2219;" horiz-adv-x="225" 
d="M109 296h7q28 0 39 -11t11 -40v-8q0 -29 -11 -39.5t-39 -10.5h-7q-29 0 -40 10.5t-11 39.5v8q0 29 11 40t40 11z" />
    <glyph glyph-name="radical" unicode="&#x221a;" horiz-adv-x="699" 
d="M638 751h36q25 0 17 -26l-251 -809q-7 -22 -33 -22h-39q-24 0 -32 20l-156 439h-130q-15 0 -21 6t-6 20v34q0 15 6 21t21 6h160q24 0 33.5 -4.5t14.5 -19.5l96 -284q10 -32 22 -91q9 -54 10 -55h6l8 54q9 50 20 91l174 597q4 14 12.5 18.5t31.5 4.5z" />
    <glyph glyph-name="infinity" unicode="&#x221e;" horiz-adv-x="711" 
d="M357 345q59 101 151 101q69 0 112.5 -45t43.5 -116q0 -69 -46 -114q-46 -46 -112 -46q-49 0 -88 27t-62 70q-55 -97 -153 -97q-65 0 -110 46q-45 45 -45 112q0 71 45 117q43 46 114 46q91 0 150 -101zM310 286l-2 2q-1 3 -4.5 8t-6.5 10q-20 27 -22 29q-10 12 -29.5 22
t-38.5 10q-38 0 -60 -22.5t-22 -59.5q0 -34 22.5 -57.5t57.5 -23.5q40 0 70 33q16 19 27 36l4 6t3 5zM588 285q0 36 -23 59t-59 23q-19 0 -38.5 -10t-29.5 -21q-6 -7 -22 -30l-14 -20q1 -1 10.5 -14.5t12.5 -18.5q5 -7 14 -17q30 -32 69 -32q35 0 57.5 23.5t22.5 57.5z" />
    <glyph glyph-name="integral" unicode="&#x222b;" horiz-adv-x="377" 
d="M143 -22v566q0 101 47 148.5t153 47.5q13 0 18.5 -5t5.5 -19v-35q0 -24 -24 -24q-62 0 -86 -26.5t-24 -88.5v-566q0 -102 -46.5 -149t-153.5 -47q-13 0 -18.5 5t-5.5 19v35q0 24 24 24q64 0 87 25.5t23 89.5z" />
    <glyph glyph-name="approxequal" unicode="&#x2248;" horiz-adv-x="563" 
d="M88 436q53 48 119 48q35 1 93 -19t83 -19q39 2 69 29q11 10 18 9.5t17 -10.5l27 -25q19 -21 0 -37q-52 -46 -115 -49q-41 -1 -96 18q-57 20 -82 20q-41 -2 -71 -29q-11 -10 -18 -9.5t-17 10.5l-27 26q-19 18 0 37zM90 252q50 47 117 49q37 1 93 -18q57 -20 82 -20
q40 0 72 29q11 9 18 9t17 -10l26 -26q21 -19 0 -37q-49 -46 -114 -49q-37 -1 -95 19q-54 19 -83 19q-37 0 -72 -29q-11 -9 -17.5 -9t-16.5 10l-27 26q-20 20 0 37z" />
    <glyph glyph-name="notequal" unicode="&#x2260;" horiz-adv-x="598" 
d="M352 382l-57 -111h213q15 0 20.5 -5.5t5.5 -20.5v-34q0 -15 -5.5 -20.5t-20.5 -5.5h-257l-55 -108q-5 -8 -18 -8h-33q-7 0 -4 9l55 107h-107q-15 0 -21 5.5t-6 20.5v34q0 15 6 20.5t21 5.5h151l57 111h-208q-15 0 -21 5.5t-6 20.5v35q0 14 6 20t21 6h252l55 106q5 8 16 8
h34q8 0 4 -9l-54 -105h112q15 0 20.5 -6t5.5 -20v-35q0 -15 -5.5 -20.5t-20.5 -5.5h-156z" />
    <glyph glyph-name="lessequal" unicode="&#x2264;" horiz-adv-x="548" 
d="M473 610v-32q0 -21 -5 -29t-20 -14l-267 -111v-4l267 -111q15 -5 20 -13.5t5 -29.5v-35q0 -18 -6 -22.5t-22 2.5l-358 164q-21 11 -21 33v25q0 23 21 33l358 164q16 7 22 2t6 -22zM92 152h354q15 0 21 -5.5t6 -20.5v-32q0 -15 -6 -20.5t-21 -5.5h-354q-15 0 -20.5 5.5
t-5.5 20.5v31q0 15 5.5 21t20.5 6z" />
    <glyph glyph-name="greaterequal" unicode="&#x2265;" horiz-adv-x="547" 
d="M75 578v32q0 17 6 22t22 -2l358 -164q21 -10 21 -33v-25q0 -22 -21 -33l-358 -164q-17 -6 -22.5 -2t-5.5 22v35q0 21 5 29.5t20 13.5l266 111v4l-267 111q-15 6 -19.5 14t-4.5 29zM102 152h353q15 0 21 -6t6 -21v-31q0 -15 -6 -20.5t-21 -5.5h-353q-16 0 -21.5 5.5
t-5.5 20.5v32q0 15 5.5 20.5t21.5 5.5z" />
    <glyph glyph-name="lozenge" unicode="&#x25ca;" horiz-adv-x="538" 
d="M268 710h26q20 0 33 -21l188 -315q11 -21 0 -38l-188 -315q-13 -21 -33 -21h-25q-19 0 -33 21l-188 315q-12 18 0 38l188 315q12 21 32 21zM285 602h-4l-140 -247l139 -247h4l141 247z" />
    <glyph glyph-name="NULL" horiz-adv-x="371" 
 />
    <glyph glyph-name="zero.denom" horiz-adv-x="376" 
d="M39 130v135q0 64 40 101.5t109 37.5t109 -37.5t40 -101.5v-135q0 -64 -39 -101t-110 -37t-110 37t-39 101zM261 130v135q0 31 -19.5 48.5t-53.5 17.5q-35 0 -54 -17.5t-19 -48.5v-135q0 -31 19 -48.5t54 -17.5q34 0 53.5 17.5t19.5 48.5z" />
    <glyph glyph-name="one.denom" horiz-adv-x="283" 
d="M201 396h14q15 0 21 -6t6 -20v-344q0 -14 -6 -20t-21 -6h-23q-15 0 -20.5 6t-5.5 20v275l-86 -48q-23 -12 -37 9l-10 19q-13 22 11 36l126 71q14 8 31 8z" />
    <glyph glyph-name="two.denom" horiz-adv-x="359" 
d="M45 301q40 103 146 103q65 0 102 -34.5t37 -90.5q0 -52 -26 -80.5t-88 -47.5l-57 -18q-44 -15 -44 -46v-18h187q23 0 23 -23v-23q0 -23 -23 -23h-235q-25 0 -25 24v35q0 51 18.5 80t63.5 47l57 22q48 19 59 31q12 15 12 37q0 25 -16.5 40.5t-45.5 15.5q-53 -1 -73 -55
q-6 -15 -12 -18.5t-21 1.5l-22 8q-26 9 -17 33z" />
    <glyph glyph-name="three.denom" horiz-adv-x="366" 
d="M45 301q33 103 153 103q62 0 97 -30.5t35 -82.5q0 -61 -45 -85q57 -27 57 -101q0 -54 -37 -83.5t-107 -29.5q-120 0 -154 101q-10 25 12 33l23 7q24 10 33 -16q10 -31 29 -44t57 -13q69 0 69 54q0 24 -13.5 38t-37.5 14h-50q-15 0 -19 4.5t-4 18.5v20q0 17 4.5 21t20.5 4
h43q48 0 48 49q0 25 -16 39t-44 14q-65 0 -83 -57q-7 -17 -15 -20.5t-25 2.5l-15 6q-23 9 -16 34z" />
    <glyph glyph-name="four.denom" horiz-adv-x="373" 
d="M294 157h30q15 0 19 -4t4 -17v-22q0 -13 -4 -17t-19 -4h-30v-71q0 -13 -4 -17.5t-17 -4.5h-30q-12 0 -16 4.5t-4 17.5v71h-181q-14 0 -18.5 4.5t-4.5 18.5v19q0 14 8 25l180 222q11 14 32 14h32q15 0 19 -4.5t4 -19.5v-215zM223 157v145l-118 -145h118z" />
    <glyph glyph-name="five.denom" horiz-adv-x="357" 
d="M95 396h206q18 0 18 -18v-29q0 -11 -3.5 -14.5t-14.5 -3.5h-168l-8 -80h66q70 0 106.5 -33t36.5 -92t-38 -96.5t-105 -37.5q-119 0 -151 102q-9 25 12 32l21 8q15 5 21 2.5t11 -15.5q21 -62 83 -62q35 0 54.5 17.5t19.5 48.5q0 64 -73 64h-115q-23 0 -21 23l16 163
q1 13 6.5 17t19.5 4z" />
    <glyph glyph-name="six.denom" horiz-adv-x="375" 
d="M114 256v-30q46 18 93 18q136 0 136 -124q0 -62 -40 -95t-114 -33q-151 0 -151 148v113q0 73 39.5 112t116.5 39q50 0 85.5 -20.5t52.5 -52.5q9 -13 -11 -24l-30 -15q-17 -8 -27 5q-23 38 -70 38q-80 0 -80 -79zM114 157v-18q0 -78 75 -78q78 0 78 58q0 56 -72 56
q-37 0 -81 -18z" />
    <glyph glyph-name="seven.denom" horiz-adv-x="319" 
d="M41 396h242q13 0 17 -4t4 -16v-18q0 -14 -6 -26l-138 -316q-4 -8 -6.5 -10.5t-8 -4t-17.5 -1.5h-30q-15 0 -18 5.5t4 21.5l132 299h-175q-12 0 -16 4.5t-4 15.5v30q0 12 4 16t16 4z" />
    <glyph glyph-name="eight.denom" horiz-adv-x="382" 
d="M45 291q0 53 39 83t107 30q69 0 107 -27.5t38 -76.5q0 -64 -60 -92q73 -28 73 -96q0 -58 -40 -89t-118 -31q-77 0 -117.5 27.5t-40.5 78.5q0 69 74 99q-62 29 -62 94zM261 292q0 52 -71 52q-70 0 -70 -53q0 -25 19 -38t67 -22q55 21 55 61zM269 110q0 26 -20 38.5
t-72 21.5q-22 -6 -38 -18q-26 -19 -26 -45q0 -54 79 -54q77 0 77 57z" />
    <glyph glyph-name="nine.denom" horiz-adv-x="376" 
d="M262 140v29q-56 -17 -93 -17q-136 0 -136 124q0 62 40 95t113 33q151 0 151 -149v-112q0 -73 -40 -112t-115 -39q-50 0 -85.5 20t-52.5 52q-9 16 10 25l30 15q18 8 28 -5q20 -38 70 -38q80 0 80 79zM262 239v18q0 78 -76 78q-77 0 -77 -58q0 -56 71 -56q46 0 82 18z" />
    <glyph glyph-name="zero.num" horiz-adv-x="376" 
d="M39 451v135q0 64 40 101.5t109 37.5t109 -37.5t40 -101.5v-135q0 -64 -39 -101t-110 -37t-110 37t-39 101zM261 451v135q0 31 -19.5 48.5t-53.5 17.5q-35 0 -54 -17.5t-19 -48.5v-135q0 -31 19 -49t54 -18q34 0 53.5 18t19.5 49z" />
    <glyph glyph-name="one.num" horiz-adv-x="283" 
d="M201 717h14q15 0 21 -6t6 -21v-343q0 -15 -6 -20.5t-21 -5.5h-23q-15 0 -20.5 5.5t-5.5 20.5v275l-86 -48q-24 -13 -37 9l-10 19q-13 22 11 36l126 71q14 8 31 8z" />
    <glyph glyph-name="two.num" horiz-adv-x="359" 
d="M45 622q37 103 145 103q65 0 102 -34.5t37 -90.5q0 -53 -25.5 -80.5t-88.5 -48.5l-56 -17q-44 -14 -44 -47v-17h186q23 0 23 -23v-24q0 -22 -23 -22h-234q-14 0 -19.5 5t-5.5 18v35q0 51 18.5 80t63.5 47l57 22q49 20 58 31q13 14 13 38q0 25 -17 40.5t-46 15.5
q-51 0 -69 -50l-3 -6q-7 -14 -13 -17t-21 1l-22 7q-25 9 -16 34z" />
    <glyph glyph-name="three.num" horiz-adv-x="366" 
d="M44 621q33 104 152 104q62 0 97 -30.5t35 -82.5q0 -61 -45 -85q57 -29 57 -101q0 -54 -36.5 -83.5t-107.5 -29.5q-120 0 -154 100q-8 27 13 34l22 7q23 10 34 -16q9 -31 28 -44t57 -13q69 0 69 53q0 24 -13 38.5t-37 14.5h-50q-15 0 -19.5 4.5t-4.5 18.5v20
q0 16 4.5 20.5t20.5 4.5h44q47 0 47 49q0 25 -15.5 39t-43.5 14q-35 0 -54.5 -13.5t-29.5 -43.5q-6 -17 -14 -21t-25 3l-16 5q-24 10 -15 34z" />
    <glyph glyph-name="four.num" horiz-adv-x="373" 
d="M294 478h31q15 0 19 -4t4 -17v-22q0 -13 -4 -17t-19 -4h-31v-71q0 -13 -4 -17.5t-17 -4.5h-30q-13 0 -16.5 4t-3.5 18v71h-181q-14 0 -18.5 5t-4.5 18v19q0 14 8 25l180 222q11 14 32 14h32q15 0 19 -4.5t4 -19.5v-215zM223 478v144l-118 -144h118z" />
    <glyph glyph-name="five.num" horiz-adv-x="357" 
d="M96 717h206q18 0 18 -19v-28q0 -11 -3.5 -14.5t-14.5 -3.5h-168l-8 -80h66q70 0 106.5 -33.5t36.5 -91.5q0 -59 -38 -96.5t-105 -37.5q-119 0 -151 101q-11 26 12 33l21 8q15 4 21 1.5t11 -14.5q21 -63 83 -63q35 0 54.5 18t19.5 49q0 64 -73 64h-115q-22 0 -21 22
l16 163q1 13 6.5 17.5t19.5 4.5z" />
    <glyph glyph-name="six.num" horiz-adv-x="376" 
d="M114 577v-30q46 18 93 18q67 0 101.5 -32.5t34.5 -92.5q0 -62 -40.5 -94.5t-113.5 -32.5q-151 0 -151 148v113q0 72 40.5 111.5t115.5 39.5q50 0 85.5 -20.5t52.5 -52.5q9 -14 -11 -25l-30 -14q-16 -9 -27 5q-22 37 -70 37q-80 0 -80 -78zM114 478v-19q0 -77 75 -77
q78 0 78 58q0 56 -72 56q-37 0 -81 -18z" />
    <glyph glyph-name="seven.num" horiz-adv-x="319" 
d="M41 717h243q12 0 16 -4.5t4 -15.5v-19q0 -13 -5 -25l-139 -316q-4 -11 -9 -13.5t-23 -2.5h-29q-15 0 -18 5.5t4 21.5l132 299h-176q-12 0 -16 4t-4 15v30q0 12 4.5 16.5t15.5 4.5z" />
    <glyph glyph-name="eight.num" horiz-adv-x="382" 
d="M45 612q0 53 39 83t107 30q69 0 107 -27.5t38 -76.5q0 -63 -60 -92q73 -28 73 -96q0 -58 -40 -89t-118 -31q-77 0 -117.5 27.5t-40.5 78.5q0 67 74 99q-62 29 -62 94zM261 612q0 53 -71 53q-70 0 -70 -54q0 -24 19 -37t67 -22q55 18 55 60zM269 431q0 26 -20 38.5
t-72 21.5q-22 -6 -38 -18q-26 -19 -26 -45q0 -55 79 -55q77 0 77 58z" />
    <glyph glyph-name="nine.num" horiz-adv-x="376" 
d="M262 461v29q-57 -18 -93 -18q-67 0 -101.5 32.5t-34.5 92.5q0 62 40 95t113 33q151 0 151 -149v-112q0 -73 -40 -112t-115 -39q-50 0 -85.5 20t-52.5 52q-9 16 10 25l30 15q17 8 28 -6q21 -37 70 -37q80 0 80 79zM262 560v18q0 77 -76 77q-77 0 -77 -58q0 -55 71 -55
q46 0 82 18z" />
    <glyph glyph-name="CR" horiz-adv-x="322" 
 />
    <glyph glyph-name="acute.case" horiz-adv-x="257" 
d="M39 805l156 95q28 16 44 -1l20 -24q17 -20 -4 -28l-175 -83q-24 -9 -31 1l-11 15q-13 16 1 25z" />
    <glyph glyph-name="breve.case" horiz-adv-x="287" 
d="M297 867q-36 -105 -154 -105q-58 0 -97 27t-55 78q-5 17 10 23l31 12q19 4 25 -9q18 -66 86 -66q67 0 87 66q6 14 20 9l36 -12q16 -7 11 -23z" />
    <glyph glyph-name="caron.case" horiz-adv-x="332" 
d="M284 904h35q14 0 17 -6t-6 -14l-112 -103q-14 -14 -21.5 -17.5t-22.5 -3.5h-10q-18 0 -25 3t-21 18l-113 103q-9 8 -6 14t17 6h33q23 0 37 -14l81 -71l78 71q14 14 39 14z" />
    <glyph glyph-name="cedilla.case" horiz-adv-x="251" 
d="M160 0l-25 -66q16 2 20 2q40 0 63.5 -24t20.5 -61q-7 -96 -125 -96q-49 0 -77 16q-14 6 -14 23l-1 24q0 16 13 10q32 -20 67 -20q60 0 60 47q0 35 -52 36q-16 0 -29 -3q-11 -1 -14 4t2 16l37 92h54z" />
    <glyph glyph-name="circumflex.case" horiz-adv-x="385" 
d="M205 905h10q15 0 22.5 -3.5t21.5 -17.5l113 -103q17 -20 -12 -20h-35q-25 0 -39 14l-78 71l-81 -71q-14 -14 -37 -14h-33q-29 0 -11 20l113 103q14 15 21 18t25 3z" />
    <glyph glyph-name="dieresis.case" horiz-adv-x="439" 
d="M115 875h6q24 0 33 -9t9 -32v-9q0 -23 -8.5 -32t-33.5 -9h-6q-24 0 -33 9t-9 32v9q0 23 9 32t33 9zM312 875h6q24 0 33 -9t9 -32v-9q0 -23 -9 -32t-33 -9h-6q-24 0 -33 9t-9 32v9q0 23 9 32t33 9z" />
    <glyph glyph-name="dotaccent.case" horiz-adv-x="216" 
d="M105 874h6q25 0 34 -9t9 -34v-7q0 -25 -9 -34t-34 -9h-6q-25 0 -34 9t-9 34v7q0 25 9 34t34 9z" />
    <glyph glyph-name="grave.case" horiz-adv-x="257" 
d="M38 871l20 24q13 19 44 2l156 -93q16 -7 2 -25l-11 -15q-7 -10 -31 -2l-177 82q-19 8 -3 27z" />
    <glyph glyph-name="hungarumlaut.case" horiz-adv-x="395" 
d="M68 791l81 101q15 23 40 16l28 -9q25 -9 7 -27l-105 -100q-17 -14 -29 -10l-14 5q-21 6 -8 24zM235 788l85 104q17 24 40 16l30 -9q27 -11 8 -27l-113 -103q-17 -14 -29 -10l-14 5q-22 6 -7 24z" />
    <glyph glyph-name="macron.case" horiz-adv-x="352" 
d="M59 859h234q13 0 18 -4.5t5 -17.5v-20q0 -13 -5 -18t-18 -5h-234q-13 0 -17.5 4.5t-4.5 18.5v20q0 13 5 17.5t17 4.5z" />
    <glyph glyph-name="ogonek.case" horiz-adv-x="252" 
d="M143 0h60q-44 -47 -64.5 -89t-12.5 -66t33 -24q24 0 40 16q11 8 15 -4l11 -26q5 -12 -2 -17q-36 -36 -92 -36q-70 0 -82 55q-11 40 14 91.5t80 99.5z" />
    <glyph glyph-name="ring.case" horiz-adv-x="240" 
d="M46 779q-30 27 -30 73t30 74q28 28 76 28q46 0 74.5 -28t28.5 -74t-28.5 -73.5t-74.5 -27.5q-48 0 -76 28zM164 811q25 24 10.5 63t-52.5 35q-27 0 -43.5 -15.5t-16.5 -41.5t16.5 -41.5t43.5 -15.5q26 0 42 16z" />
    <glyph glyph-name="tilde.case" horiz-adv-x="305" 
d="M266 888h25q15 0 15 -15q0 -55 -19.5 -80t-61.5 -25q-34 0 -75 32q-40 31 -63 31q-33 0 -33 -48q0 -15 -14 -15h-26q-15 0 -15 15q0 105 80 105q39 0 79 -31q41 -32 61 -32q33 0 33 48q0 15 14 15z" />
    <glyph glyph-name="uni0326.alt" horiz-adv-x="0" 
d="M82 609l50 138q7 22 28 22h29q19 0 16 -17l-31 -143q-2 -15 -8 -20t-21 -5h-41q-31 0 -22 25z" />
    <glyph glyph-name="_375" horiz-adv-x="664" 
d="M306 710h45q25 0 33 -21l218 -582q14 -36 14 -49v-32q0 -14 -6 -20t-21 -6h-521q-15 0 -21 6t-6 20v32q0 13 14 49l218 582q7 21 33 21zM512 80l-147 412q-9 25 -16.5 57.5t-12 53t-5.5 22.5h-5q0 -1 -5 -22.5t-13 -54t-17 -57.5l-146 -411h367z" />
    <glyph glyph-name="_376" horiz-adv-x="744" 
d="M45 377q0 150 95 242q94 91 232 91q139 0 233 -91t94 -242q0 -92 -38 -166.5t-107 -120.5h131q14 0 20 -6t6 -20v-38q0 -14 -6 -20t-20 -6h-243q-14 0 -20 6t-6 21v28q0 15 13 21q84 40 130.5 116.5t46.5 175.5q0 106 -62 183q-63 75 -172 75q-110 0 -171 -75
q-63 -77 -63 -183q0 -96 46 -173t130 -119q14 -6 14 -21v-28q0 -15 -6 -21t-20 -6h-243q-14 0 -20 6t-6 20v38q0 14 6 20t20 6h131q-70 46 -107.5 120.5t-37.5 166.5z" />
    </font>
</defs>
</svg>
